G04 Layer_Physical_Order=4*
G04 Layer_Color=16711680*
%FSLAX25Y25*%
%MOIN*%
G70*
G01*
G75*
%ADD10R,0.02362X0.01968*%
%ADD12R,0.07756X0.02362*%
%ADD15R,0.01968X0.02362*%
%ADD18R,0.05118X0.02559*%
%ADD20R,0.05669X0.07165*%
%ADD22R,0.04488X0.06968*%
%ADD27C,0.01000*%
%ADD29C,0.05000*%
%ADD30C,0.00100*%
%ADD31C,0.05500*%
%ADD32O,0.10000X0.15000*%
%ADD33C,0.12000*%
%ADD34C,0.07087*%
%ADD35R,0.07087X0.07087*%
%ADD36O,0.15000X0.10000*%
%ADD37C,0.06000*%
%ADD38R,0.05905X0.05905*%
%ADD39C,0.05905*%
%ADD40C,0.17500*%
%ADD41C,0.01181*%
%ADD42C,0.02600*%
%ADD43C,0.04016*%
%ADD59R,0.02559X0.05118*%
%ADD60R,0.05000X0.10000*%
%ADD61R,0.04331X0.07874*%
%ADD62R,0.03150X0.03150*%
D10*
X473937Y251500D02*
D03*
X470000D02*
D03*
D12*
X402224Y51201D02*
D03*
Y56201D02*
D03*
Y61201D02*
D03*
Y66201D02*
D03*
X382776D02*
D03*
Y61201D02*
D03*
Y56201D02*
D03*
Y51201D02*
D03*
X492224D02*
D03*
Y56201D02*
D03*
Y61201D02*
D03*
Y66201D02*
D03*
X472776D02*
D03*
Y61201D02*
D03*
Y56201D02*
D03*
Y51201D02*
D03*
X402224Y96201D02*
D03*
Y101201D02*
D03*
Y106201D02*
D03*
Y111201D02*
D03*
X382776D02*
D03*
Y106201D02*
D03*
Y101201D02*
D03*
Y96201D02*
D03*
X492224D02*
D03*
Y101201D02*
D03*
Y106201D02*
D03*
Y111201D02*
D03*
X472776D02*
D03*
Y106201D02*
D03*
Y101201D02*
D03*
Y96201D02*
D03*
X402224Y141201D02*
D03*
Y146201D02*
D03*
Y151201D02*
D03*
Y156201D02*
D03*
X382776D02*
D03*
Y151201D02*
D03*
Y146201D02*
D03*
Y141201D02*
D03*
X492224D02*
D03*
Y146201D02*
D03*
Y151201D02*
D03*
Y156201D02*
D03*
X472776D02*
D03*
Y151201D02*
D03*
Y146201D02*
D03*
Y141201D02*
D03*
X402224Y186201D02*
D03*
Y191201D02*
D03*
Y196201D02*
D03*
Y201201D02*
D03*
X382776D02*
D03*
Y196201D02*
D03*
Y191201D02*
D03*
Y186201D02*
D03*
X492224D02*
D03*
Y191201D02*
D03*
Y196201D02*
D03*
Y201201D02*
D03*
X472776D02*
D03*
Y196201D02*
D03*
Y191201D02*
D03*
Y186201D02*
D03*
X402224Y231201D02*
D03*
Y236201D02*
D03*
Y241201D02*
D03*
Y246201D02*
D03*
X382776D02*
D03*
Y241201D02*
D03*
Y236201D02*
D03*
Y231201D02*
D03*
X492224D02*
D03*
Y236201D02*
D03*
Y241201D02*
D03*
Y246201D02*
D03*
X472776D02*
D03*
Y241201D02*
D03*
Y236201D02*
D03*
Y231201D02*
D03*
D15*
X374000Y232531D02*
D03*
Y236469D02*
D03*
X372000Y189032D02*
D03*
Y192968D02*
D03*
X464000Y55968D02*
D03*
Y52031D02*
D03*
X374000Y97531D02*
D03*
Y101469D02*
D03*
X464000Y101469D02*
D03*
Y97531D02*
D03*
X374000Y55937D02*
D03*
Y52000D02*
D03*
X371500Y144532D02*
D03*
Y148468D02*
D03*
X464000Y145968D02*
D03*
Y142032D02*
D03*
X495000Y206031D02*
D03*
Y209968D02*
D03*
X113000Y24032D02*
D03*
Y27968D02*
D03*
D18*
X130000Y108500D02*
D03*
Y103579D02*
D03*
D20*
X397260Y32000D02*
D03*
X386740D02*
D03*
X487260D02*
D03*
X476740D02*
D03*
X397760Y77000D02*
D03*
X387240D02*
D03*
X487260D02*
D03*
X476740D02*
D03*
X397260Y122000D02*
D03*
X386740D02*
D03*
X487260D02*
D03*
X476740D02*
D03*
X397260Y167000D02*
D03*
X386740D02*
D03*
X487260D02*
D03*
X476740D02*
D03*
X397260Y212000D02*
D03*
X386740D02*
D03*
X487260D02*
D03*
X476740D02*
D03*
D22*
X397669Y42201D02*
D03*
X386331D02*
D03*
X487669D02*
D03*
X476331D02*
D03*
X397669Y87201D02*
D03*
X386331D02*
D03*
X487669D02*
D03*
X476331D02*
D03*
X397669Y132201D02*
D03*
X386331D02*
D03*
X487669D02*
D03*
X476331D02*
D03*
X397669Y177201D02*
D03*
X386331D02*
D03*
X487669D02*
D03*
X476331D02*
D03*
X397669Y222201D02*
D03*
X386331D02*
D03*
X487669D02*
D03*
X476331D02*
D03*
D27*
X205036Y258000D02*
X214000Y266964D01*
Y270000D01*
X106500Y258000D02*
X205036D01*
X215500Y261000D02*
X238000D01*
X206900Y252400D02*
X215500Y261000D01*
X206900Y250748D02*
Y252400D01*
X202200Y265300D02*
X204500Y263000D01*
X202200Y265300D02*
Y270000D01*
X156000Y263000D02*
X157500Y264500D01*
X154000Y263000D02*
X156000D01*
X145700Y265300D02*
X148000Y263000D01*
X145700Y265300D02*
Y270000D01*
X101000Y264500D02*
Y270000D01*
X99500Y263000D02*
X101000Y264500D01*
X97500Y263000D02*
X99500D01*
X89200Y265300D02*
X91500Y263000D01*
X89200Y265300D02*
Y270000D01*
X123500Y41000D02*
X126900D01*
X120801Y54548D02*
X136097Y39252D01*
X113200Y55251D02*
Y55251D01*
X113151Y55300D02*
X113200Y55251D01*
X113151Y55300D02*
X113151D01*
X113903Y54548D02*
X120801D01*
X113200Y55251D02*
X113903Y54548D01*
X112000Y56451D02*
X113151Y55300D01*
X119500Y69000D02*
X122500Y66000D01*
Y55500D02*
Y66000D01*
X112000Y56451D02*
Y66000D01*
X110700Y67300D02*
X112000Y66000D01*
X136097Y39252D02*
X136900D01*
X129500Y48500D02*
X131596D01*
X122500Y55500D02*
X129500Y48500D01*
X121500Y43000D02*
Y45500D01*
X107000Y53500D02*
Y60648D01*
X106900Y60748D02*
X107000Y60648D01*
X106900Y45900D02*
X107000Y46000D01*
X106900Y39252D02*
Y45900D01*
X113000Y37500D02*
X114752Y39252D01*
X113000Y27968D02*
Y37500D01*
X114752Y39252D02*
X116900D01*
X76000Y2500D02*
X109000D01*
X73000Y5500D02*
X76000Y2500D01*
X109000D02*
X113000Y6500D01*
X80500Y7500D02*
X82579D01*
X79000Y6000D02*
X80500Y7500D01*
X79000Y5000D02*
Y6000D01*
X100500Y7500D02*
X102000Y6000D01*
X97421Y7500D02*
X100500D01*
X90500Y9500D02*
X92500Y7500D01*
X83000Y14000D02*
Y15294D01*
X79000Y10000D02*
X83000Y14000D01*
X73000Y10000D02*
X79000D01*
X73000Y5500D02*
Y10000D01*
X145500Y8500D02*
X146000Y9000D01*
X142921Y8500D02*
X145500D01*
X131100Y27106D02*
X135500Y22705D01*
Y12079D02*
Y22705D01*
X131921Y8500D02*
X135500Y12079D01*
X123000Y8500D02*
X127000D01*
X131921D02*
X136921Y3500D01*
X138000Y22206D02*
X142900Y27106D01*
X138000Y8500D02*
Y22206D01*
X153000Y3500D02*
X160000Y10500D01*
X136921Y3500D02*
X153000D01*
X142000Y43549D02*
X143903Y45452D01*
X142000Y28005D02*
Y43549D01*
Y28005D02*
X142900Y27106D01*
X131596Y48500D02*
X132944Y47152D01*
X133648Y48852D02*
X198148D01*
X132500Y50000D02*
X133648Y48852D01*
X143903Y45452D02*
X173048D01*
X209248Y50552D02*
X212000Y47800D01*
X198148Y48852D02*
X203200Y43800D01*
X188897Y47152D02*
X190600Y45449D01*
X132944Y47152D02*
X188897D01*
X143900Y50552D02*
X209248D01*
X141000Y53452D02*
X143900Y50552D01*
X173048Y45452D02*
X176900Y41600D01*
Y39252D02*
Y41600D01*
X135652Y40500D02*
X136900Y39252D01*
X83000Y27106D02*
X83951D01*
X90500Y9500D02*
Y22806D01*
X113000Y6500D02*
Y24032D01*
X83000Y27106D02*
X87500Y22605D01*
Y7500D02*
Y22605D01*
X90500Y22806D02*
X94800Y27106D01*
X81500Y13794D02*
X83000Y15294D01*
X64000Y10000D02*
X68079D01*
X62500Y11500D02*
X64000Y10000D01*
X62500Y11500D02*
Y13500D01*
X77605Y32500D02*
X83000Y27106D01*
X52000Y34500D02*
X52500Y35000D01*
X48500Y34500D02*
X52000D01*
X30500Y40000D02*
X32579Y37921D01*
Y34500D02*
Y37921D01*
Y29477D02*
Y34500D01*
X46750Y27106D02*
X48500Y28855D01*
Y34500D01*
X32579Y29477D02*
X34950Y27106D01*
X37500Y34500D02*
X40500D01*
X37421D02*
X37500D01*
X40500D02*
X43500D01*
X296500Y165000D02*
X297000Y165500D01*
X472776Y191201D02*
X478701D01*
X479500Y192000D01*
Y199000D01*
X486531Y206031D01*
X495000D01*
Y209968D02*
X505500Y220468D01*
X472543Y145968D02*
X472776Y146201D01*
X464000Y145968D02*
X472543D01*
X463469Y141500D02*
X464000Y142032D01*
X459500Y141500D02*
X463469D01*
X472508Y101469D02*
X472776Y101201D01*
X464000Y101469D02*
X472508D01*
X462968Y96500D02*
X464000Y97531D01*
X459500Y96500D02*
X462968D01*
X472543Y55968D02*
X472776Y56201D01*
X464000Y55968D02*
X472543D01*
X463469Y51500D02*
X464000Y52031D01*
X459500Y51500D02*
X463469D01*
X467299Y61201D02*
X472776D01*
X460700Y67800D02*
X467299Y61201D01*
X369500Y51500D02*
X370000Y52000D01*
X374000D01*
X382512Y55937D02*
X382776Y56201D01*
X374000Y55937D02*
X382512D01*
X378701Y101201D02*
X382776D01*
X375031Y97531D02*
X378701Y101201D01*
X374000Y97531D02*
X375031D01*
X371468Y101469D02*
X374000D01*
X369500Y99500D02*
X371468Y101469D01*
X369500Y96500D02*
Y99500D01*
X371800Y148602D02*
Y161200D01*
X375201Y146201D02*
X382776D01*
X373532Y144532D02*
X375201Y146201D01*
X371500Y144532D02*
X373532D01*
X376201Y191201D02*
X382776D01*
X374031Y189032D02*
X376201Y191201D01*
X372000Y189032D02*
X374031D01*
X379201Y236201D02*
X382776D01*
X375532Y232531D02*
X379201Y236201D01*
X374000Y232531D02*
X375532D01*
X371468Y236469D02*
X374000D01*
X369000Y234000D02*
X371468Y236469D01*
X369000Y233500D02*
Y234000D01*
X464200Y257300D02*
X470000Y251500D01*
X473937D02*
X477000D01*
X480000Y248500D01*
Y239000D02*
Y248500D01*
X477201Y236201D02*
X480000Y239000D01*
X472776Y236201D02*
X477201D01*
X123500Y111500D02*
X127000D01*
X267000Y37000D02*
Y48500D01*
X96900Y39252D02*
X97500Y39852D01*
X305904Y242500D02*
X308404Y245000D01*
X230148Y242500D02*
X305904D01*
X435652Y259000D02*
X499500D01*
X306308Y235500D02*
X313508Y242700D01*
X342535Y245000D02*
X345500Y247965D01*
X340000Y247000D02*
X342000Y249000D01*
X308000Y247000D02*
X340000D01*
X313508Y242700D02*
X346300D01*
X417800Y251300D02*
X433704D01*
X416000Y249500D02*
X417800Y251300D01*
X121500Y43000D02*
X123500Y41000D01*
X190600Y45400D02*
X193200Y42800D01*
X190600Y45400D02*
Y45449D01*
X217500Y52500D02*
X223000Y47000D01*
X152900Y52500D02*
X217500D01*
X152000Y53400D02*
X152900Y52500D01*
X76900Y39252D02*
Y39952D01*
X86900Y39252D02*
Y60748D01*
X76900Y50500D02*
Y60748D01*
X302000Y237500D02*
X303500Y239000D01*
X245148Y237500D02*
X302000D01*
X361900Y138500D02*
X362000Y138600D01*
X236900Y229252D02*
X245148Y237500D01*
X253148Y235500D02*
X306308D01*
X246900Y229252D02*
X253148Y235500D01*
X237648Y240000D02*
X292500D01*
X412500Y46500D02*
Y53500D01*
X409799Y56201D02*
X412500Y53500D01*
X402224Y56201D02*
X409799D01*
X222500Y102000D02*
X225000Y99500D01*
X180000Y102000D02*
X222500D01*
X285800Y97300D02*
X287500Y99000D01*
X239300Y97300D02*
X285800D01*
X247500Y29500D02*
X248000D01*
X246000Y28000D02*
X247500Y29500D01*
X239000Y69500D02*
X239750D01*
X392701Y132201D02*
X397669D01*
X391500Y131000D02*
X392701Y132201D01*
X391500Y129000D02*
Y131000D01*
X482701Y222201D02*
X487669D01*
X481500Y221000D02*
X482701Y222201D01*
X481500Y219000D02*
Y221000D01*
X483201Y177201D02*
X487260D01*
X481500Y175500D02*
X483201Y177201D01*
X481500Y173000D02*
Y175500D01*
X485201Y132201D02*
X487260D01*
X481500Y128500D02*
X485201Y132201D01*
X485701Y87201D02*
X487260D01*
X481500Y83000D02*
X485701Y87201D01*
X397669Y132201D02*
X402224Y136756D01*
X397260Y131791D02*
X397669Y132201D01*
X397260Y122000D02*
Y131791D01*
Y32000D02*
X397669Y32409D01*
Y42201D01*
X393299Y62500D02*
X397000Y66201D01*
X390000Y62500D02*
X393299D01*
X159500Y76000D02*
X161000Y74500D01*
X159500Y76000D02*
Y81000D01*
X476331Y132201D02*
X476740Y131791D01*
Y122000D02*
Y131791D01*
X487260Y133992D02*
X492224Y138957D01*
X386331Y177201D02*
X386740Y176791D01*
Y167000D02*
Y176791D01*
X386331Y132201D02*
X386740Y131791D01*
Y122000D02*
Y131791D01*
X476331Y222201D02*
X476740Y221791D01*
Y212000D02*
Y221791D01*
X487669Y222201D02*
X492224Y226756D01*
X487260Y221791D02*
X487669Y222201D01*
X487260Y212000D02*
Y221791D01*
X476331Y177201D02*
X476740Y176791D01*
Y167000D02*
Y176791D01*
X487260Y178992D02*
X492224Y183957D01*
X397260Y172000D02*
Y176791D01*
Y167000D02*
Y172000D01*
X396260Y173000D02*
X397260Y172000D01*
X391500Y173000D02*
X396260D01*
X397669Y177201D02*
X402224Y181756D01*
X397260Y176791D02*
X397669Y177201D01*
X402224Y181756D02*
Y186201D01*
X476331Y87201D02*
X476740Y86791D01*
Y77000D02*
Y86791D01*
X487260Y88992D02*
X492224Y93957D01*
X393468Y83000D02*
X397669Y87201D01*
X391500Y83000D02*
X393468D01*
X386331Y87201D02*
X387240Y86291D01*
Y77000D02*
Y86291D01*
X397669Y77091D02*
X397760Y77000D01*
X397669Y77091D02*
Y87201D01*
X402224Y91756D01*
Y96201D01*
X487669Y42201D02*
X492224Y46756D01*
Y51201D01*
X483468Y38000D02*
X487260Y41791D01*
X487669Y42201D01*
X487260Y32000D02*
Y41791D01*
X391500Y37760D02*
X397260Y32000D01*
X391500Y37760D02*
Y38000D01*
X386331Y42201D02*
X386740Y41791D01*
Y32000D02*
Y41791D01*
X397669Y42201D02*
X402224Y46756D01*
X476331Y42201D02*
X476740Y41791D01*
Y32000D02*
Y41791D01*
X481500Y38000D02*
X483468D01*
X396559Y221500D02*
X397260Y222201D01*
X391500Y221500D02*
X396559D01*
X386331Y222201D02*
X386740Y221791D01*
Y212000D02*
Y221791D01*
X397260Y226236D02*
X402224Y231201D01*
X130000Y100000D02*
Y103579D01*
X127000Y111500D02*
X130000Y108500D01*
X216900Y250748D02*
X225452Y259300D01*
X157500Y264500D02*
Y270000D01*
X32700Y265300D02*
Y270000D01*
Y265300D02*
X35000Y263000D01*
X41000D02*
X43000D01*
X44500Y264500D01*
Y270000D01*
X256900Y250748D02*
X260748D01*
X217000Y32000D02*
Y39152D01*
X286900Y30600D02*
Y39252D01*
X296900Y30600D02*
Y39252D01*
X176900D02*
X186250Y29902D01*
X176900Y60748D02*
X181148Y56500D01*
X333500Y95500D02*
X339000Y101000D01*
X272500Y83500D02*
Y91000D01*
X287000Y78000D02*
X326000D01*
X69500Y37455D02*
Y46000D01*
X262500Y14000D02*
X265500D01*
X167500Y10500D02*
X171000Y14000D01*
X169000Y72500D02*
X170000Y71500D01*
X157000Y72500D02*
X169000D01*
X152500Y77000D02*
X157000Y72500D01*
X150000Y77000D02*
X152500D01*
X146800Y75700D02*
X152000Y70500D01*
X265500Y14000D02*
X273000Y21500D01*
X277750Y14000D02*
Y29250D01*
X274500Y32500D02*
X277750Y29250D01*
X186250Y14000D02*
Y29902D01*
X180500Y31000D02*
Y31500D01*
X160000Y10500D02*
X167500D01*
X74500Y32500D02*
X77605D01*
X73948Y33052D02*
X74500Y32500D01*
X73903Y33052D02*
X73948D01*
X69500Y37455D02*
X73903Y33052D01*
X393000Y231701D02*
Y242201D01*
X397000Y246201D01*
X402224D01*
Y236201D02*
Y241201D01*
X406500Y236201D02*
X412500Y230201D01*
X402224Y236201D02*
X406500D01*
X412500Y226500D02*
Y230201D01*
X380000Y222000D02*
X384531D01*
X361900Y228500D02*
X362000Y228600D01*
X308404Y245000D02*
X342535D01*
X305500Y244500D02*
X308000Y247000D01*
X222148Y244500D02*
X305500D01*
X260748Y250748D02*
X261000Y251000D01*
X380000Y42000D02*
X384531D01*
X380000Y87000D02*
X384531D01*
X380000Y132000D02*
X384531D01*
X380000Y177000D02*
X384531D01*
X470000Y222000D02*
X474532D01*
X470000Y177000D02*
X474532D01*
X470000Y132000D02*
X474532D01*
X470000Y87000D02*
X474532D01*
Y40402D02*
Y42000D01*
Y40402D02*
X476331Y42201D01*
X470000Y42000D02*
X474532D01*
X330500Y102000D02*
X331929Y100571D01*
X303000Y102000D02*
X330500D01*
X297929Y96929D02*
X303000Y102000D01*
X297929Y92071D02*
Y96929D01*
X236900Y67400D02*
X239000Y69500D01*
X223000Y31500D02*
Y47000D01*
X152000Y53400D02*
Y70500D01*
X125800Y75700D02*
X146800D01*
X116500Y85000D02*
X125800Y75700D01*
X141000Y53452D02*
Y69500D01*
X136500Y74000D02*
X141000Y69500D01*
X122000Y74000D02*
X136500D01*
X111000Y85000D02*
X122000Y74000D01*
X132500Y50000D02*
Y66000D01*
X127000Y71500D02*
X132500Y66000D01*
X181148Y56500D02*
X182000D01*
X91500Y92000D02*
X157536D01*
X86900Y87400D02*
X91500Y92000D01*
X157536D02*
X169035Y80500D01*
X308000Y31500D02*
X373000D01*
X96900Y250748D02*
X97000Y250648D01*
X281000Y81000D02*
X292000D01*
X161000Y74500D02*
X274500D01*
X166500Y91000D02*
Y92000D01*
X269500Y80500D02*
X272500Y83500D01*
X169035Y80500D02*
X269500D01*
X172000Y94000D02*
X172500D01*
X236900Y250748D02*
Y251900D01*
X258152Y228000D02*
X262000D01*
X256900Y229252D02*
X258152Y228000D01*
X226900Y250748D02*
X233752Y257600D01*
X76900Y250748D02*
X80500Y254348D01*
Y254500D01*
X186900Y68400D02*
X187500Y69000D01*
X166900Y39252D02*
X167652Y38500D01*
X172000D01*
X171252Y60748D02*
X172000Y60000D01*
X451900Y228500D02*
X452000Y228600D01*
X492224Y226756D02*
Y231201D01*
X502500Y226500D02*
Y230201D01*
X492224Y236201D02*
X496500D01*
X502500Y230201D01*
X492224Y236201D02*
Y241201D01*
X487000Y246201D02*
X492224D01*
X483000Y242201D02*
X487000Y246201D01*
X483000Y231701D02*
Y242201D01*
X465201Y241201D02*
X472776D01*
X296900Y30600D02*
X297000Y30500D01*
X286900Y30600D02*
X287000Y30500D01*
X96900Y60748D02*
X97500Y60148D01*
X86900Y39252D02*
X86950Y39202D01*
X226900Y32600D02*
X227000Y32500D01*
X216900Y39252D02*
X217000Y39152D01*
X375201Y61201D02*
X382776D01*
X402224Y56201D02*
Y61201D01*
X397000Y66201D02*
X402224D01*
Y46756D02*
Y51201D01*
X361900Y48500D02*
X362000Y48600D01*
X492224Y56201D02*
Y61201D01*
X487000Y66201D02*
X492224D01*
X483000Y62201D02*
X487000Y66201D01*
X483000Y51701D02*
Y62201D01*
X502500Y46500D02*
Y50201D01*
X492224Y56201D02*
X496500D01*
X502500Y50201D01*
X451900Y48500D02*
X452000Y48600D01*
X375201Y106201D02*
X382776D01*
X402224Y101201D02*
Y106201D01*
X397000Y111201D02*
X402224D01*
X393000Y107201D02*
X397000Y111201D01*
X393000Y96701D02*
Y107201D01*
X412500Y91500D02*
Y95201D01*
X402224Y101201D02*
X406500D01*
X412500Y95201D01*
X361900Y93500D02*
X362000Y93600D01*
X465201Y106201D02*
X472776D01*
X492224Y101201D02*
Y106201D01*
X487000Y111201D02*
X492224D01*
X483000Y107201D02*
X487000Y111201D01*
X483000Y96701D02*
Y107201D01*
X492224Y93957D02*
Y96201D01*
X502500Y91500D02*
Y95201D01*
X492224Y101201D02*
X496500D01*
X502500Y95201D01*
X451900Y93500D02*
X452000Y93600D01*
X375201Y151201D02*
X382776D01*
X402224Y146201D02*
Y151201D01*
X397000Y156201D02*
X402224D01*
X393000Y152201D02*
X397000Y156201D01*
X393000Y141701D02*
Y152201D01*
X402224Y136756D02*
Y141201D01*
X412500Y136500D02*
Y140201D01*
X402224Y146201D02*
X406500D01*
X412500Y140201D01*
X465201Y151201D02*
X472776D01*
X492224Y146201D02*
Y151201D01*
X487000Y156201D02*
X492224D01*
X483000Y152201D02*
X487000Y156201D01*
X483000Y141701D02*
Y152201D01*
X492224Y138957D02*
Y141201D01*
X502500Y136500D02*
Y140201D01*
X492224Y146201D02*
X496500D01*
X502500Y140201D01*
X451900Y138500D02*
X452000Y138600D01*
X375201Y196201D02*
X382776D01*
X402224Y191201D02*
Y196201D01*
X397000Y201201D02*
X402224D01*
X393000Y197201D02*
X397000Y201201D01*
X393000Y186701D02*
Y197201D01*
X361900Y183500D02*
X362000Y183600D01*
X465201Y196201D02*
X472776D01*
X492224Y191201D02*
Y196201D01*
X487000Y201201D02*
X492224D01*
X483000Y197201D02*
X487000Y201201D01*
X483000Y186701D02*
Y197201D01*
X492224Y183957D02*
Y186201D01*
X502500Y181500D02*
Y185201D01*
X492224Y191201D02*
X496500D01*
X502500Y185201D01*
X451900Y183500D02*
X452000Y183600D01*
X339000Y101000D02*
Y103500D01*
X320000Y95500D02*
X333500D01*
X317500Y98000D02*
X320000Y95500D01*
X308000Y98000D02*
X317500D01*
X305000Y95000D02*
X308000Y98000D01*
X346071Y190571D02*
Y194929D01*
X274500Y74500D02*
X281000Y81000D01*
X193200Y29896D02*
Y42800D01*
X223000Y31500D02*
X226500Y28000D01*
X246000D01*
X250535Y29000D02*
X252000D01*
X212000Y32000D02*
X218000Y26000D01*
X247535D01*
X250535Y29000D01*
X212000Y32000D02*
Y47800D01*
X203200Y33300D02*
Y43800D01*
Y33300D02*
X212200Y24300D01*
X264800D01*
X267000Y26500D01*
X272500Y26000D02*
Y27500D01*
X193200Y29896D02*
X200496Y22600D01*
X269100D01*
X272500Y26000D01*
X160000Y10500D02*
Y26000D01*
X166500Y91000D02*
X169000Y88500D01*
X230500D01*
X239300Y97300D01*
X434500Y264000D02*
X438000D01*
X434404Y261500D02*
X441000D01*
X373500Y107902D02*
X375201Y106201D01*
X373500Y152902D02*
X375201Y151201D01*
X373500Y152902D02*
Y162000D01*
X372500Y163000D02*
X373500Y162000D01*
X372464Y163000D02*
X372500D01*
X371000Y164464D02*
X372464Y163000D01*
X371000Y164464D02*
Y164500D01*
X367000Y168500D02*
X371000Y164500D01*
X374000Y197402D02*
X375201Y196201D01*
X368000Y213000D02*
X374000Y207000D01*
Y197402D02*
Y207000D01*
X355500Y210500D02*
X368000D01*
X372000Y206500D01*
Y193402D02*
Y206500D01*
X376500Y241201D02*
X382776D01*
X246900Y250748D02*
X253852Y257700D01*
X375000Y242701D02*
X376500Y241201D01*
X375000Y242701D02*
Y252479D01*
X327500Y249500D02*
X334000Y256000D01*
X346300Y242700D02*
X351500Y247900D01*
Y252000D01*
X371479Y256000D02*
X375000Y252479D01*
X253852Y257700D02*
X372183D01*
X334000Y256000D02*
X371479D01*
X460700Y110702D02*
X465201Y106201D01*
X460700Y155702D02*
X465201Y151201D01*
X433704Y251300D02*
X437904Y255500D01*
X505500Y220468D02*
Y253000D01*
X499500Y259000D02*
X505500Y253000D01*
X406500Y191201D02*
X412500Y185201D01*
X402224Y191201D02*
X406500D01*
X412500Y181500D02*
Y185201D01*
X184000Y71500D02*
X196000D01*
X196500Y71000D01*
X196900Y70600D01*
X196500Y71000D02*
X233500D01*
X186900Y60748D02*
Y68400D01*
X166900Y60748D02*
X171252D01*
X286900D02*
Y69400D01*
X296900Y60748D02*
Y69400D01*
X236900Y60748D02*
Y67400D01*
X75000Y41152D02*
X76900Y39252D01*
X217000Y60848D02*
Y68000D01*
X207000Y60848D02*
Y68000D01*
X196900Y60748D02*
Y70600D01*
X86900Y60748D02*
Y87400D01*
X226900Y32600D02*
Y39252D01*
X97500Y39852D02*
Y60148D01*
X216900Y229252D02*
X230148Y242500D01*
X226900Y229252D02*
X237648Y240000D01*
X206900Y229252D02*
X222148Y244500D01*
X97000Y243500D02*
Y250648D01*
X76500Y221500D02*
X76900Y221900D01*
Y229252D01*
X303500Y41000D02*
X316000D01*
X316500Y41500D01*
X179500Y71500D02*
X184000D01*
X177000Y69000D02*
X179500Y71500D01*
X155500Y69000D02*
X177000D01*
X265000Y50500D02*
X267000Y48500D01*
Y37000D02*
X271500Y32500D01*
X274500D01*
X271500Y53500D02*
X274500Y50500D01*
X271500Y53500D02*
Y56148D01*
X266900Y60748D02*
X271500Y56148D01*
X250500Y47500D02*
Y53000D01*
Y47500D02*
X256900Y41100D01*
Y39252D02*
Y41100D01*
X254000Y50500D02*
Y53500D01*
X252000Y55500D02*
X254000Y53500D01*
X252000Y55500D02*
Y66500D01*
X254000Y68500D01*
X265500D01*
X266900Y67100D01*
Y60748D02*
Y67100D01*
X256900Y58600D02*
Y60748D01*
Y58600D02*
X262500Y53000D01*
X268500D01*
X238000Y261000D02*
X241500Y264500D01*
X375000D01*
X225452Y259300D02*
X238800D01*
X242300Y262800D01*
X374296D01*
X236900Y251900D02*
X244400Y259400D01*
X372887D01*
X233752Y257600D02*
X239600D01*
X243100Y261100D01*
X373592D01*
X377747Y261753D02*
X428753D01*
X375000Y264500D02*
X377747Y261753D01*
X428753D02*
X434000Y267000D01*
X374296Y262800D02*
X377043Y260053D01*
X430553D01*
X434500Y264000D01*
X373592Y261100D02*
X376339Y258353D01*
X431257D01*
X434404Y261500D01*
X372887Y259400D02*
X375635Y256653D01*
X433305D01*
X435652Y259000D01*
X372183Y257700D02*
X374931Y254953D01*
X434009D01*
X436356Y257300D02*
X464200D01*
X434009Y254953D02*
X436356Y257300D01*
X116500Y144000D02*
Y185500D01*
Y144000D02*
X157000Y103500D01*
X373000Y63402D02*
X375201Y61201D01*
X373000Y63402D02*
Y71500D01*
X373500Y107902D02*
Y117000D01*
X462500Y198902D02*
X465201Y196201D01*
X462500Y198902D02*
Y207000D01*
X456000Y166500D02*
X460700Y161800D01*
Y155702D02*
Y161800D01*
X460500Y118465D02*
Y118500D01*
Y118465D02*
X460700Y118264D01*
Y110702D02*
Y118264D01*
X457000Y77000D02*
X460000Y74000D01*
Y73965D02*
Y74000D01*
Y73965D02*
X460700Y73264D01*
Y67800D02*
Y73264D01*
X417500Y26500D02*
X422000Y31000D01*
X327500Y26500D02*
X417500D01*
X297000Y165500D02*
X367500D01*
X300279Y197700D02*
X343300D01*
X299000Y196421D02*
X300279Y197700D01*
X343300D02*
X346071Y194929D01*
X463500Y242902D02*
X465201Y241201D01*
X437904Y255500D02*
X460000D01*
X463500Y252000D01*
Y242902D02*
Y252000D01*
X398760Y33500D02*
X461000D01*
X463000Y31500D01*
X397669Y32409D02*
X398760Y33500D01*
X397260Y222201D02*
Y226236D01*
Y212000D02*
Y222201D01*
X487260Y77000D02*
Y87201D01*
Y88992D01*
Y122000D02*
Y132201D01*
Y133992D01*
Y167000D02*
Y177201D01*
Y178992D01*
X417500Y77000D02*
X457000D01*
X417000Y122500D02*
X456500D01*
X460500Y118500D01*
X417000Y166500D02*
X456000D01*
X458000Y211500D02*
X462500Y207000D01*
X416500Y211500D02*
X458000D01*
X325500Y213000D02*
X368000D01*
X309000Y204000D02*
X349000D01*
X355500Y210500D01*
X326500Y168500D02*
X367000D01*
X326000Y168000D02*
X326500Y168500D01*
X367500Y165500D02*
X371800Y161200D01*
X300000Y162000D02*
X325500D01*
X339000Y148500D01*
X326000Y123000D02*
X367500D01*
X373500Y117000D01*
X326000Y78000D02*
X366500D01*
X373000Y71500D01*
X225000Y99500D02*
X240500Y115000D01*
X284500D01*
X172000Y94000D02*
X180000Y102000D01*
X235500Y99000D02*
X247500Y111000D01*
X281000D01*
X177000Y92500D02*
X229000D01*
X235500Y99000D01*
X95000Y88000D02*
X111500Y71500D01*
X127000D01*
X91500Y87000D02*
X109500Y69000D01*
X119500D01*
X94500Y73000D02*
X100200Y67300D01*
X110700D01*
X160000Y26000D02*
X165500Y31500D01*
X180500D01*
X300004Y179000D02*
X311500Y190496D01*
Y190571D01*
X331929D01*
X299000Y179000D02*
X300004D01*
X77000Y40252D02*
Y50500D01*
X384531Y42000D02*
Y43232D01*
Y87000D02*
Y88232D01*
Y132000D02*
Y133232D01*
Y88232D02*
X393000Y96701D01*
X384531Y133232D02*
X393000Y141701D01*
X384531Y177000D02*
Y178232D01*
Y222000D02*
Y223232D01*
Y178232D02*
X393000Y186701D01*
X384531Y223232D02*
X393000Y231701D01*
X474532Y42000D02*
Y43232D01*
Y87000D02*
Y88232D01*
Y132000D02*
Y133232D01*
Y43232D02*
X483000Y51701D01*
X474532Y88232D02*
X483000Y96701D01*
X474532Y133232D02*
X483000Y141701D01*
X474532Y177000D02*
Y178232D01*
X483000Y186701D01*
X474532Y222000D02*
Y223232D01*
X483000Y231701D01*
D29*
X358080Y191480D02*
X362000Y195400D01*
X357100Y235500D02*
X362000Y240400D01*
X354500Y235500D02*
X357100D01*
X429000Y138500D02*
X451900D01*
X429000Y48500D02*
X451900D01*
X339000Y138500D02*
X361900D01*
X429000Y228500D02*
X451900D01*
X429000Y93500D02*
X451900D01*
X429000Y183500D02*
X451900D01*
X339000Y228500D02*
X361900D01*
X339000Y183500D02*
X361900D01*
X353000Y191480D02*
X358080D01*
X358120Y150400D02*
X362000D01*
X354500Y146780D02*
X358120Y150400D01*
X339000Y93500D02*
X361900D01*
X354000Y102000D02*
X357400Y105400D01*
X362000D01*
X339000Y48500D02*
X361900D01*
X357400Y60400D02*
X362000D01*
X354000Y57000D02*
X357400Y60400D01*
X448120D02*
X452000D01*
X444500Y56779D02*
X448120Y60400D01*
Y105400D02*
X452000D01*
X444500Y101779D02*
X448120Y105400D01*
Y150400D02*
X452000D01*
X444500Y146780D02*
X448120Y150400D01*
Y195400D02*
X452000D01*
X444500Y191779D02*
X448120Y195400D01*
Y240400D02*
X452000D01*
X444500Y236779D02*
X448120Y240400D01*
X421650Y235921D02*
X422000Y235571D01*
D30*
X165500Y121500D02*
G03*
X168500Y118500I3000J0D01*
G01*
X267500D02*
G03*
X270500Y121500I0J3000D01*
G01*
Y220500D02*
G03*
X267500Y223500I-3000J0D01*
G01*
X0Y25000D02*
G03*
X25000Y0I25000J0D01*
G01*
Y280000D02*
G03*
X0Y255000I0J-25000D01*
G01*
X168500Y223500D02*
G03*
X165500Y220500I0J-3000D01*
G01*
X0Y-2500D02*
Y2500D01*
X-2500Y0D02*
X2500D01*
X25000Y280000D02*
X510000D01*
X0Y25000D02*
Y109100D01*
Y197800D02*
Y255000D01*
Y109100D02*
X88300D01*
X0Y197800D02*
X88300D01*
Y109100D02*
Y197800D01*
X270500Y121500D02*
Y220500D01*
X165500Y121500D02*
Y220500D01*
X168500Y118500D02*
X267500D01*
X168500Y223500D02*
X267500D01*
X510000Y0D02*
Y280000D01*
X25000Y0D02*
X510000D01*
D31*
X34950Y27106D02*
D03*
X46750D02*
D03*
Y15294D02*
D03*
X34950D02*
D03*
X452000Y240400D02*
D03*
Y228600D02*
D03*
X131100Y27106D02*
D03*
X142900D02*
D03*
Y15294D02*
D03*
X131100D02*
D03*
X151500Y205400D02*
D03*
Y193600D02*
D03*
X83000Y27106D02*
D03*
X94800D02*
D03*
Y15294D02*
D03*
X83000D02*
D03*
X36100Y212500D02*
D03*
X47900D02*
D03*
X225800Y270000D02*
D03*
X202200D02*
D03*
X214000D02*
D03*
X169300D02*
D03*
X145700D02*
D03*
X157500D02*
D03*
X112800D02*
D03*
X89200D02*
D03*
X101000D02*
D03*
X56300D02*
D03*
X32700D02*
D03*
X44500D02*
D03*
X362000Y240400D02*
D03*
Y228600D02*
D03*
X452000Y195400D02*
D03*
Y183600D02*
D03*
X362000Y195400D02*
D03*
Y183600D02*
D03*
X452000Y150400D02*
D03*
Y138600D02*
D03*
X362000Y150400D02*
D03*
Y138600D02*
D03*
X452000Y105400D02*
D03*
Y93600D02*
D03*
X362000Y105400D02*
D03*
Y93600D02*
D03*
X452000Y60400D02*
D03*
Y48600D02*
D03*
X362000Y60400D02*
D03*
Y48600D02*
D03*
D32*
X55200Y21200D02*
D03*
X26500D02*
D03*
X151350D02*
D03*
X122650D02*
D03*
X103250D02*
D03*
X74550D02*
D03*
X27650Y212500D02*
D03*
X56350D02*
D03*
X193750Y270000D02*
D03*
X234250D02*
D03*
X137250D02*
D03*
X177750D02*
D03*
X80750D02*
D03*
X121250D02*
D03*
X24250D02*
D03*
X64750D02*
D03*
D33*
X116500Y185500D02*
D03*
X316500Y41500D02*
D03*
X248000Y89500D02*
D03*
X28000Y96500D02*
D03*
X27800Y77650D02*
D03*
X11800D02*
D03*
X27800Y59000D02*
D03*
X11800D02*
D03*
X362500Y272000D02*
D03*
X342000D02*
D03*
X277750Y14000D02*
D03*
X262500D02*
D03*
X247250D02*
D03*
X293000D02*
D03*
X12000Y96500D02*
D03*
X186250Y14000D02*
D03*
X12500Y240000D02*
D03*
X171000Y14000D02*
D03*
X216750D02*
D03*
X232000D02*
D03*
X201500D02*
D03*
X377500Y14500D02*
D03*
X33000Y240000D02*
D03*
X361000Y14500D02*
D03*
X472000Y17000D02*
D03*
D34*
X415095Y10000D02*
D03*
X391595Y270000D02*
D03*
X333405Y10000D02*
D03*
D35*
X426905D02*
D03*
X403406Y270000D02*
D03*
X321595Y10000D02*
D03*
D36*
X452000Y248850D02*
D03*
Y220150D02*
D03*
X151500Y213850D02*
D03*
Y185150D02*
D03*
X362000Y248850D02*
D03*
Y220150D02*
D03*
X452000Y203850D02*
D03*
Y175150D02*
D03*
X362000Y203850D02*
D03*
Y175150D02*
D03*
X452000Y158850D02*
D03*
Y130150D02*
D03*
X362000Y158850D02*
D03*
Y130150D02*
D03*
X452000Y113850D02*
D03*
Y85150D02*
D03*
X362000Y113850D02*
D03*
Y85150D02*
D03*
X452000Y68850D02*
D03*
Y40150D02*
D03*
X362000Y68850D02*
D03*
Y40150D02*
D03*
D37*
X339000Y228500D02*
D03*
X346071Y235571D02*
D03*
X331929D02*
D03*
X339000Y238500D02*
D03*
X161000Y163500D02*
D03*
Y133500D02*
D03*
Y143500D02*
D03*
Y153500D02*
D03*
X305000Y85000D02*
D03*
X312071Y92071D02*
D03*
X297929D02*
D03*
X305000Y95000D02*
D03*
X429000Y238500D02*
D03*
X421929Y235571D02*
D03*
X436071D02*
D03*
X429000Y228500D02*
D03*
Y193500D02*
D03*
X421929Y190571D02*
D03*
X436071D02*
D03*
X429000Y183500D02*
D03*
X339000D02*
D03*
X346071Y190571D02*
D03*
X331929D02*
D03*
X339000Y193500D02*
D03*
X429000Y148500D02*
D03*
X421929Y145571D02*
D03*
X436071D02*
D03*
X429000Y138500D02*
D03*
X339000D02*
D03*
X346071Y145571D02*
D03*
X331929D02*
D03*
X339000Y148500D02*
D03*
X429000Y103500D02*
D03*
X421929Y100571D02*
D03*
X436071D02*
D03*
X429000Y93500D02*
D03*
Y58500D02*
D03*
X421929Y55571D02*
D03*
X436071D02*
D03*
X429000Y48500D02*
D03*
X339000D02*
D03*
X346071Y55571D02*
D03*
X331929D02*
D03*
X339000Y58500D02*
D03*
Y93500D02*
D03*
X346071Y100571D02*
D03*
X331929D02*
D03*
X339000Y103500D02*
D03*
D38*
X123500Y101500D02*
D03*
D39*
Y111500D02*
D03*
D40*
X316900Y227500D02*
D03*
X56900Y240000D02*
D03*
X316900Y62500D02*
D03*
X56900Y50000D02*
D03*
X450000Y270000D02*
D03*
Y20000D02*
D03*
D41*
X305500Y125811D02*
D03*
X309555D02*
D03*
X301445D02*
D03*
D42*
X114000Y51500D02*
D03*
Y48000D02*
D03*
X121500Y45500D02*
D03*
X107000Y53500D02*
D03*
Y46000D02*
D03*
X79000Y5000D02*
D03*
X102000Y6000D02*
D03*
X146000Y9000D02*
D03*
X123000Y8500D02*
D03*
X62500Y13500D02*
D03*
X52500Y35000D02*
D03*
X30500Y40000D02*
D03*
X40500Y34500D02*
D03*
X296500Y165000D02*
D03*
X463000Y119500D02*
D03*
X462500Y164000D02*
D03*
X345500Y247965D02*
D03*
X342000Y249000D02*
D03*
X305500Y221000D02*
D03*
X303500Y239000D02*
D03*
X292500Y240000D02*
D03*
X463000Y31500D02*
D03*
X463500Y211000D02*
D03*
X462500Y75000D02*
D03*
X373000Y122500D02*
D03*
X373500Y165500D02*
D03*
X247500Y29500D02*
D03*
X142000Y87000D02*
D03*
X157500Y123000D02*
D03*
X239750Y69500D02*
D03*
X162000Y59000D02*
D03*
X262331Y62831D02*
D03*
X391500Y129000D02*
D03*
X481500Y219000D02*
D03*
Y173000D02*
D03*
Y128500D02*
D03*
Y83000D02*
D03*
X390000Y62500D02*
D03*
X159500Y81000D02*
D03*
X215000Y99500D02*
D03*
X391500Y173000D02*
D03*
Y221500D02*
D03*
X67500Y67740D02*
D03*
X78000Y78260D02*
D03*
X130000Y100000D02*
D03*
X94500Y73000D02*
D03*
X161500Y62500D02*
D03*
X170000Y71500D02*
D03*
X150000Y77000D02*
D03*
X274500Y50500D02*
D03*
X273000Y21500D02*
D03*
X180500Y31000D02*
D03*
X69500Y46000D02*
D03*
X327500Y249500D02*
D03*
X416000D02*
D03*
X412500Y226500D02*
D03*
X380000Y222000D02*
D03*
X369500Y96500D02*
D03*
Y51500D02*
D03*
X261000Y251000D02*
D03*
X441000Y261500D02*
D03*
X434000Y267000D02*
D03*
X438000Y264000D02*
D03*
X459500Y141500D02*
D03*
Y96500D02*
D03*
Y51500D02*
D03*
X304000Y111000D02*
D03*
Y148500D02*
D03*
X309000Y191532D02*
D03*
X309000Y158000D02*
D03*
X299000Y179000D02*
D03*
X309000Y175000D02*
D03*
X262000Y39500D02*
D03*
X144500Y83500D02*
D03*
X254000Y50500D02*
D03*
X265000D02*
D03*
X250500Y53000D02*
D03*
X268500D02*
D03*
X182000Y56500D02*
D03*
X116500Y85000D02*
D03*
X111000D02*
D03*
X95000Y88000D02*
D03*
X91500Y87000D02*
D03*
X97000Y243500D02*
D03*
X373000Y31500D02*
D03*
X76500Y221500D02*
D03*
X110500Y243000D02*
D03*
X281000Y111000D02*
D03*
X284500Y115000D02*
D03*
X292000Y81000D02*
D03*
X166500Y92000D02*
D03*
X287500Y99000D02*
D03*
X272500Y91000D02*
D03*
X111500Y223500D02*
D03*
X106500Y258000D02*
D03*
X177000Y92500D02*
D03*
X172500Y94000D02*
D03*
X391500Y38000D02*
D03*
X412500Y46500D02*
D03*
X326000Y78000D02*
D03*
X262000Y228000D02*
D03*
X80500Y254500D02*
D03*
X116500Y238000D02*
D03*
X187500Y69000D02*
D03*
X235500Y99000D02*
D03*
X225000Y99500D02*
D03*
X172000Y60000D02*
D03*
Y38500D02*
D03*
X315000Y137000D02*
D03*
X308000Y31500D02*
D03*
X391500Y83000D02*
D03*
X481500Y38000D02*
D03*
X470000Y222000D02*
D03*
X502500Y226500D02*
D03*
X76900Y50500D02*
D03*
X163000Y79500D02*
D03*
X166500D02*
D03*
X171000Y103000D02*
D03*
X95000Y52500D02*
D03*
X150209Y95169D02*
D03*
X178500Y107000D02*
D03*
X132000Y222500D02*
D03*
X287000Y78000D02*
D03*
X262000Y90000D02*
D03*
X287000Y30500D02*
D03*
X297000D02*
D03*
X286800Y69500D02*
D03*
X296800D02*
D03*
X217000Y32000D02*
D03*
X227000Y32500D02*
D03*
X217000Y68000D02*
D03*
X207000D02*
D03*
X380000Y42000D02*
D03*
X470000D02*
D03*
X502500Y46500D02*
D03*
X380000Y87000D02*
D03*
X412500Y91500D02*
D03*
X470000Y87000D02*
D03*
X502500Y91500D02*
D03*
X380000Y132000D02*
D03*
X412500Y136500D02*
D03*
X470000Y132000D02*
D03*
X502500Y136500D02*
D03*
X380000Y177000D02*
D03*
X470000D02*
D03*
X502500Y181500D02*
D03*
X299000Y162000D02*
D03*
Y196421D02*
D03*
X252000Y29000D02*
D03*
X267000Y26500D02*
D03*
X272500Y27500D02*
D03*
X373000Y76500D02*
D03*
X351500Y252000D02*
D03*
X369000Y233500D02*
D03*
X412500Y181500D02*
D03*
X233500Y71000D02*
D03*
X184000Y71500D02*
D03*
X422000Y31000D02*
D03*
X309000Y204000D02*
D03*
X294000Y222000D02*
D03*
Y214000D02*
D03*
X297500Y215000D02*
D03*
X303500Y41000D02*
D03*
X155500Y69000D02*
D03*
X157000Y103500D02*
D03*
X327500Y26500D02*
D03*
X417500Y77000D02*
D03*
X417000Y122500D02*
D03*
Y166500D02*
D03*
X416500Y211500D02*
D03*
X325500Y213000D02*
D03*
X326000Y168000D02*
D03*
Y123000D02*
D03*
D43*
X411236Y4961D02*
D03*
X387736Y264961D02*
D03*
X337264Y15039D02*
D03*
D59*
X97421Y7500D02*
D03*
X92500D02*
D03*
X73000Y10000D02*
D03*
X68079D02*
D03*
X138000Y8500D02*
D03*
X142921D02*
D03*
X131921D02*
D03*
X127000D02*
D03*
X87500Y7500D02*
D03*
X82579D02*
D03*
X32579Y34500D02*
D03*
X37500D02*
D03*
X48500D02*
D03*
X43579D02*
D03*
X209421Y263000D02*
D03*
X204500D02*
D03*
X154000D02*
D03*
X149079D02*
D03*
X97500D02*
D03*
X92579D02*
D03*
X41000D02*
D03*
X36079D02*
D03*
D60*
X296900Y250748D02*
D03*
X286900D02*
D03*
X276900D02*
D03*
X266900D02*
D03*
X256900D02*
D03*
X246900D02*
D03*
X236900D02*
D03*
X226900D02*
D03*
X216900D02*
D03*
X206900D02*
D03*
X196900D02*
D03*
X186900D02*
D03*
X176900D02*
D03*
X166900D02*
D03*
X156900D02*
D03*
X146900D02*
D03*
X136900D02*
D03*
X126900D02*
D03*
X116900D02*
D03*
X106900D02*
D03*
X96900D02*
D03*
X86900D02*
D03*
X296900Y229252D02*
D03*
X286900D02*
D03*
X276900D02*
D03*
X266900D02*
D03*
X256900D02*
D03*
X246900D02*
D03*
X236900D02*
D03*
X226900D02*
D03*
X216900D02*
D03*
X206900D02*
D03*
X196900D02*
D03*
X186900D02*
D03*
X176900D02*
D03*
X166900D02*
D03*
X156900D02*
D03*
X146900D02*
D03*
X136900D02*
D03*
X126900D02*
D03*
X116900D02*
D03*
X106900D02*
D03*
X96900D02*
D03*
X86900D02*
D03*
X76900D02*
D03*
Y250748D02*
D03*
X296900Y60748D02*
D03*
X286900D02*
D03*
X276900D02*
D03*
X266900D02*
D03*
X256900D02*
D03*
X246900D02*
D03*
X236900D02*
D03*
X226900D02*
D03*
X216900D02*
D03*
X206900D02*
D03*
X196900D02*
D03*
X186900D02*
D03*
X176900D02*
D03*
X166900D02*
D03*
X156900D02*
D03*
X146900D02*
D03*
X136900D02*
D03*
X126900D02*
D03*
X116900D02*
D03*
X106900D02*
D03*
X96900D02*
D03*
X86900D02*
D03*
X296900Y39252D02*
D03*
X286900D02*
D03*
X276900D02*
D03*
X266900D02*
D03*
X256900D02*
D03*
X246900D02*
D03*
X236900D02*
D03*
X226900D02*
D03*
X216900D02*
D03*
X206900D02*
D03*
X196900D02*
D03*
X186900D02*
D03*
X176900D02*
D03*
X166900D02*
D03*
X156900D02*
D03*
X146900D02*
D03*
X136900D02*
D03*
X126900D02*
D03*
X116900D02*
D03*
X106900D02*
D03*
X96900D02*
D03*
X86900D02*
D03*
X76900D02*
D03*
Y60748D02*
D03*
D61*
X444500Y229299D02*
D03*
X352500Y228000D02*
D03*
X444500Y184299D02*
D03*
X353000Y184000D02*
D03*
X444500Y139299D02*
D03*
X354500D02*
D03*
X444500Y94299D02*
D03*
X354000Y94520D02*
D03*
X444500Y49299D02*
D03*
X354000Y49520D02*
D03*
D62*
X444500Y236779D02*
D03*
X352500Y235480D02*
D03*
X444500Y191779D02*
D03*
X353000Y191480D02*
D03*
X444500Y146780D02*
D03*
X354500D02*
D03*
X444500Y101779D02*
D03*
X354000Y102000D02*
D03*
X444500Y56779D02*
D03*
X354000Y57000D02*
D03*
M02*
