G04 Layer_Color=32896*
%FSLAX25Y25*%
%MOIN*%
G70*
G01*
G75*
%ADD30C,0.00100*%
%ADD63C,0.00787*%
%ADD64C,0.00500*%
D30*
X165500Y121500D02*
G03*
X168500Y118500I3000J0D01*
G01*
X267500D02*
G03*
X270500Y121500I0J3000D01*
G01*
Y220500D02*
G03*
X267500Y223500I-3000J0D01*
G01*
X0Y25000D02*
G03*
X25000Y0I25000J0D01*
G01*
Y280000D02*
G03*
X0Y255000I0J-25000D01*
G01*
X168500Y223500D02*
G03*
X165500Y220500I0J-3000D01*
G01*
X0Y-2500D02*
Y2500D01*
X-2500Y0D02*
X2500D01*
X25000Y280000D02*
X510000D01*
X0Y25000D02*
Y109100D01*
Y197800D02*
Y255000D01*
Y109100D02*
X88300D01*
X0Y197800D02*
X88300D01*
Y109100D02*
Y197800D01*
X270500Y121500D02*
Y220500D01*
X165500Y121500D02*
Y220500D01*
X168500Y118500D02*
X267500D01*
X168500Y223500D02*
X267500D01*
X510000Y0D02*
Y280000D01*
X25000Y0D02*
X510000D01*
D63*
X376988Y49626D02*
G03*
X376988Y49626I-394J0D01*
G01*
D02*
G03*
X376988Y49626I-394J0D01*
G01*
X466988D02*
G03*
X466988Y49626I-394J0D01*
G01*
D02*
G03*
X466988Y49626I-394J0D01*
G01*
X376988Y94626D02*
G03*
X376988Y94626I-394J0D01*
G01*
D02*
G03*
X376988Y94626I-394J0D01*
G01*
X466988D02*
G03*
X466988Y94626I-394J0D01*
G01*
D02*
G03*
X466988Y94626I-394J0D01*
G01*
X376988Y139626D02*
G03*
X376988Y139626I-394J0D01*
G01*
D02*
G03*
X376988Y139626I-394J0D01*
G01*
X466988D02*
G03*
X466988Y139626I-394J0D01*
G01*
D02*
G03*
X466988Y139626I-394J0D01*
G01*
X376988Y184626D02*
G03*
X376988Y184626I-394J0D01*
G01*
D02*
G03*
X376988Y184626I-394J0D01*
G01*
X466988D02*
G03*
X466988Y184626I-394J0D01*
G01*
D02*
G03*
X466988Y184626I-394J0D01*
G01*
X376988Y229626D02*
G03*
X376988Y229626I-394J0D01*
G01*
D02*
G03*
X376988Y229626I-394J0D01*
G01*
X466988D02*
G03*
X466988Y229626I-394J0D01*
G01*
D02*
G03*
X466988Y229626I-394J0D01*
G01*
X267319Y78594D02*
G03*
X267319Y78594I-394J0D01*
G01*
D02*
G03*
X267319Y78594I-394J0D01*
G01*
X155799Y49925D02*
G03*
X155799Y49925I-394J0D01*
G01*
D02*
G03*
X155799Y49925I-394J0D01*
G01*
X109299Y59925D02*
G03*
X109299Y59925I-394J0D01*
G01*
D02*
G03*
X109299Y59925I-394J0D01*
G01*
X391894Y49823D02*
G03*
X391894Y49823I-394J0D01*
G01*
D02*
G03*
X391894Y49823I-394J0D01*
G01*
X481894D02*
G03*
X481894Y49823I-394J0D01*
G01*
D02*
G03*
X481894Y49823I-394J0D01*
G01*
X391894Y94823D02*
G03*
X391894Y94823I-394J0D01*
G01*
D02*
G03*
X391894Y94823I-394J0D01*
G01*
X481894D02*
G03*
X481894Y94823I-394J0D01*
G01*
D02*
G03*
X481894Y94823I-394J0D01*
G01*
X391894Y139823D02*
G03*
X391894Y139823I-394J0D01*
G01*
D02*
G03*
X391894Y139823I-394J0D01*
G01*
X481894D02*
G03*
X481894Y139823I-394J0D01*
G01*
D02*
G03*
X481894Y139823I-394J0D01*
G01*
X391894Y184823D02*
G03*
X391894Y184823I-394J0D01*
G01*
D02*
G03*
X391894Y184823I-394J0D01*
G01*
X481894D02*
G03*
X481894Y184823I-394J0D01*
G01*
D02*
G03*
X481894Y184823I-394J0D01*
G01*
X391894Y229823D02*
G03*
X391894Y229823I-394J0D01*
G01*
D02*
G03*
X391894Y229823I-394J0D01*
G01*
X481894D02*
G03*
X481894Y229823I-394J0D01*
G01*
D02*
G03*
X481894Y229823I-394J0D01*
G01*
X169661Y95563D02*
G03*
X169661Y95563I-394J0D01*
G01*
D02*
G03*
X169661Y95563I-394J0D01*
G01*
X136626Y112437D02*
G03*
X136626Y112437I-394J0D01*
G01*
D02*
G03*
X136626Y112437I-394J0D01*
G01*
X145126Y89543D02*
G03*
X145126Y89543I-394J0D01*
G01*
D02*
G03*
X145126Y89543I-394J0D01*
G01*
X301169Y117051D02*
G03*
X301169Y117051I-394J0D01*
G01*
D02*
G03*
X301169Y117051I-394J0D01*
G01*
D64*
X400177Y49045D02*
Y68356D01*
X384823Y49045D02*
Y68356D01*
X400177D01*
X384823Y49045D02*
X400177D01*
Y68356D01*
X384823Y49045D02*
Y68356D01*
X400177D01*
X384823Y49045D02*
X400177D01*
X490177D02*
Y68356D01*
X474823Y49045D02*
Y68356D01*
X490177D01*
X474823Y49045D02*
X490177D01*
Y68356D01*
X474823Y49045D02*
Y68356D01*
X490177D01*
X474823Y49045D02*
X490177D01*
X400177Y94045D02*
Y113356D01*
X384823Y94045D02*
Y113356D01*
X400177D01*
X384823Y94045D02*
X400177D01*
Y113356D01*
X384823Y94045D02*
Y113356D01*
X400177D01*
X384823Y94045D02*
X400177D01*
X490177D02*
Y113356D01*
X474823Y94045D02*
Y113356D01*
X490177D01*
X474823Y94045D02*
X490177D01*
Y113356D01*
X474823Y94045D02*
Y113356D01*
X490177D01*
X474823Y94045D02*
X490177D01*
X400177Y139045D02*
Y158356D01*
X384823Y139045D02*
Y158356D01*
X400177D01*
X384823Y139045D02*
X400177D01*
Y158356D01*
X384823Y139045D02*
Y158356D01*
X400177D01*
X384823Y139045D02*
X400177D01*
X490177D02*
Y158356D01*
X474823Y139045D02*
Y158356D01*
X490177D01*
X474823Y139045D02*
X490177D01*
Y158356D01*
X474823Y139045D02*
Y158356D01*
X490177D01*
X474823Y139045D02*
X490177D01*
X400177Y184045D02*
Y203356D01*
X384823Y184045D02*
Y203356D01*
X400177D01*
X384823Y184045D02*
X400177D01*
Y203356D01*
X384823Y184045D02*
Y203356D01*
X400177D01*
X384823Y184045D02*
X400177D01*
X490177D02*
Y203356D01*
X474823Y184045D02*
Y203356D01*
X490177D01*
X474823Y184045D02*
X490177D01*
Y203356D01*
X474823Y184045D02*
Y203356D01*
X490177D01*
X474823Y184045D02*
X490177D01*
X400177Y229045D02*
Y248356D01*
X384823Y229045D02*
Y248356D01*
X400177D01*
X384823Y229045D02*
X400177D01*
Y248356D01*
X384823Y229045D02*
Y248356D01*
X400177D01*
X384823Y229045D02*
X400177D01*
X490177D02*
Y248356D01*
X474823Y229045D02*
Y248356D01*
X490177D01*
X474823Y229045D02*
X490177D01*
Y248356D01*
X474823Y229045D02*
Y248356D01*
X490177D01*
X474823Y229045D02*
X490177D01*
X266344Y102177D02*
X285655D01*
X266344Y86823D02*
X285655D01*
Y102177D01*
X266344Y86823D02*
Y102177D01*
X285655D01*
X266344Y86823D02*
X285655D01*
Y102177D01*
X266344Y86823D02*
Y102177D01*
X131823Y49345D02*
Y68656D01*
X147177Y49345D02*
Y68656D01*
X131823D02*
X147177D01*
X131823Y49345D02*
X147177D01*
X131823D02*
Y68656D01*
X147177Y49345D02*
Y68656D01*
X131823D02*
X147177D01*
X131823Y49345D02*
X147177D01*
X85323Y59345D02*
Y78655D01*
X100677Y59345D02*
Y78655D01*
X85323D02*
X100677D01*
X85323Y59345D02*
X100677D01*
X85323D02*
Y78655D01*
X100677Y59345D02*
Y78655D01*
X85323D02*
X100677D01*
X85323Y59345D02*
X100677D01*
X389354Y54390D02*
Y69941D01*
Y54390D02*
X408646D01*
Y69941D01*
X389354D02*
X408646D01*
X389354Y54390D02*
Y69941D01*
Y54390D02*
X408646D01*
Y69941D01*
X389354D02*
X408646D01*
X479354Y54390D02*
Y69941D01*
Y54390D02*
X498646D01*
Y69941D01*
X479354D02*
X498646D01*
X479354Y54390D02*
Y69941D01*
Y54390D02*
X498646D01*
Y69941D01*
X479354D02*
X498646D01*
X389354Y99390D02*
Y114941D01*
Y99390D02*
X408646D01*
Y114941D01*
X389354D02*
X408646D01*
X389354Y99390D02*
Y114941D01*
Y99390D02*
X408646D01*
Y114941D01*
X389354D02*
X408646D01*
X479354Y99390D02*
Y114941D01*
Y99390D02*
X498646D01*
Y114941D01*
X479354D02*
X498646D01*
X479354Y99390D02*
Y114941D01*
Y99390D02*
X498646D01*
Y114941D01*
X479354D02*
X498646D01*
X389354Y144390D02*
Y159941D01*
Y144390D02*
X408646D01*
Y159941D01*
X389354D02*
X408646D01*
X389354Y144390D02*
Y159941D01*
Y144390D02*
X408646D01*
Y159941D01*
X389354D02*
X408646D01*
X479354Y144390D02*
Y159941D01*
Y144390D02*
X498646D01*
Y159941D01*
X479354D02*
X498646D01*
X479354Y144390D02*
Y159941D01*
Y144390D02*
X498646D01*
Y159941D01*
X479354D02*
X498646D01*
X389354Y189390D02*
Y204941D01*
Y189390D02*
X408646D01*
Y204941D01*
X389354D02*
X408646D01*
X389354Y189390D02*
Y204941D01*
Y189390D02*
X408646D01*
Y204941D01*
X389354D02*
X408646D01*
X479354Y189390D02*
Y204941D01*
Y189390D02*
X498646D01*
Y204941D01*
X479354D02*
X498646D01*
X479354Y189390D02*
Y204941D01*
Y189390D02*
X498646D01*
Y204941D01*
X479354D02*
X498646D01*
X389354Y234390D02*
Y249941D01*
Y234390D02*
X408646D01*
Y249941D01*
X389354D02*
X408646D01*
X389354Y234390D02*
Y249941D01*
Y234390D02*
X408646D01*
Y249941D01*
X389354D02*
X408646D01*
X479354Y234390D02*
Y249941D01*
Y234390D02*
X498646D01*
Y249941D01*
X479354D02*
X498646D01*
X479354Y234390D02*
Y249941D01*
Y234390D02*
X498646D01*
Y249941D01*
X479354D02*
X498646D01*
X163756Y93516D02*
Y105484D01*
X158244Y93516D02*
X163756D01*
X158244D02*
Y105484D01*
X163756D01*
Y93516D02*
Y105484D01*
X158244Y93516D02*
X163756D01*
X158244D02*
Y105484D01*
X163756D01*
X141744Y102516D02*
Y114484D01*
X147256D01*
Y102516D02*
Y114484D01*
X141744Y102516D02*
X147256D01*
X141744D02*
Y114484D01*
X147256D01*
Y102516D02*
Y114484D01*
X141744Y102516D02*
X147256D01*
X150539Y82014D02*
Y89986D01*
Y82014D02*
X155461D01*
Y89986D01*
X150539D02*
X155461D01*
X150539Y82014D02*
Y89986D01*
Y82014D02*
X155461D01*
Y89986D01*
X150539D02*
X155461D01*
X299594Y119020D02*
Y133980D01*
X311405D01*
Y119020D02*
Y133980D01*
X299594Y119020D02*
X311405D01*
X299594D02*
Y133980D01*
X311405D01*
Y119020D02*
Y133980D01*
X299594Y119020D02*
X311405D01*
M02*
