G04 Layer_Color=16711935*
%FSLAX25Y25*%
%MOIN*%
G70*
G01*
G75*
%ADD30C,0.00100*%
%ADD67R,0.03162X0.02768*%
%ADD69R,0.08556X0.03162*%
%ADD72R,0.02768X0.03162*%
%ADD75R,0.05918X0.03359*%
%ADD77R,0.06469X0.07965*%
%ADD79R,0.05288X0.07769*%
%ADD84C,0.06300*%
%ADD85O,0.10800X0.15800*%
%ADD86C,0.00800*%
%ADD87C,0.12800*%
%ADD88C,0.07887*%
%ADD89R,0.07887X0.07887*%
%ADD90O,0.15800X0.10800*%
%ADD91C,0.06800*%
%ADD92R,0.06706X0.06706*%
%ADD93C,0.06706*%
%ADD94C,0.17900*%
%ADD95C,0.01981*%
%ADD96C,0.03400*%
%ADD97C,0.04816*%
%ADD98C,0.18300*%
%ADD99R,0.03359X0.05918*%
%ADD100R,0.05800X0.10800*%
%ADD101R,0.05131X0.08674*%
%ADD102R,0.03950X0.03950*%
G36*
X199500Y88000D02*
X180500D01*
Y101500D01*
X199500D01*
Y88000D01*
D02*
G37*
G36*
X156000Y121000D02*
X86500D01*
X86000Y176000D01*
X156000D01*
Y121000D01*
D02*
G37*
D30*
X165500Y121500D02*
G03*
X168500Y118500I3000J0D01*
G01*
X267500D02*
G03*
X270500Y121500I0J3000D01*
G01*
Y220500D02*
G03*
X267500Y223500I-3000J0D01*
G01*
X0Y25000D02*
G03*
X25000Y0I25000J0D01*
G01*
Y280000D02*
G03*
X0Y255000I0J-25000D01*
G01*
X168500Y223500D02*
G03*
X165500Y220500I0J-3000D01*
G01*
X0Y-2500D02*
Y2500D01*
X-2500Y0D02*
X2500D01*
X25000Y280000D02*
X510000D01*
X0Y25000D02*
Y109100D01*
Y197800D02*
Y255000D01*
Y109100D02*
X88300D01*
X0Y197800D02*
X88300D01*
Y109100D02*
Y197800D01*
X270500Y121500D02*
Y220500D01*
X165500Y121500D02*
Y220500D01*
X168500Y118500D02*
X267500D01*
X168500Y223500D02*
X267500D01*
X510000Y0D02*
Y280000D01*
X25000Y0D02*
X510000D01*
D67*
X473937Y251500D02*
D03*
X470000D02*
D03*
D69*
X402224Y51201D02*
D03*
Y56201D02*
D03*
Y61201D02*
D03*
Y66201D02*
D03*
X382776D02*
D03*
Y61201D02*
D03*
Y56201D02*
D03*
Y51201D02*
D03*
X492224D02*
D03*
Y56201D02*
D03*
Y61201D02*
D03*
Y66201D02*
D03*
X472776D02*
D03*
Y61201D02*
D03*
Y56201D02*
D03*
Y51201D02*
D03*
X402224Y96201D02*
D03*
Y101201D02*
D03*
Y106201D02*
D03*
Y111201D02*
D03*
X382776D02*
D03*
Y106201D02*
D03*
Y101201D02*
D03*
Y96201D02*
D03*
X492224D02*
D03*
Y101201D02*
D03*
Y106201D02*
D03*
Y111201D02*
D03*
X472776D02*
D03*
Y106201D02*
D03*
Y101201D02*
D03*
Y96201D02*
D03*
X402224Y141201D02*
D03*
Y146201D02*
D03*
Y151201D02*
D03*
Y156201D02*
D03*
X382776D02*
D03*
Y151201D02*
D03*
Y146201D02*
D03*
Y141201D02*
D03*
X492224D02*
D03*
Y146201D02*
D03*
Y151201D02*
D03*
Y156201D02*
D03*
X472776D02*
D03*
Y151201D02*
D03*
Y146201D02*
D03*
Y141201D02*
D03*
X402224Y186201D02*
D03*
Y191201D02*
D03*
Y196201D02*
D03*
Y201201D02*
D03*
X382776D02*
D03*
Y196201D02*
D03*
Y191201D02*
D03*
Y186201D02*
D03*
X492224D02*
D03*
Y191201D02*
D03*
Y196201D02*
D03*
Y201201D02*
D03*
X472776D02*
D03*
Y196201D02*
D03*
Y191201D02*
D03*
Y186201D02*
D03*
X402224Y231201D02*
D03*
Y236201D02*
D03*
Y241201D02*
D03*
Y246201D02*
D03*
X382776D02*
D03*
Y241201D02*
D03*
Y236201D02*
D03*
Y231201D02*
D03*
X492224D02*
D03*
Y236201D02*
D03*
Y241201D02*
D03*
Y246201D02*
D03*
X472776D02*
D03*
Y241201D02*
D03*
Y236201D02*
D03*
Y231201D02*
D03*
D72*
X374000Y232531D02*
D03*
Y236469D02*
D03*
X372000Y189032D02*
D03*
Y192968D02*
D03*
X464000Y55968D02*
D03*
Y52031D02*
D03*
X374000Y97531D02*
D03*
Y101469D02*
D03*
X464000Y101469D02*
D03*
Y97531D02*
D03*
X374000Y55937D02*
D03*
Y52000D02*
D03*
X371500Y144532D02*
D03*
Y148468D02*
D03*
X464000Y145968D02*
D03*
Y142032D02*
D03*
X495000Y206031D02*
D03*
Y209968D02*
D03*
X113000Y24032D02*
D03*
Y27968D02*
D03*
D75*
X130000Y108500D02*
D03*
Y103579D02*
D03*
D77*
X397260Y32000D02*
D03*
X386740D02*
D03*
X487260D02*
D03*
X476740D02*
D03*
X397760Y77000D02*
D03*
X387240D02*
D03*
X487260D02*
D03*
X476740D02*
D03*
X397260Y122000D02*
D03*
X386740D02*
D03*
X487260D02*
D03*
X476740D02*
D03*
X397260Y167000D02*
D03*
X386740D02*
D03*
X487260D02*
D03*
X476740D02*
D03*
X397260Y212000D02*
D03*
X386740D02*
D03*
X487260D02*
D03*
X476740D02*
D03*
D79*
X397669Y42201D02*
D03*
X386331D02*
D03*
X487669D02*
D03*
X476331D02*
D03*
X397669Y87201D02*
D03*
X386331D02*
D03*
X487669D02*
D03*
X476331D02*
D03*
X397669Y132201D02*
D03*
X386331D02*
D03*
X487669D02*
D03*
X476331D02*
D03*
X397669Y177201D02*
D03*
X386331D02*
D03*
X487669D02*
D03*
X476331D02*
D03*
X397669Y222201D02*
D03*
X386331D02*
D03*
X487669D02*
D03*
X476331D02*
D03*
D84*
X34950Y27106D02*
D03*
X46750D02*
D03*
Y15294D02*
D03*
X34950D02*
D03*
X452000Y240400D02*
D03*
Y228600D02*
D03*
X131100Y27106D02*
D03*
X142900D02*
D03*
Y15294D02*
D03*
X131100D02*
D03*
X151500Y205400D02*
D03*
Y193600D02*
D03*
X83000Y27106D02*
D03*
X94800D02*
D03*
Y15294D02*
D03*
X83000D02*
D03*
X36100Y212500D02*
D03*
X47900D02*
D03*
X225800Y270000D02*
D03*
X202200D02*
D03*
X214000D02*
D03*
X169300D02*
D03*
X145700D02*
D03*
X157500D02*
D03*
X112800D02*
D03*
X89200D02*
D03*
X101000D02*
D03*
X56300D02*
D03*
X32700D02*
D03*
X44500D02*
D03*
X362000Y240400D02*
D03*
Y228600D02*
D03*
X452000Y195400D02*
D03*
Y183600D02*
D03*
X362000Y195400D02*
D03*
Y183600D02*
D03*
X452000Y150400D02*
D03*
Y138600D02*
D03*
X362000Y150400D02*
D03*
Y138600D02*
D03*
X452000Y105400D02*
D03*
Y93600D02*
D03*
X362000Y105400D02*
D03*
Y93600D02*
D03*
X452000Y60400D02*
D03*
Y48600D02*
D03*
X362000Y60400D02*
D03*
Y48600D02*
D03*
D85*
X55200Y21200D02*
D03*
X26500D02*
D03*
X151350D02*
D03*
X122650D02*
D03*
X103250D02*
D03*
X74550D02*
D03*
X27650Y212500D02*
D03*
X56350D02*
D03*
X193750Y270000D02*
D03*
X234250D02*
D03*
X137250D02*
D03*
X177750D02*
D03*
X80750D02*
D03*
X121250D02*
D03*
X24250D02*
D03*
X64750D02*
D03*
D86*
X23150Y30800D02*
D03*
X58550D02*
D03*
X119300D02*
D03*
X154700D02*
D03*
X71200D02*
D03*
X106600D02*
D03*
D87*
X116500Y185500D02*
D03*
X316500Y41500D02*
D03*
X248000Y89500D02*
D03*
X28000Y96500D02*
D03*
X27800Y77650D02*
D03*
X11800D02*
D03*
X27800Y59000D02*
D03*
X11800D02*
D03*
X362500Y272000D02*
D03*
X342000D02*
D03*
X277750Y14000D02*
D03*
X262500D02*
D03*
X247250D02*
D03*
X293000D02*
D03*
X12000Y96500D02*
D03*
X186250Y14000D02*
D03*
X12500Y240000D02*
D03*
X171000Y14000D02*
D03*
X216750D02*
D03*
X232000D02*
D03*
X201500D02*
D03*
X377500Y14500D02*
D03*
X33000Y240000D02*
D03*
X361000Y14500D02*
D03*
X472000Y17000D02*
D03*
D88*
X415095Y10000D02*
D03*
X391595Y270000D02*
D03*
X333405Y10000D02*
D03*
D89*
X426905D02*
D03*
X403406Y270000D02*
D03*
X321595Y10000D02*
D03*
D90*
X452000Y248850D02*
D03*
Y220150D02*
D03*
X151500Y213850D02*
D03*
Y185150D02*
D03*
X362000Y248850D02*
D03*
Y220150D02*
D03*
X452000Y203850D02*
D03*
Y175150D02*
D03*
X362000Y203850D02*
D03*
Y175150D02*
D03*
X452000Y158850D02*
D03*
Y130150D02*
D03*
X362000Y158850D02*
D03*
Y130150D02*
D03*
X452000Y113850D02*
D03*
Y85150D02*
D03*
X362000Y113850D02*
D03*
Y85150D02*
D03*
X452000Y68850D02*
D03*
Y40150D02*
D03*
X362000Y68850D02*
D03*
Y40150D02*
D03*
D91*
X339000Y228500D02*
D03*
X346071Y235571D02*
D03*
X331929D02*
D03*
X339000Y238500D02*
D03*
X161000Y163500D02*
D03*
Y133500D02*
D03*
Y143500D02*
D03*
Y153500D02*
D03*
X305000Y85000D02*
D03*
X312071Y92071D02*
D03*
X297929D02*
D03*
X305000Y95000D02*
D03*
X429000Y238500D02*
D03*
X421929Y235571D02*
D03*
X436071D02*
D03*
X429000Y228500D02*
D03*
Y193500D02*
D03*
X421929Y190571D02*
D03*
X436071D02*
D03*
X429000Y183500D02*
D03*
X339000D02*
D03*
X346071Y190571D02*
D03*
X331929D02*
D03*
X339000Y193500D02*
D03*
X429000Y148500D02*
D03*
X421929Y145571D02*
D03*
X436071D02*
D03*
X429000Y138500D02*
D03*
X339000D02*
D03*
X346071Y145571D02*
D03*
X331929D02*
D03*
X339000Y148500D02*
D03*
X429000Y103500D02*
D03*
X421929Y100571D02*
D03*
X436071D02*
D03*
X429000Y93500D02*
D03*
Y58500D02*
D03*
X421929Y55571D02*
D03*
X436071D02*
D03*
X429000Y48500D02*
D03*
X339000D02*
D03*
X346071Y55571D02*
D03*
X331929D02*
D03*
X339000Y58500D02*
D03*
Y93500D02*
D03*
X346071Y100571D02*
D03*
X331929D02*
D03*
X339000Y103500D02*
D03*
D92*
X123500Y101500D02*
D03*
D93*
Y111500D02*
D03*
D94*
X316900Y227500D02*
D03*
X56900Y240000D02*
D03*
X316900Y62500D02*
D03*
X56900Y50000D02*
D03*
D95*
X305500Y125811D02*
D03*
X309555D02*
D03*
X301445D02*
D03*
D96*
X114000Y51500D02*
D03*
Y48000D02*
D03*
X121500Y45500D02*
D03*
X107000Y53500D02*
D03*
Y46000D02*
D03*
X79000Y5000D02*
D03*
X102000Y6000D02*
D03*
X146000Y9000D02*
D03*
X123000Y8500D02*
D03*
X62500Y13500D02*
D03*
X52500Y35000D02*
D03*
X30500Y40000D02*
D03*
X40500Y34500D02*
D03*
X296500Y165000D02*
D03*
X463000Y119500D02*
D03*
X462500Y164000D02*
D03*
X345500Y247965D02*
D03*
X342000Y249000D02*
D03*
X305500Y221000D02*
D03*
X303500Y239000D02*
D03*
X292500Y240000D02*
D03*
X463000Y31500D02*
D03*
X463500Y211000D02*
D03*
X462500Y75000D02*
D03*
X373000Y122500D02*
D03*
X373500Y165500D02*
D03*
X247500Y29500D02*
D03*
X142000Y87000D02*
D03*
X157500Y123000D02*
D03*
X239750Y69500D02*
D03*
X162000Y59000D02*
D03*
X262331Y62831D02*
D03*
X391500Y129000D02*
D03*
X481500Y219000D02*
D03*
Y173000D02*
D03*
Y128500D02*
D03*
Y83000D02*
D03*
X390000Y62500D02*
D03*
X159500Y81000D02*
D03*
X215000Y99500D02*
D03*
X391500Y173000D02*
D03*
Y221500D02*
D03*
X67500Y67740D02*
D03*
X78000Y78260D02*
D03*
X130000Y100000D02*
D03*
X94500Y73000D02*
D03*
X161500Y62500D02*
D03*
X170000Y71500D02*
D03*
X150000Y77000D02*
D03*
X274500Y50500D02*
D03*
X273000Y21500D02*
D03*
X180500Y31000D02*
D03*
X69500Y46000D02*
D03*
X327500Y249500D02*
D03*
X416000D02*
D03*
X412500Y226500D02*
D03*
X380000Y222000D02*
D03*
X369500Y96500D02*
D03*
Y51500D02*
D03*
X261000Y251000D02*
D03*
X441000Y261500D02*
D03*
X434000Y267000D02*
D03*
X438000Y264000D02*
D03*
X459500Y141500D02*
D03*
Y96500D02*
D03*
Y51500D02*
D03*
X304000Y111000D02*
D03*
Y148500D02*
D03*
X309000Y191532D02*
D03*
X309000Y158000D02*
D03*
X299000Y179000D02*
D03*
X309000Y175000D02*
D03*
X262000Y39500D02*
D03*
X144500Y83500D02*
D03*
X254000Y50500D02*
D03*
X265000D02*
D03*
X250500Y53000D02*
D03*
X268500D02*
D03*
X182000Y56500D02*
D03*
X116500Y85000D02*
D03*
X111000D02*
D03*
X95000Y88000D02*
D03*
X91500Y87000D02*
D03*
X97000Y243500D02*
D03*
X373000Y31500D02*
D03*
X76500Y221500D02*
D03*
X110500Y243000D02*
D03*
X281000Y111000D02*
D03*
X284500Y115000D02*
D03*
X292000Y81000D02*
D03*
X166500Y92000D02*
D03*
X287500Y99000D02*
D03*
X272500Y91000D02*
D03*
X111500Y223500D02*
D03*
X106500Y258000D02*
D03*
X177000Y92500D02*
D03*
X172500Y94000D02*
D03*
X391500Y38000D02*
D03*
X412500Y46500D02*
D03*
X326000Y78000D02*
D03*
X262000Y228000D02*
D03*
X80500Y254500D02*
D03*
X116500Y238000D02*
D03*
X187500Y69000D02*
D03*
X235500Y99000D02*
D03*
X225000Y99500D02*
D03*
X172000Y60000D02*
D03*
Y38500D02*
D03*
X315000Y137000D02*
D03*
X308000Y31500D02*
D03*
X391500Y83000D02*
D03*
X481500Y38000D02*
D03*
X470000Y222000D02*
D03*
X502500Y226500D02*
D03*
X76900Y50500D02*
D03*
X163000Y79500D02*
D03*
X166500D02*
D03*
X171000Y103000D02*
D03*
X95000Y52500D02*
D03*
X150209Y95169D02*
D03*
X178500Y107000D02*
D03*
X132000Y222500D02*
D03*
X287000Y78000D02*
D03*
X262000Y90000D02*
D03*
X287000Y30500D02*
D03*
X297000D02*
D03*
X286800Y69500D02*
D03*
X296800D02*
D03*
X217000Y32000D02*
D03*
X227000Y32500D02*
D03*
X217000Y68000D02*
D03*
X207000D02*
D03*
X380000Y42000D02*
D03*
X470000D02*
D03*
X502500Y46500D02*
D03*
X380000Y87000D02*
D03*
X412500Y91500D02*
D03*
X470000Y87000D02*
D03*
X502500Y91500D02*
D03*
X380000Y132000D02*
D03*
X412500Y136500D02*
D03*
X470000Y132000D02*
D03*
X502500Y136500D02*
D03*
X380000Y177000D02*
D03*
X470000D02*
D03*
X502500Y181500D02*
D03*
X299000Y162000D02*
D03*
Y196421D02*
D03*
X252000Y29000D02*
D03*
X267000Y26500D02*
D03*
X272500Y27500D02*
D03*
X373000Y76500D02*
D03*
X351500Y252000D02*
D03*
X369000Y233500D02*
D03*
X412500Y181500D02*
D03*
X233500Y71000D02*
D03*
X184000Y71500D02*
D03*
X422000Y31000D02*
D03*
X309000Y204000D02*
D03*
X294000Y222000D02*
D03*
Y214000D02*
D03*
X297500Y215000D02*
D03*
X303500Y41000D02*
D03*
X155500Y69000D02*
D03*
X157000Y103500D02*
D03*
X327500Y26500D02*
D03*
X417500Y77000D02*
D03*
X417000Y122500D02*
D03*
Y166500D02*
D03*
X416500Y211500D02*
D03*
X325500Y213000D02*
D03*
X326000Y168000D02*
D03*
Y123000D02*
D03*
D97*
X411236Y4961D02*
D03*
X387736Y264961D02*
D03*
X337264Y15039D02*
D03*
D98*
X450000Y270000D02*
D03*
Y20000D02*
D03*
D99*
X97421Y7500D02*
D03*
X92500D02*
D03*
X73000Y10000D02*
D03*
X68079D02*
D03*
X138000Y8500D02*
D03*
X142921D02*
D03*
X131921D02*
D03*
X127000D02*
D03*
X87500Y7500D02*
D03*
X82579D02*
D03*
X32579Y34500D02*
D03*
X37500D02*
D03*
X48500D02*
D03*
X43579D02*
D03*
X209421Y263000D02*
D03*
X204500D02*
D03*
X154000D02*
D03*
X149079D02*
D03*
X97500D02*
D03*
X92579D02*
D03*
X41000D02*
D03*
X36079D02*
D03*
D100*
X296900Y250748D02*
D03*
X286900D02*
D03*
X276900D02*
D03*
X266900D02*
D03*
X256900D02*
D03*
X246900D02*
D03*
X236900D02*
D03*
X226900D02*
D03*
X216900D02*
D03*
X206900D02*
D03*
X196900D02*
D03*
X186900D02*
D03*
X176900D02*
D03*
X166900D02*
D03*
X156900D02*
D03*
X146900D02*
D03*
X136900D02*
D03*
X126900D02*
D03*
X116900D02*
D03*
X106900D02*
D03*
X96900D02*
D03*
X86900D02*
D03*
X296900Y229252D02*
D03*
X286900D02*
D03*
X276900D02*
D03*
X266900D02*
D03*
X256900D02*
D03*
X246900D02*
D03*
X236900D02*
D03*
X226900D02*
D03*
X216900D02*
D03*
X206900D02*
D03*
X196900D02*
D03*
X186900D02*
D03*
X176900D02*
D03*
X166900D02*
D03*
X156900D02*
D03*
X146900D02*
D03*
X136900D02*
D03*
X126900D02*
D03*
X116900D02*
D03*
X106900D02*
D03*
X96900D02*
D03*
X86900D02*
D03*
X76900D02*
D03*
Y250748D02*
D03*
X296900Y60748D02*
D03*
X286900D02*
D03*
X276900D02*
D03*
X266900D02*
D03*
X256900D02*
D03*
X246900D02*
D03*
X236900D02*
D03*
X226900D02*
D03*
X216900D02*
D03*
X206900D02*
D03*
X196900D02*
D03*
X186900D02*
D03*
X176900D02*
D03*
X166900D02*
D03*
X156900D02*
D03*
X146900D02*
D03*
X136900D02*
D03*
X126900D02*
D03*
X116900D02*
D03*
X106900D02*
D03*
X96900D02*
D03*
X86900D02*
D03*
X296900Y39252D02*
D03*
X286900D02*
D03*
X276900D02*
D03*
X266900D02*
D03*
X256900D02*
D03*
X246900D02*
D03*
X236900D02*
D03*
X226900D02*
D03*
X216900D02*
D03*
X206900D02*
D03*
X196900D02*
D03*
X186900D02*
D03*
X176900D02*
D03*
X166900D02*
D03*
X156900D02*
D03*
X146900D02*
D03*
X136900D02*
D03*
X126900D02*
D03*
X116900D02*
D03*
X106900D02*
D03*
X96900D02*
D03*
X86900D02*
D03*
X76900D02*
D03*
Y60748D02*
D03*
D101*
X444500Y229299D02*
D03*
X352500Y228000D02*
D03*
X444500Y184299D02*
D03*
X353000Y184000D02*
D03*
X444500Y139299D02*
D03*
X354500D02*
D03*
X444500Y94299D02*
D03*
X354000Y94520D02*
D03*
X444500Y49299D02*
D03*
X354000Y49520D02*
D03*
D102*
X444500Y236779D02*
D03*
X352500Y235480D02*
D03*
X444500Y191779D02*
D03*
X353000Y191480D02*
D03*
X444500Y146780D02*
D03*
X354500D02*
D03*
X444500Y101779D02*
D03*
X354000Y102000D02*
D03*
X444500Y56779D02*
D03*
X354000Y57000D02*
D03*
M02*
