M48
;Layer_Color=9474304
;FILE_FORMAT=2:5
INCH,LZ
;TYPE=PLATED
T1F00S00C0.00787
T2F00S00C0.01350
T3F00S00C0.03000
T4F00S00C0.03543
T5F00S00C0.04000
T6F00S00C0.04016
T7F00S00C0.07200
T8F00S00C0.09500
T9F00S00C0.12500
%
T01
X0301445Y0125811
X03055
X0309555
T02
X0463Y00315
X047Y0042
X04815Y0038
X05025Y00465
Y00915
X04815Y0083
X047Y0087
X04625Y0075
X04595Y00965
Y00515
X04125Y00465
X0422Y0031
X03915Y0038
X038Y0042
X0373Y00315
X03695Y00515
X0373Y00765
X038Y0087
X03915Y0083
X039Y00625
X04175Y0077
X04125Y00915
X03695Y00965
X0326Y0078
X0292Y0081
X0287Y0078
X02868Y00695
X02968
X03035Y0041
X0308Y00315
X0297Y00305
X0287
X02725Y00275
X0273Y00215
X02745Y00505
X02725Y0091
X02875Y0099
X0281Y0111
X02845Y0115
X0304Y0111
X03275Y00265
X0267
X0252Y0029
X02475Y00295
X0227Y00325
X0217Y0032
Y0068
X0207
X01875Y0069
X0184Y00715
X017
X01665Y00795
X0163
X01595Y0081
X015Y0077
X01445Y00835
X0142Y0087
X0150209Y0095169
X0157Y01035
X0171Y0103
X01725Y0094
X0177Y00925
X01665Y0092
X01785Y0107
X0215Y00995
X0225
X02355Y0099
X02335Y0071
X023975Y00695
X02505Y0053
X0254Y00505
X0265
X02685Y0053
X0262331Y0062831
X0262Y00395
Y009
X0182Y00565
X0172Y006
X0162Y0059
X01615Y00625
X01555Y0069
X0172Y00385
X01805Y0031
X0146Y0009
X0123Y00085
X01215Y00455
X0114Y0048
Y00515
X01165Y0085
X013Y01
X0111Y0085
X0095Y0088
X00915Y0087
X00945Y0073
X0095Y00525
X0107Y00535
Y0046
X00769Y00505
X00695Y0046
X00675Y006774
X0078Y007826
X00525Y0035
X00405Y00345
X00305Y004
X00625Y00135
X0079Y0005
X0102Y0006
X01115Y02235
X01105Y0243
X0097Y02435
X01065Y0258
X00805Y02545
X00765Y02215
X0132Y02225
X01165Y0238
X0262Y0228
X0261Y0251
X01575Y0123
X0326
X0315Y0137
X0304Y01485
X0309Y0158
X0299Y0162
X02965Y0165
X0299Y0179
X0309Y0175
X0309Y0191532
X0309Y0204
X0299Y0196421
X02975Y0215
X0294Y0214
Y0222
X03055Y0221
X03035Y0239
X02925Y024
X03275Y02495
X0342Y0249
X03455Y0247965
X03515Y0252
X0369Y02335
X038Y0222
X03915Y02215
X04125Y02265
X04165Y02115
X04125Y01815
X0417Y01665
X03915Y0173
X038Y0177
X03735Y01655
X038Y0132
X03915Y0129
X0373Y01225
X0417
X04125Y01365
X0416Y02495
X03255Y0213
X0326Y0168
X04625Y0164
X047Y0177
X04815Y0173
X05025Y01815
Y01365
X04815Y01285
X047Y0132
X0463Y01195
X04595Y01415
X04635Y0211
X047Y0222
X04815Y0219
X05025Y02265
X0441Y02615
X0438Y0264
X0434Y0267
T03
X0429Y00485
Y00585
X0436071Y0055571
X0429Y00935
Y01035
X0436071Y0100571
X0421929
Y0055571
X0346071
X0339Y00585
X0331929Y0055571
X0339Y00485
Y00935
Y01035
X0331929Y0100571
X0346071
X0312071Y0092071
X0305Y0095
X0297929Y0092071
X0305Y0085
X0161Y01335
Y01435
Y01535
Y01635
X0331929Y0145571
X0339Y01485
X0346071Y0145571
X0339Y01385
Y01835
Y01935
X0331929Y0190571
X0346071
Y0235571
X0339Y02385
X0331929Y0235571
X0339Y02285
X0421929Y0235571
Y0190571
Y0145571
X0429Y01485
Y01385
X0436071Y0145571
X0429Y01835
Y01935
X0436071Y0190571
X0429Y02285
Y02385
X0436071Y0235571
T04
X01235Y01015
Y01115
T05
X0452Y00486
Y00604
Y00936
Y01054
X0362
Y00936
Y00604
Y00486
X01547Y00308
X01429Y0027106
X01311
Y0015294
X01429
X01193Y00308
X01066
X00948Y0027106
X0083
Y0015294
X00948
X00712Y00308
X005855
X004675Y0027106
X003495
Y0015294
X004675
X002315Y00308
X00361Y02125
X00479
X00445Y027
X00327
X00563
X00892
X0101
X01128
X01457
X01575
X01693
X02022
X0214
X02258
X01515Y02054
Y01936
X0362Y01954
Y01836
Y01504
Y01386
Y02286
Y02404
X0452
Y02286
Y01954
Y01836
Y01504
Y01386
T06
X0426905Y001
X0415095
X0411236Y0004961
X0333405Y001
X0337264Y0015039
X0321595Y001
X0387736Y0264961
X0391595Y027
X0403406
T07
X0472Y0017
X03775Y00145
X0361
X0293Y0014
X027775
X03165Y00415
X02625Y0014
X024725
X0232
X021675
X02015
X018625
X0171
X0248Y00895
X0028Y00965
X0012
X00118Y007765
X00278
Y0059
X00118
X00125Y024
X0033
X01165Y01855
X0342Y0272
X03625
T08
X0452Y004015
Y006885
Y008515
Y011385
X0362
Y008515
Y006885
Y004015
X015135Y00212
X012265
X010325
X007455
X00552
X00265
X002765Y02125
X005635
X006475Y027
X008075
X002425
X012125
X013725
X017775
X019375
X023425
X01515Y021385
Y018515
X0362Y017515
Y015885
Y013015
Y020385
Y022015
Y024885
X0452
Y022015
Y020385
Y017515
Y015885
Y013015
T09
X045Y002
X03169Y00625
X00569Y005
Y024
X03169Y02275
X045Y027
M30
