G04 Layer_Physical_Order=3*
G04 Layer_Color=128*
%FSLAX25Y25*%
%MOIN*%
G70*
G01*
G75*
%ADD27C,0.01000*%
%ADD30C,0.00100*%
%ADD37C,0.06000*%
%ADD44C,0.04000*%
%ADD45C,0.11500*%
G04:AMPARAMS|DCode=46|XSize=80mil|YSize=80mil|CornerRadius=0mil|HoleSize=0mil|Usage=FLASHONLY|Rotation=0.000|XOffset=0mil|YOffset=0mil|HoleType=Round|Shape=Relief|Width=10mil|Gap=10mil|Entries=4|*
%AMTHD46*
7,0,0,0.08000,0.06000,0.01000,45*
%
%ADD46THD46*%
%ADD47C,0.09200*%
%ADD48C,0.06016*%
G04:AMPARAMS|DCode=49|XSize=80.157mil|YSize=80.157mil|CornerRadius=0mil|HoleSize=0mil|Usage=FLASHONLY|Rotation=0.000|XOffset=0mil|YOffset=0mil|HoleType=Round|Shape=Relief|Width=10mil|Gap=10mil|Entries=4|*
%AMTHD49*
7,0,0,0.08016,0.06016,0.01000,45*
%
%ADD49THD49*%
%ADD50C,0.05000*%
G04:AMPARAMS|DCode=51|XSize=112mil|YSize=112mil|CornerRadius=0mil|HoleSize=0mil|Usage=FLASHONLY|Rotation=0.000|XOffset=0mil|YOffset=0mil|HoleType=Round|Shape=Relief|Width=10mil|Gap=10mil|Entries=4|*
%AMTHD51*
7,0,0,0.11200,0.09200,0.01000,45*
%
%ADD51THD51*%
%ADD52C,0.05543*%
%ADD53C,0.14500*%
G04:AMPARAMS|DCode=54|XSize=70mil|YSize=70mil|CornerRadius=0mil|HoleSize=0mil|Usage=FLASHONLY|Rotation=0.000|XOffset=0mil|YOffset=0mil|HoleType=Round|Shape=Relief|Width=10mil|Gap=10mil|Entries=4|*
%AMTHD54*
7,0,0,0.07000,0.05000,0.01000,45*
%
%ADD54THD54*%
%ADD55C,0.02787*%
%ADD56C,0.03350*%
G04:AMPARAMS|DCode=57|XSize=53.5mil|YSize=53.5mil|CornerRadius=0mil|HoleSize=0mil|Usage=FLASHONLY|Rotation=0.000|XOffset=0mil|YOffset=0mil|HoleType=Round|Shape=Relief|Width=10mil|Gap=10mil|Entries=4|*
%AMTHD57*
7,0,0,0.05350,0.03350,0.01000,45*
%
%ADD57THD57*%
G04:AMPARAMS|DCode=58|XSize=75.433mil|YSize=75.433mil|CornerRadius=0mil|HoleSize=0mil|Usage=FLASHONLY|Rotation=0.000|XOffset=0mil|YOffset=0mil|HoleType=Round|Shape=Relief|Width=10mil|Gap=10mil|Entries=4|*
%AMTHD58*
7,0,0,0.07543,0.05543,0.01000,45*
%
%ADD58THD58*%
G36*
X269416Y223119D02*
X270119Y222416D01*
X270500Y221497D01*
X270500Y221000D01*
X270500Y221000D01*
X270500Y121000D01*
X270500Y120503D01*
X270119Y119584D01*
X269416Y118881D01*
X268497Y118500D01*
X268000Y118500D01*
X268000Y118500D01*
X168000Y118500D01*
X167503D01*
X166584Y118881D01*
X165881Y119584D01*
X165500Y120503D01*
X165500Y121000D01*
X165500Y121000D01*
X165500Y221000D01*
Y221497D01*
X165881Y222416D01*
X166584Y223119D01*
X167503Y223500D01*
X168000Y223500D01*
X168000Y223500D01*
X268000Y223500D01*
X268497Y223500D01*
X269416Y223119D01*
D02*
G37*
D27*
X300000Y0D02*
Y280000D01*
D30*
X165500Y121500D02*
G03*
X168500Y118500I3000J0D01*
G01*
X267500D02*
G03*
X270500Y121500I0J3000D01*
G01*
Y220500D02*
G03*
X267500Y223500I-3000J0D01*
G01*
X0Y25000D02*
G03*
X25000Y0I25000J0D01*
G01*
Y280000D02*
G03*
X0Y255000I0J-25000D01*
G01*
X168500Y223500D02*
G03*
X165500Y220500I0J-3000D01*
G01*
X0Y-2500D02*
Y2500D01*
X-2500Y0D02*
X2500D01*
X25000Y280000D02*
X510000D01*
X0Y25000D02*
Y109100D01*
Y197800D02*
Y255000D01*
Y109100D02*
X88300D01*
X0Y197800D02*
X88300D01*
Y109100D02*
Y197800D01*
X270500Y121500D02*
Y220500D01*
X165500Y121500D02*
Y220500D01*
X168500Y118500D02*
X267500D01*
X168500Y223500D02*
X267500D01*
X510000Y0D02*
Y280000D01*
X25000Y0D02*
X510000D01*
D37*
X34950Y27106D02*
D03*
X46750D02*
D03*
Y15294D02*
D03*
X23150Y30800D02*
D03*
X58550D02*
D03*
X452000Y240400D02*
D03*
Y228600D02*
D03*
X131100Y27106D02*
D03*
X142900D02*
D03*
Y15294D02*
D03*
X119300Y30800D02*
D03*
X154700D02*
D03*
X151500Y205400D02*
D03*
X83000Y27106D02*
D03*
X94800D02*
D03*
Y15294D02*
D03*
X83000D02*
D03*
X71200Y30800D02*
D03*
X106600D02*
D03*
X36100Y212500D02*
D03*
X202200Y270000D02*
D03*
X214000D02*
D03*
X145700D02*
D03*
X157500D02*
D03*
X89200D02*
D03*
X101000D02*
D03*
X32700D02*
D03*
X44500D02*
D03*
X362000Y240400D02*
D03*
Y228600D02*
D03*
X452000Y195400D02*
D03*
Y183600D02*
D03*
X362000Y195400D02*
D03*
Y183600D02*
D03*
X452000Y150400D02*
D03*
Y138600D02*
D03*
X362000Y150400D02*
D03*
Y138600D02*
D03*
X452000Y105400D02*
D03*
Y93600D02*
D03*
X362000Y105400D02*
D03*
Y93600D02*
D03*
X452000Y60400D02*
D03*
Y48600D02*
D03*
X362000Y60400D02*
D03*
Y48600D02*
D03*
D44*
X510000Y0D02*
Y280000D01*
X23772D02*
X510000D01*
X21327Y279759D02*
X23772Y280000D01*
X18918Y279280D02*
X21327Y279759D01*
X16568Y278567D02*
X18918Y279280D01*
X14298Y277627D02*
X16568Y278567D01*
X12132Y276469D02*
X14298Y277627D01*
X10090Y275104D02*
X12132Y276469D01*
X8191Y273546D02*
X10090Y275104D01*
X6454Y271809D02*
X8191Y273546D01*
X4896Y269910D02*
X6454Y271809D01*
X3531Y267868D02*
X4896Y269910D01*
X2373Y265702D02*
X3531Y267868D01*
X1433Y263432D02*
X2373Y265702D01*
X720Y261082D02*
X1433Y263432D01*
X241Y258673D02*
X720Y261082D01*
X0Y256228D02*
X241Y258673D01*
X0Y255000D02*
Y256228D01*
Y197800D02*
Y255000D01*
Y197800D02*
X88300D01*
Y109100D02*
Y197800D01*
X0Y109100D02*
X88300D01*
X0Y25000D02*
Y109100D01*
Y23772D02*
Y25000D01*
Y23772D02*
X241Y21327D01*
X720Y18918D01*
X1433Y16568D01*
X2373Y14298D01*
X3531Y12132D01*
X4896Y10090D01*
X6454Y8191D01*
X8191Y6454D01*
X10090Y4896D01*
X12132Y3531D01*
X14298Y2373D01*
X16568Y1433D01*
X18918Y720D01*
X21327Y241D01*
X23772Y0D01*
X510000D01*
X268000Y223500D02*
X268497Y223500D01*
X168000D02*
X268000Y223500D01*
X168000Y223500D02*
X168000Y223500D01*
X167503Y223500D02*
X168000Y223500D01*
X166584Y223119D02*
X167503Y223500D01*
X165881Y222416D02*
X166584Y223119D01*
X165500Y221497D02*
X165881Y222416D01*
X165500Y221000D02*
Y221497D01*
X270500Y121000D02*
X270500Y120503D01*
X270500Y121000D02*
X270500Y221000D01*
X269416Y223119D02*
X270119Y222416D01*
X268497Y223500D02*
X269416Y223119D01*
X165500Y221000D02*
X165500Y121000D01*
X165500Y121000D01*
X165500Y120503D02*
X165500Y121000D01*
X165500Y120503D02*
X165881Y119584D01*
X166584Y118881D01*
X167503Y118500D01*
X168000D01*
X268000Y118500D01*
X268000Y118500D02*
X268000Y118500D01*
X268000Y118500D02*
X268497Y118500D01*
X269416Y118881D01*
X270119Y119584D01*
X270500Y120503D01*
X270500Y221000D02*
X270500Y221000D01*
X270500Y221000D02*
X270500Y221497D01*
X270119Y222416D02*
X270500Y221497D01*
D45*
X55200Y21200D02*
D03*
X26500D02*
D03*
X452000Y248850D02*
D03*
Y220150D02*
D03*
X151350Y21200D02*
D03*
X122650D02*
D03*
X151500Y213850D02*
D03*
Y185150D02*
D03*
X103250Y21200D02*
D03*
X74550D02*
D03*
X27650Y212500D02*
D03*
X56350D02*
D03*
X193750Y270000D02*
D03*
X234250D02*
D03*
X137250D02*
D03*
X177750D02*
D03*
X80750D02*
D03*
X121250D02*
D03*
X24250D02*
D03*
X64750D02*
D03*
X362000Y248850D02*
D03*
Y220150D02*
D03*
X452000Y203850D02*
D03*
Y175150D02*
D03*
X362000Y203850D02*
D03*
Y175150D02*
D03*
X452000Y158850D02*
D03*
Y130150D02*
D03*
X362000Y158850D02*
D03*
Y130150D02*
D03*
X452000Y113850D02*
D03*
Y85150D02*
D03*
X362000Y113850D02*
D03*
Y85150D02*
D03*
X452000Y68850D02*
D03*
Y40150D02*
D03*
X362000Y68850D02*
D03*
Y40150D02*
D03*
D46*
X34950Y15294D02*
D03*
X131100D02*
D03*
X151500Y193600D02*
D03*
X47900Y212500D02*
D03*
X225800Y270000D02*
D03*
X169300D02*
D03*
X112800D02*
D03*
X56300D02*
D03*
D47*
X116500Y185500D02*
D03*
X316500Y41500D02*
D03*
X248000Y89500D02*
D03*
X28000Y96500D02*
D03*
X27800Y77650D02*
D03*
X11800D02*
D03*
X27800Y59000D02*
D03*
X11800D02*
D03*
X362500Y272000D02*
D03*
X342000D02*
D03*
X277750Y14000D02*
D03*
X262500D02*
D03*
X247250D02*
D03*
X293000D02*
D03*
X12000Y96500D02*
D03*
X186250Y14000D02*
D03*
X12500Y240000D02*
D03*
X171000Y14000D02*
D03*
X216750D02*
D03*
X232000D02*
D03*
X201500D02*
D03*
X361000Y14500D02*
D03*
X472000Y17000D02*
D03*
D48*
X415095Y10000D02*
D03*
X426905D02*
D03*
X403406Y270000D02*
D03*
X391595D02*
D03*
X321595Y10000D02*
D03*
X411236Y4961D02*
D03*
X387736Y264961D02*
D03*
X337264Y15039D02*
D03*
D49*
X333405Y10000D02*
D03*
D50*
X339000Y228500D02*
D03*
X346071Y235571D02*
D03*
X331929D02*
D03*
X161000Y163500D02*
D03*
Y133500D02*
D03*
Y143500D02*
D03*
Y153500D02*
D03*
X305000Y85000D02*
D03*
X312071Y92071D02*
D03*
X297929D02*
D03*
X421929Y235571D02*
D03*
X436071D02*
D03*
X429000Y228500D02*
D03*
X421929Y190571D02*
D03*
X436071D02*
D03*
X429000Y183500D02*
D03*
X339000D02*
D03*
X346071Y190571D02*
D03*
X331929D02*
D03*
X421929Y145571D02*
D03*
X436071D02*
D03*
X429000Y138500D02*
D03*
X339000D02*
D03*
X346071Y145571D02*
D03*
X331929D02*
D03*
X421929Y100571D02*
D03*
X436071D02*
D03*
X429000Y93500D02*
D03*
X421929Y55571D02*
D03*
X436071D02*
D03*
X429000Y48500D02*
D03*
X339000D02*
D03*
X346071Y55571D02*
D03*
X331929D02*
D03*
X339000Y93500D02*
D03*
X346071Y100571D02*
D03*
X331929D02*
D03*
D51*
X377500Y14500D02*
D03*
X33000Y240000D02*
D03*
D52*
X123500Y111500D02*
D03*
D53*
X316900Y227500D02*
D03*
X56900Y240000D02*
D03*
X316900Y62500D02*
D03*
X56900Y50000D02*
D03*
X450000Y270000D02*
D03*
Y20000D02*
D03*
D54*
X339000Y238500D02*
D03*
X305000Y95000D02*
D03*
X429000Y238500D02*
D03*
Y193500D02*
D03*
X339000D02*
D03*
X429000Y148500D02*
D03*
X339000D02*
D03*
X429000Y103500D02*
D03*
Y58500D02*
D03*
X339000D02*
D03*
Y103500D02*
D03*
D55*
X305500Y125811D02*
D03*
X309555D02*
D03*
X301445D02*
D03*
D56*
X114000Y48000D02*
D03*
X121500Y45500D02*
D03*
X107000Y53500D02*
D03*
Y46000D02*
D03*
X79000Y5000D02*
D03*
X102000Y6000D02*
D03*
X146000Y9000D02*
D03*
X123000Y8500D02*
D03*
X62500Y13500D02*
D03*
X52500Y35000D02*
D03*
X30500Y40000D02*
D03*
X40500Y34500D02*
D03*
X296500Y165000D02*
D03*
X463000Y119500D02*
D03*
X462500Y164000D02*
D03*
X345500Y247965D02*
D03*
X342000Y249000D02*
D03*
X305500Y221000D02*
D03*
X303500Y239000D02*
D03*
X292500Y240000D02*
D03*
X463000Y31500D02*
D03*
X463500Y211000D02*
D03*
X462500Y75000D02*
D03*
X373000Y122500D02*
D03*
X373500Y165500D02*
D03*
X247500Y29500D02*
D03*
X157500Y123000D02*
D03*
X239750Y69500D02*
D03*
X162000Y59000D02*
D03*
X262331Y62831D02*
D03*
X391500Y129000D02*
D03*
X481500Y219000D02*
D03*
Y173000D02*
D03*
Y128500D02*
D03*
Y83000D02*
D03*
X390000Y62500D02*
D03*
X159500Y81000D02*
D03*
X215000Y99500D02*
D03*
X391500Y173000D02*
D03*
Y221500D02*
D03*
X78000Y78260D02*
D03*
X130000Y100000D02*
D03*
X94500Y73000D02*
D03*
X170000Y71500D02*
D03*
X150000Y77000D02*
D03*
X274500Y50500D02*
D03*
X273000Y21500D02*
D03*
X180500Y31000D02*
D03*
X69500Y46000D02*
D03*
X327500Y249500D02*
D03*
X416000D02*
D03*
X412500Y226500D02*
D03*
X380000Y222000D02*
D03*
X369500Y96500D02*
D03*
Y51500D02*
D03*
X261000Y251000D02*
D03*
X441000Y261500D02*
D03*
X434000Y267000D02*
D03*
X438000Y264000D02*
D03*
X459500Y141500D02*
D03*
Y96500D02*
D03*
Y51500D02*
D03*
X304000Y111000D02*
D03*
Y148500D02*
D03*
X309000Y191532D02*
D03*
X309000Y158000D02*
D03*
X299000Y179000D02*
D03*
X309000Y175000D02*
D03*
X262000Y39500D02*
D03*
X144500Y83500D02*
D03*
X254000Y50500D02*
D03*
X265000D02*
D03*
X250500Y53000D02*
D03*
X268500D02*
D03*
X182000Y56500D02*
D03*
X116500Y85000D02*
D03*
X111000D02*
D03*
X95000Y88000D02*
D03*
X91500Y87000D02*
D03*
X97000Y243500D02*
D03*
X373000Y31500D02*
D03*
X76500Y221500D02*
D03*
X110500Y243000D02*
D03*
X281000Y111000D02*
D03*
X284500Y115000D02*
D03*
X292000Y81000D02*
D03*
X166500Y92000D02*
D03*
X287500Y99000D02*
D03*
X272500Y91000D02*
D03*
X106500Y258000D02*
D03*
X177000Y92500D02*
D03*
X172500Y94000D02*
D03*
X391500Y38000D02*
D03*
X412500Y46500D02*
D03*
X326000Y78000D02*
D03*
X262000Y228000D02*
D03*
X80500Y254500D02*
D03*
X116500Y238000D02*
D03*
X187500Y69000D02*
D03*
X235500Y99000D02*
D03*
X225000Y99500D02*
D03*
X172000Y60000D02*
D03*
Y38500D02*
D03*
X315000Y137000D02*
D03*
X308000Y31500D02*
D03*
X391500Y83000D02*
D03*
X481500Y38000D02*
D03*
X470000Y222000D02*
D03*
X502500Y226500D02*
D03*
X76900Y50500D02*
D03*
X166500Y79500D02*
D03*
X171000Y103000D02*
D03*
X95000Y52500D02*
D03*
X132000Y222500D02*
D03*
X287000Y78000D02*
D03*
X262000Y90000D02*
D03*
X287000Y30500D02*
D03*
X297000D02*
D03*
X286800Y69500D02*
D03*
X296800D02*
D03*
X217000Y32000D02*
D03*
X227000Y32500D02*
D03*
X217000Y68000D02*
D03*
X207000D02*
D03*
X380000Y42000D02*
D03*
X470000D02*
D03*
X502500Y46500D02*
D03*
X380000Y87000D02*
D03*
X412500Y91500D02*
D03*
X470000Y87000D02*
D03*
X502500Y91500D02*
D03*
X380000Y132000D02*
D03*
X412500Y136500D02*
D03*
X470000Y132000D02*
D03*
X502500Y136500D02*
D03*
X380000Y177000D02*
D03*
X470000D02*
D03*
X502500Y181500D02*
D03*
X299000Y162000D02*
D03*
Y196421D02*
D03*
X252000Y29000D02*
D03*
X267000Y26500D02*
D03*
X272500Y27500D02*
D03*
X373000Y76500D02*
D03*
X351500Y252000D02*
D03*
X369000Y233500D02*
D03*
X412500Y181500D02*
D03*
X233500Y71000D02*
D03*
X184000Y71500D02*
D03*
X422000Y31000D02*
D03*
X309000Y204000D02*
D03*
X294000Y222000D02*
D03*
Y214000D02*
D03*
X303500Y41000D02*
D03*
X155500Y69000D02*
D03*
X157000Y103500D02*
D03*
X327500Y26500D02*
D03*
X417500Y77000D02*
D03*
X417000Y122500D02*
D03*
Y166500D02*
D03*
X416500Y211500D02*
D03*
X325500Y213000D02*
D03*
X326000Y168000D02*
D03*
Y123000D02*
D03*
D57*
X114000Y51500D02*
D03*
X142000Y87000D02*
D03*
X67500Y67740D02*
D03*
X161500Y62500D02*
D03*
X111500Y223500D02*
D03*
X163000Y79500D02*
D03*
X150209Y95169D02*
D03*
X178500Y107000D02*
D03*
X297500Y215000D02*
D03*
D58*
X123500Y101500D02*
D03*
M02*
