G04 Layer_Color=65535*
%FSLAX25Y25*%
%MOIN*%
G70*
G01*
G75*
%ADD27C,0.01000*%
%ADD30C,0.00100*%
%ADD63C,0.00787*%
%ADD64C,0.00500*%
%ADD65C,0.00600*%
%ADD66C,0.00700*%
D27*
X438323Y10000D02*
G03*
X438323Y10000I-1181J0D01*
G01*
X414823Y270000D02*
G03*
X414823Y270000I-1181J0D01*
G01*
X312539Y10000D02*
G03*
X312539Y10000I-1181J0D01*
G01*
X20350Y5600D02*
X61350D01*
X20350Y34600D02*
X61350D01*
X20350Y5600D02*
Y34600D01*
X61350Y5600D02*
Y34600D01*
X407496Y17874D02*
X434504D01*
Y2126D02*
Y17874D01*
X407496Y2126D02*
Y17874D01*
Y2126D02*
X434504D01*
X383996Y262126D02*
X411004D01*
X383996D02*
Y277874D01*
X411004Y262126D02*
Y277874D01*
X383996D02*
X411004D01*
X313996Y2126D02*
X341004D01*
X313996D02*
Y17874D01*
X341004Y2126D02*
Y17874D01*
X313996D02*
X341004D01*
X442300Y214000D02*
X460500D01*
X442300Y255000D02*
X460500D01*
Y214000D02*
Y255000D01*
X442300Y214000D02*
Y255000D01*
X116500Y5600D02*
X157500D01*
X116500Y34600D02*
X157500D01*
X116500Y5600D02*
Y34600D01*
X157500Y5600D02*
Y34600D01*
X161200Y179000D02*
Y220000D01*
X143000Y179000D02*
Y220000D01*
Y179000D02*
X161200D01*
X143000Y220000D02*
X161200D01*
X68400Y5600D02*
X109400D01*
X68400Y34600D02*
X109400D01*
X68400Y5600D02*
Y34600D01*
X109400Y5600D02*
Y34600D01*
X21500Y222200D02*
X62500D01*
X21500Y204000D02*
X62500D01*
Y222200D01*
X21500Y204000D02*
Y222200D01*
X187600Y279700D02*
X240400D01*
X187600Y261500D02*
X240400D01*
Y279700D01*
X187600Y261500D02*
Y279700D01*
X131100D02*
X183900D01*
X131100Y261500D02*
X183900D01*
Y279700D01*
X131100Y261500D02*
Y279700D01*
X74600D02*
X127400D01*
X74600Y261500D02*
X127400D01*
Y279700D01*
X74600Y261500D02*
Y279700D01*
X18100D02*
X70900D01*
X18100Y261500D02*
X70900D01*
Y279700D01*
X18100Y261500D02*
Y279700D01*
X164937Y120941D02*
Y176059D01*
X86197Y120941D02*
Y176059D01*
Y120941D02*
X164937D01*
X86197Y176059D02*
X164937D01*
X352300Y214000D02*
X370500D01*
X352300Y255000D02*
X370500D01*
Y214000D02*
Y255000D01*
X352300Y214000D02*
Y255000D01*
X442300Y169000D02*
X460500D01*
X442300Y210000D02*
X460500D01*
Y169000D02*
Y210000D01*
X442300Y169000D02*
Y210000D01*
X352300Y169000D02*
X370500D01*
X352300Y210000D02*
X370500D01*
Y169000D02*
Y210000D01*
X352300Y169000D02*
Y210000D01*
X442300Y124000D02*
X460500D01*
X442300Y165000D02*
X460500D01*
Y124000D02*
Y165000D01*
X442300Y124000D02*
Y165000D01*
X352300Y124000D02*
X370500D01*
X352300Y165000D02*
X370500D01*
Y124000D02*
Y165000D01*
X352300Y124000D02*
Y165000D01*
X442300Y79000D02*
X460500D01*
X442300Y120000D02*
X460500D01*
Y79000D02*
Y120000D01*
X442300Y79000D02*
Y120000D01*
X352300Y79000D02*
X370500D01*
X352300Y120000D02*
X370500D01*
Y79000D02*
Y120000D01*
X352300Y79000D02*
Y120000D01*
X442300Y34000D02*
X460500D01*
X442300Y75000D02*
X460500D01*
Y34000D02*
Y75000D01*
X442300Y34000D02*
Y75000D01*
X352300Y34000D02*
X370500D01*
X352300Y75000D02*
X370500D01*
Y34000D02*
Y75000D01*
X352300Y34000D02*
Y75000D01*
D30*
X165500Y121500D02*
G03*
X168500Y118500I3000J0D01*
G01*
X267500D02*
G03*
X270500Y121500I0J3000D01*
G01*
Y220500D02*
G03*
X267500Y223500I-3000J0D01*
G01*
X0Y25000D02*
G03*
X25000Y0I25000J0D01*
G01*
Y280000D02*
G03*
X0Y255000I0J-25000D01*
G01*
X168500Y223500D02*
G03*
X165500Y220500I0J-3000D01*
G01*
X0Y-2500D02*
Y2500D01*
X-2500Y0D02*
X2500D01*
X25000Y280000D02*
X510000D01*
X0Y25000D02*
Y109100D01*
Y197800D02*
Y255000D01*
Y109100D02*
X88300D01*
X0Y197800D02*
X88300D01*
Y109100D02*
Y197800D01*
X270500Y121500D02*
Y220500D01*
X165500Y121500D02*
Y220500D01*
X168500Y118500D02*
X267500D01*
X168500Y223500D02*
X267500D01*
X510000Y0D02*
Y280000D01*
X25000Y0D02*
X510000D01*
D63*
X267319Y78594D02*
G03*
X267319Y78594I-394J0D01*
G01*
X155799Y49925D02*
G03*
X155799Y49925I-394J0D01*
G01*
X109299Y59925D02*
G03*
X109299Y59925I-394J0D01*
G01*
X94532Y223520D02*
G03*
X94532Y223520I-394J0D01*
G01*
X387583Y49823D02*
G03*
X387583Y49823I-394J0D01*
G01*
X477583D02*
G03*
X477583Y49823I-394J0D01*
G01*
X387583Y94823D02*
G03*
X387583Y94823I-394J0D01*
G01*
X477583D02*
G03*
X477583Y94823I-394J0D01*
G01*
X387583Y139823D02*
G03*
X387583Y139823I-394J0D01*
G01*
X477583D02*
G03*
X477583Y139823I-394J0D01*
G01*
X387583Y184823D02*
G03*
X387583Y184823I-394J0D01*
G01*
X477583D02*
G03*
X477583Y184823I-394J0D01*
G01*
X387583Y229823D02*
G03*
X387583Y229823I-394J0D01*
G01*
X477583D02*
G03*
X477583Y229823I-394J0D01*
G01*
X169661Y95563D02*
G03*
X169661Y95563I-394J0D01*
G01*
X136626Y112437D02*
G03*
X136626Y112437I-394J0D01*
G01*
X145126Y89543D02*
G03*
X145126Y89543I-394J0D01*
G01*
X301169Y117051D02*
G03*
X301169Y117051I-394J0D01*
G01*
X118500Y116500D02*
X128500D01*
Y96500D02*
Y116500D01*
X118500Y96500D02*
X128500D01*
X118500D02*
Y116500D01*
X295638Y220910D02*
Y222091D01*
D64*
X285941Y86823D02*
Y102177D01*
X266059Y86823D02*
Y102177D01*
X131823Y68941D02*
X147177D01*
X131823Y49059D02*
X147177D01*
X85323Y78941D02*
X100677D01*
X85323Y59059D02*
X100677D01*
X128941Y232988D02*
Y248342D01*
X94059Y232988D02*
Y248342D01*
X389354Y69941D02*
X391717D01*
X389354Y54390D02*
Y69941D01*
X408646Y54390D02*
Y69941D01*
X406480D02*
X408646D01*
X479354D02*
X481716D01*
X479354Y54390D02*
Y69941D01*
X498646Y54390D02*
Y69941D01*
X496480D02*
X498646D01*
X389354Y114941D02*
X391717D01*
X389354Y99390D02*
Y114941D01*
X408646Y99390D02*
Y114941D01*
X406480D02*
X408646D01*
X479354D02*
X481716D01*
X479354Y99390D02*
Y114941D01*
X498646Y99390D02*
Y114941D01*
X496480D02*
X498646D01*
X389354Y159941D02*
X391717D01*
X389354Y144390D02*
Y159941D01*
X408646Y144390D02*
Y159941D01*
X406480D02*
X408646D01*
X479354D02*
X481716D01*
X479354Y144390D02*
Y159941D01*
X498646Y144390D02*
Y159941D01*
X496480D02*
X498646D01*
X389354Y204941D02*
X391717D01*
X389354Y189390D02*
Y204941D01*
X408646Y189390D02*
Y204941D01*
X406480D02*
X408646D01*
X479354D02*
X481716D01*
X479354Y189390D02*
Y204941D01*
X498646Y189390D02*
Y204941D01*
X496480D02*
X498646D01*
X389354Y249941D02*
X391717D01*
X389354Y234390D02*
Y249941D01*
X408646Y234390D02*
Y249941D01*
X406480D02*
X408646D01*
X479354D02*
X481716D01*
X479354Y234390D02*
Y249941D01*
X498646Y234390D02*
Y249941D01*
X496480D02*
X498646D01*
X263543Y98858D02*
Y101142D01*
X256457Y98858D02*
Y101142D01*
X148858Y71957D02*
X151142D01*
X148858Y79043D02*
X151142D01*
X164965Y58835D02*
Y63165D01*
X158035Y58835D02*
Y63165D01*
X260043Y67358D02*
Y69642D01*
X252957Y67358D02*
Y69642D01*
X249965Y66335D02*
Y70665D01*
X243035Y66335D02*
Y70665D01*
X58957Y71858D02*
Y74142D01*
X66043Y71858D02*
Y74142D01*
X69035Y70835D02*
Y75165D01*
X75965Y70835D02*
Y75165D01*
X121358Y211043D02*
X123642D01*
X121358Y203957D02*
X123642D01*
X120335Y220965D02*
X124665D01*
X120335Y214035D02*
X124665D01*
X131535Y83335D02*
Y87665D01*
X138465Y83335D02*
Y87665D01*
X128543Y84358D02*
Y86642D01*
X121457Y84358D02*
Y86642D01*
X158244Y93358D02*
X163756D01*
X158244Y105642D02*
X163756D01*
X158244Y93358D02*
Y97059D01*
Y101941D02*
Y105642D01*
X141744Y114642D02*
X147256D01*
X141744Y102358D02*
X147256D01*
Y110941D02*
Y114642D01*
Y102358D02*
Y106059D01*
X150539Y90606D02*
X155461D01*
X150539Y81394D02*
X155461D01*
X302858Y107457D02*
X305142D01*
X302858Y114543D02*
X305142D01*
X302858Y136957D02*
X305142D01*
X302858Y144043D02*
X305142D01*
X298557Y119020D02*
Y133980D01*
X312443Y119020D02*
Y133980D01*
D65*
X399500Y35721D02*
X404500D01*
X489500D02*
X494500D01*
X399500Y80721D02*
X404500D01*
X489500D02*
X494500D01*
X399500Y125721D02*
X404500D01*
X489500D02*
X494500D01*
X399500Y170721D02*
X404500D01*
X489500D02*
X494500D01*
X399500Y215721D02*
X404500D01*
X489500D02*
X494500D01*
X497500Y225279D02*
X502500D01*
X296500Y160780D02*
X301500D01*
X296500Y178253D02*
X301500D01*
X296500Y195727D02*
X301500D01*
X297000Y213201D02*
X302000D01*
X407500Y225279D02*
X412500D01*
X497500Y180280D02*
X502500D01*
X407500D02*
X412500D01*
X497500Y135280D02*
X502500D01*
X407500D02*
X412500D01*
X497500Y90280D02*
X502500D01*
X407500D02*
X412500D01*
X497500Y45279D02*
X502500D01*
X407500D02*
X412500D01*
D66*
X319533Y96001D02*
X317200D01*
Y94252D01*
X318366D01*
X317200D01*
Y92502D01*
X323031Y96001D02*
X320699D01*
Y92502D01*
X323031D01*
X320699Y94252D02*
X321865D01*
X324198Y96001D02*
X326530D01*
X325364D01*
Y92502D01*
X317200Y90122D02*
Y86624D01*
X318949D01*
X319533Y87207D01*
Y89539D01*
X318949Y90122D01*
X317200D01*
X320699Y88956D02*
Y86624D01*
Y87790D01*
X321282Y88373D01*
X321865Y88956D01*
X322448D01*
X324198Y86624D02*
X325364D01*
X324781D01*
Y88956D01*
X324198D01*
X327114D02*
X328280Y86624D01*
X329446Y88956D01*
X332362Y86624D02*
X331195D01*
X330612Y87207D01*
Y88373D01*
X331195Y88956D01*
X332362D01*
X332945Y88373D01*
Y87790D01*
X330612D01*
X319533Y83661D02*
X318949Y84244D01*
X317783D01*
X317200Y83661D01*
Y83078D01*
X317783Y82494D01*
X318949D01*
X319533Y81911D01*
Y81328D01*
X318949Y80745D01*
X317783D01*
X317200Y81328D01*
X320699Y83078D02*
Y81328D01*
X321282Y80745D01*
X323031D01*
Y83078D01*
X324198Y79579D02*
Y83078D01*
X325947D01*
X326530Y82494D01*
Y81328D01*
X325947Y80745D01*
X324198D01*
X327697Y79579D02*
Y83078D01*
X329446D01*
X330029Y82494D01*
Y81328D01*
X329446Y80745D01*
X327697D01*
X331195D02*
X332362D01*
X331779D01*
Y84244D01*
X331195D01*
X334111Y83078D02*
Y81328D01*
X334694Y80745D01*
X336444D01*
Y80162D01*
X335861Y79579D01*
X335278D01*
X336444Y80745D02*
Y83078D01*
X319533Y76616D02*
X318949Y77199D01*
X317783D01*
X317200Y76616D01*
Y76033D01*
X317783Y75449D01*
X318949D01*
X319533Y74866D01*
Y74283D01*
X318949Y73700D01*
X317783D01*
X317200Y74283D01*
X322448Y73700D02*
X321282D01*
X320699Y74283D01*
Y75449D01*
X321282Y76033D01*
X322448D01*
X323031Y75449D01*
Y74866D01*
X320699D01*
X324198Y73700D02*
X325364D01*
X324781D01*
Y77199D01*
X324198D01*
X328863Y73700D02*
X327697D01*
X327114Y74283D01*
Y75449D01*
X327697Y76033D01*
X328863D01*
X329446Y75449D01*
Y74866D01*
X327114D01*
X332945Y76033D02*
X331195D01*
X330612Y75449D01*
Y74283D01*
X331195Y73700D01*
X332945D01*
X334694Y76616D02*
Y76033D01*
X334111D01*
X335278D01*
X334694D01*
Y74283D01*
X335278Y73700D01*
X21000Y39999D02*
Y36500D01*
X22749D01*
X23333Y37083D01*
Y37666D01*
X22749Y38249D01*
X21000D01*
X22749D01*
X23333Y38833D01*
Y39416D01*
X22749Y39999D01*
X21000D01*
X24499Y36500D02*
Y39999D01*
X25665Y38833D01*
X26831Y39999D01*
Y36500D01*
X30330Y39416D02*
X29747Y39999D01*
X28581D01*
X27998Y39416D01*
Y38833D01*
X28581Y38249D01*
X29747D01*
X30330Y37666D01*
Y37083D01*
X29747Y36500D01*
X28581D01*
X27998Y37083D01*
X465833Y218499D02*
X463500D01*
Y216749D01*
X464666D01*
X463500D01*
Y215000D01*
X469332Y218499D02*
X466999D01*
Y215000D01*
X469332D01*
X466999Y216749D02*
X468165D01*
X470498Y218499D02*
X472830D01*
X471664D01*
Y215000D01*
X473997D02*
X475163D01*
X474580D01*
Y218499D01*
X473997Y217916D01*
X79333Y102916D02*
X78749Y103499D01*
X77583D01*
X77000Y102916D01*
Y100583D01*
X77583Y100000D01*
X78749D01*
X79333Y100583D01*
X81082Y100000D02*
X82248D01*
X82831Y100583D01*
Y101749D01*
X82248Y102333D01*
X81082D01*
X80499Y101749D01*
Y100583D01*
X81082Y100000D01*
X83998D02*
Y102333D01*
X84581D01*
X85164Y101749D01*
Y100000D01*
Y101749D01*
X85747Y102333D01*
X86330Y101749D01*
Y100000D01*
X87497D02*
Y102333D01*
X88080D01*
X88663Y101749D01*
Y100000D01*
Y101749D01*
X89246Y102333D01*
X89829Y101749D01*
Y100000D01*
X90996D02*
X92745D01*
X93328Y100583D01*
X92745Y101166D01*
X91579D01*
X90996Y101749D01*
X91579Y102333D01*
X93328D01*
X94494Y103499D02*
Y100000D01*
X96244D01*
X96827Y100583D01*
Y102916D01*
X96244Y103499D01*
X94494D01*
X97993Y100000D02*
X99159D01*
X98576D01*
Y102333D01*
X97993D01*
X100909Y100000D02*
X102658D01*
X103242Y100583D01*
X102658Y101166D01*
X101492D01*
X100909Y101749D01*
X101492Y102333D01*
X103242D01*
X104991D02*
X106157D01*
X106740Y101749D01*
Y100000D01*
X104991D01*
X104408Y100583D01*
X104991Y101166D01*
X106740D01*
X107907Y103499D02*
Y100000D01*
X109656D01*
X110239Y100583D01*
Y101166D01*
Y101749D01*
X109656Y102333D01*
X107907D01*
X111406Y100000D02*
X112572D01*
X111989D01*
Y103499D01*
X111406D01*
X116071Y100000D02*
X114904D01*
X114321Y100583D01*
Y101749D01*
X114904Y102333D01*
X116071D01*
X116654Y101749D01*
Y101166D01*
X114321D01*
X329500Y23999D02*
Y21666D01*
X330666Y20500D01*
X331833Y21666D01*
Y23999D01*
X332999D02*
Y20500D01*
X334748D01*
X335331Y21083D01*
Y21666D01*
Y22249D01*
X334748Y22833D01*
X332999D01*
X337081D02*
X338247D01*
X338830Y22249D01*
Y20500D01*
X337081D01*
X336498Y21083D01*
X337081Y21666D01*
X338830D01*
X340580Y23416D02*
Y22833D01*
X339997D01*
X341163D01*
X340580D01*
Y21083D01*
X341163Y20500D01*
X116000Y39499D02*
X118333D01*
X117166D01*
Y36000D01*
X121248D02*
X120082D01*
X119499Y36583D01*
Y37749D01*
X120082Y38333D01*
X121248D01*
X121831Y37749D01*
Y37166D01*
X119499D01*
X122998Y36000D02*
X124164D01*
X123581D01*
Y39499D01*
X122998D01*
X127663Y36000D02*
X126497D01*
X125914Y36583D01*
Y37749D01*
X126497Y38333D01*
X127663D01*
X128246Y37749D01*
Y37166D01*
X125914D01*
X129412Y36000D02*
Y38333D01*
X129996D01*
X130579Y37749D01*
Y36000D01*
Y37749D01*
X131162Y38333D01*
X131745Y37749D01*
Y36000D01*
X132911D02*
Y39499D01*
X134661D01*
X135244Y38916D01*
Y37749D01*
X134661Y37166D01*
X132911D01*
X134078D02*
X135244Y36000D01*
X136993Y38333D02*
X138160D01*
X138743Y37749D01*
Y36000D01*
X136993D01*
X136410Y36583D01*
X136993Y37166D01*
X138743D01*
X142242Y39499D02*
Y36000D01*
X140492D01*
X139909Y36583D01*
Y37749D01*
X140492Y38333D01*
X142242D01*
X143408Y36000D02*
X144574D01*
X143991D01*
Y38333D01*
X143408D01*
X146907Y36000D02*
X148073D01*
X148656Y36583D01*
Y37749D01*
X148073Y38333D01*
X146907D01*
X146324Y37749D01*
Y36583D01*
X146907Y36000D01*
X145333Y225499D02*
X143000D01*
Y223749D01*
X144166D01*
X143000D01*
Y222000D01*
X146499D02*
Y224333D01*
X147665Y225499D01*
X148831Y224333D01*
Y222000D01*
Y223749D01*
X146499D01*
X149998Y222000D02*
Y225499D01*
X152330Y222000D01*
Y225499D01*
X68500Y36000D02*
Y39499D01*
X70249D01*
X70833Y38916D01*
Y37749D01*
X70249Y37166D01*
X68500D01*
X69666D02*
X70833Y36000D01*
X74331Y38916D02*
X73748Y39499D01*
X72582D01*
X71999Y38916D01*
Y38333D01*
X72582Y37749D01*
X73748D01*
X74331Y37166D01*
Y36583D01*
X73748Y36000D01*
X72582D01*
X71999Y36583D01*
X77247Y36000D02*
Y39499D01*
X75498Y37749D01*
X77830D01*
X78997Y38916D02*
X79580Y39499D01*
X80746D01*
X81329Y38916D01*
Y38333D01*
X80746Y37749D01*
X81329Y37166D01*
Y36583D01*
X80746Y36000D01*
X79580D01*
X78997Y36583D01*
Y37166D01*
X79580Y37749D01*
X78997Y38333D01*
Y38916D01*
X79580Y37749D02*
X80746D01*
X84828Y39499D02*
X82495D01*
Y37749D01*
X83662Y38333D01*
X84245D01*
X84828Y37749D01*
Y36583D01*
X84245Y36000D01*
X83079D01*
X82495Y36583D01*
X384000Y257000D02*
Y260499D01*
X385749D01*
X386333Y259916D01*
Y258749D01*
X385749Y258166D01*
X384000D01*
X387499Y260499D02*
Y257000D01*
X388665Y258166D01*
X389831Y257000D01*
Y260499D01*
X390998Y257000D02*
Y260499D01*
X392747D01*
X393330Y259916D01*
Y258749D01*
X392747Y258166D01*
X390998D01*
X392164D02*
X393330Y257000D01*
X394497D02*
X395663D01*
X395080D01*
Y260499D01*
X394497Y259916D01*
X23933Y228899D02*
X21600D01*
Y227149D01*
X22766Y227733D01*
X23349D01*
X23933Y227149D01*
Y225983D01*
X23349Y225400D01*
X22183D01*
X21600Y225983D01*
X25099Y228899D02*
Y226566D01*
X26265Y225400D01*
X27431Y226566D01*
Y228899D01*
X297500Y227999D02*
Y224500D01*
X299833D01*
X300999D02*
X302165D01*
X301582D01*
Y227999D01*
X300999Y227416D01*
X287500Y87499D02*
Y84583D01*
X288083Y84000D01*
X289249D01*
X289833Y84583D01*
Y87499D01*
X290999D02*
X293331D01*
Y86916D01*
X290999Y84583D01*
Y84000D01*
X273500Y115000D02*
Y118499D01*
X275249D01*
X275833Y117916D01*
Y116749D01*
X275249Y116166D01*
X273500D01*
X274666D02*
X275833Y115000D01*
X276999Y117916D02*
X277582Y118499D01*
X278748D01*
X279331Y117916D01*
Y117333D01*
X278748Y116749D01*
X278165D01*
X278748D01*
X279331Y116166D01*
Y115583D01*
X278748Y115000D01*
X277582D01*
X276999Y115583D01*
X280498Y115000D02*
X281664D01*
X281081D01*
Y118499D01*
X280498Y117916D01*
X265000Y59500D02*
Y62999D01*
X266749D01*
X267333Y62416D01*
Y61249D01*
X266749Y60666D01*
X265000D01*
X266166D02*
X267333Y59500D01*
X268499Y62416D02*
X269082Y62999D01*
X270248D01*
X270831Y62416D01*
Y61833D01*
X270248Y61249D01*
X269665D01*
X270248D01*
X270831Y60666D01*
Y60083D01*
X270248Y59500D01*
X269082D01*
X268499Y60083D01*
X271998Y62416D02*
X272581Y62999D01*
X273747D01*
X274330Y62416D01*
Y60083D01*
X273747Y59500D01*
X272581D01*
X271998Y60083D01*
Y62416D01*
X278000Y59500D02*
Y62999D01*
X279749D01*
X280333Y62416D01*
Y61249D01*
X279749Y60666D01*
X278000D01*
X279166D02*
X280333Y59500D01*
X283831D02*
X281499D01*
X283831Y61833D01*
Y62416D01*
X283248Y62999D01*
X282082D01*
X281499Y62416D01*
X284998Y60083D02*
X285581Y59500D01*
X286747D01*
X287330Y60083D01*
Y62416D01*
X286747Y62999D01*
X285581D01*
X284998Y62416D01*
Y61833D01*
X285581Y61249D01*
X287330D01*
X265000Y65000D02*
Y68499D01*
X266749D01*
X267333Y67916D01*
Y66749D01*
X266749Y66166D01*
X265000D01*
X266166D02*
X267333Y65000D01*
X270831D02*
X268499D01*
X270831Y67333D01*
Y67916D01*
X270248Y68499D01*
X269082D01*
X268499Y67916D01*
X271998D02*
X272581Y68499D01*
X273747D01*
X274330Y67916D01*
Y67333D01*
X273747Y66749D01*
X274330Y66166D01*
Y65583D01*
X273747Y65000D01*
X272581D01*
X271998Y65583D01*
Y66166D01*
X272581Y66749D01*
X271998Y67333D01*
Y67916D01*
X272581Y66749D02*
X273747D01*
X278000Y65000D02*
Y68499D01*
X279749D01*
X280333Y67916D01*
Y66749D01*
X279749Y66166D01*
X278000D01*
X279166D02*
X280333Y65000D01*
X283831D02*
X281499D01*
X283831Y67333D01*
Y67916D01*
X283248Y68499D01*
X282082D01*
X281499Y67916D01*
X284998Y68499D02*
X287330D01*
Y67916D01*
X284998Y65583D01*
Y65000D01*
X131500Y74999D02*
Y72083D01*
X132083Y71500D01*
X133249D01*
X133833Y72083D01*
Y74999D01*
X134999Y74416D02*
X135582Y74999D01*
X136748D01*
X137331Y74416D01*
Y73833D01*
X136748Y73249D01*
X136165D01*
X136748D01*
X137331Y72666D01*
Y72083D01*
X136748Y71500D01*
X135582D01*
X134999Y72083D01*
X242000Y108999D02*
Y106083D01*
X242583Y105500D01*
X243749D01*
X244333Y106083D01*
Y108999D01*
X247831Y105500D02*
X245499D01*
X247831Y107833D01*
Y108416D01*
X247248Y108999D01*
X246082D01*
X245499Y108416D01*
X94500Y83999D02*
Y81083D01*
X95083Y80500D01*
X96249D01*
X96833Y81083D01*
Y83999D01*
X97999Y80500D02*
X99165D01*
X98582D01*
Y83999D01*
X97999Y83416D01*
X85500Y247999D02*
Y245083D01*
X86083Y244500D01*
X87249D01*
X87833Y245083D01*
Y247999D01*
X88999Y247416D02*
X89582Y247999D01*
X90748D01*
X91331Y247416D01*
Y246833D01*
X90748Y246249D01*
X91331Y245666D01*
Y245083D01*
X90748Y244500D01*
X89582D01*
X88999Y245083D01*
Y245666D01*
X89582Y246249D01*
X88999Y246833D01*
Y247416D01*
X89582Y246249D02*
X90748D01*
X264000Y41000D02*
X267499D01*
Y39251D01*
X266916Y38667D01*
X265749D01*
X265166Y39251D01*
Y41000D01*
Y39834D02*
X264000Y38667D01*
Y37501D02*
Y36335D01*
Y36918D01*
X267499D01*
X266916Y37501D01*
Y34585D02*
X267499Y34002D01*
Y32836D01*
X266916Y32253D01*
X266333D01*
X265749Y32836D01*
X265166Y32253D01*
X264583D01*
X264000Y32836D01*
Y34002D01*
X264583Y34585D01*
X265166D01*
X265749Y34002D01*
X266333Y34585D01*
X266916D01*
X265749Y34002D02*
Y32836D01*
X256000Y41000D02*
X259499D01*
Y39251D01*
X258916Y38667D01*
X257749D01*
X257166Y39251D01*
Y41000D01*
Y39834D02*
X256000Y38667D01*
Y37501D02*
Y36335D01*
Y36918D01*
X259499D01*
X258916Y37501D01*
X259499Y34585D02*
Y32253D01*
X258916D01*
X256583Y34585D01*
X256000D01*
X251500Y41000D02*
X254999D01*
Y39251D01*
X254416Y38667D01*
X253249D01*
X252666Y39251D01*
Y41000D01*
Y39834D02*
X251500Y38667D01*
Y37501D02*
Y36335D01*
Y36918D01*
X254999D01*
X254416Y37501D01*
X254999Y32253D02*
X254416Y33419D01*
X253249Y34585D01*
X252083D01*
X251500Y34002D01*
Y32836D01*
X252083Y32253D01*
X252666D01*
X253249Y32836D01*
Y34585D01*
X268500Y41000D02*
X271999D01*
Y39251D01*
X271416Y38667D01*
X270249D01*
X269666Y39251D01*
Y41000D01*
Y39834D02*
X268500Y38667D01*
Y37501D02*
Y36335D01*
Y36918D01*
X271999D01*
X271416Y37501D01*
X271999Y32253D02*
Y34585D01*
X270249D01*
X270833Y33419D01*
Y32836D01*
X270249Y32253D01*
X269083D01*
X268500Y32836D01*
Y34002D01*
X269083Y34585D01*
X278000Y41000D02*
X281499D01*
Y39251D01*
X280916Y38667D01*
X279749D01*
X279166Y39251D01*
Y41000D01*
Y39834D02*
X278000Y38667D01*
Y37501D02*
Y36335D01*
Y36918D01*
X281499D01*
X280916Y37501D01*
X278000Y32836D02*
X281499D01*
X279749Y34585D01*
Y32253D01*
X242500Y41000D02*
X245999D01*
Y39251D01*
X245416Y38667D01*
X244249D01*
X243666Y39251D01*
Y41000D01*
Y39834D02*
X242500Y38667D01*
Y37501D02*
Y36335D01*
Y36918D01*
X245999D01*
X245416Y37501D01*
Y34585D02*
X245999Y34002D01*
Y32836D01*
X245416Y32253D01*
X244833D01*
X244249Y32836D01*
Y33419D01*
Y32836D01*
X243666Y32253D01*
X243083D01*
X242500Y32836D01*
Y34002D01*
X243083Y34585D01*
X247000Y41000D02*
X250499D01*
Y39251D01*
X249916Y38667D01*
X248749D01*
X248166Y39251D01*
Y41000D01*
Y39834D02*
X247000Y38667D01*
Y37501D02*
Y36335D01*
Y36918D01*
X250499D01*
X249916Y37501D01*
X247000Y32253D02*
Y34585D01*
X249333Y32253D01*
X249916D01*
X250499Y32836D01*
Y34002D01*
X249916Y34585D01*
X273500Y41000D02*
X276999D01*
Y39251D01*
X276416Y38667D01*
X275249D01*
X274666Y39251D01*
Y41000D01*
Y39834D02*
X273500Y38667D01*
Y37501D02*
Y36335D01*
Y36918D01*
X276999D01*
X276416Y37501D01*
X273500Y34585D02*
Y33419D01*
Y34002D01*
X276999D01*
X276416Y34585D01*
X104000Y54500D02*
Y57999D01*
X105749D01*
X106333Y57416D01*
Y56249D01*
X105749Y55666D01*
X104000D01*
X105166D02*
X106333Y54500D01*
X107499D02*
X108665D01*
X108082D01*
Y57999D01*
X107499Y57416D01*
X110415D02*
X110998Y57999D01*
X112164D01*
X112747Y57416D01*
Y55083D01*
X112164Y54500D01*
X110998D01*
X110415Y55083D01*
Y57416D01*
X104000Y49500D02*
Y52999D01*
X105749D01*
X106333Y52416D01*
Y51249D01*
X105749Y50666D01*
X104000D01*
X105166D02*
X106333Y49500D01*
X107499Y50083D02*
X108082Y49500D01*
X109248D01*
X109831Y50083D01*
Y52416D01*
X109248Y52999D01*
X108082D01*
X107499Y52416D01*
Y51833D01*
X108082Y51249D01*
X109831D01*
X104000Y39500D02*
Y42999D01*
X105749D01*
X106333Y42416D01*
Y41249D01*
X105749Y40666D01*
X104000D01*
X105166D02*
X106333Y39500D01*
X107499Y42416D02*
X108082Y42999D01*
X109248D01*
X109831Y42416D01*
Y41833D01*
X109248Y41249D01*
X109831Y40666D01*
Y40083D01*
X109248Y39500D01*
X108082D01*
X107499Y40083D01*
Y40666D01*
X108082Y41249D01*
X107499Y41833D01*
Y42416D01*
X108082Y41249D02*
X109248D01*
X104000Y44500D02*
Y47999D01*
X105749D01*
X106333Y47416D01*
Y46249D01*
X105749Y45666D01*
X104000D01*
X105166D02*
X106333Y44500D01*
X107499Y47999D02*
X109831D01*
Y47416D01*
X107499Y45083D01*
Y44500D01*
X85000Y53500D02*
Y56999D01*
X86749D01*
X87333Y56416D01*
Y55249D01*
X86749Y54666D01*
X85000D01*
X86166D02*
X87333Y53500D01*
X90831Y56999D02*
X89665Y56416D01*
X88499Y55249D01*
Y54083D01*
X89082Y53500D01*
X90248D01*
X90831Y54083D01*
Y54666D01*
X90248Y55249D01*
X88499D01*
X501499Y277000D02*
X498000D01*
Y275251D01*
X498583Y274667D01*
X500916D01*
X501499Y275251D01*
Y277000D01*
X500916Y273501D02*
X501499Y272918D01*
Y271752D01*
X500916Y271169D01*
X500333D01*
X499749Y271752D01*
Y272335D01*
Y271752D01*
X499166Y271169D01*
X498583D01*
X498000Y271752D01*
Y272918D01*
X498583Y273501D01*
X497417Y270002D02*
Y267670D01*
X501499Y264171D02*
Y266503D01*
X499749D01*
Y265337D01*
Y266503D01*
X498000D01*
X501499Y260672D02*
Y263004D01*
X498000D01*
Y260672D01*
X499749Y263004D02*
Y261838D01*
X501499Y259506D02*
Y257173D01*
Y258339D01*
X498000D01*
Y256007D02*
Y254840D01*
Y255424D01*
X501499D01*
X500916Y256007D01*
X253916Y107167D02*
X254499Y107751D01*
Y108917D01*
X253916Y109500D01*
X251583D01*
X251000Y108917D01*
Y107751D01*
X251583Y107167D01*
Y106001D02*
X251000Y105418D01*
Y104252D01*
X251583Y103669D01*
X253916D01*
X254499Y104252D01*
Y105418D01*
X253916Y106001D01*
X253333D01*
X252749Y105418D01*
Y103669D01*
X162333Y74916D02*
X161749Y75499D01*
X160583D01*
X160000Y74916D01*
Y72583D01*
X160583Y72000D01*
X161749D01*
X162333Y72583D01*
X163499Y74916D02*
X164082Y75499D01*
X165248D01*
X165831Y74916D01*
Y74333D01*
X165248Y73749D01*
X165831Y73166D01*
Y72583D01*
X165248Y72000D01*
X164082D01*
X163499Y72583D01*
Y73166D01*
X164082Y73749D01*
X163499Y74333D01*
Y74916D01*
X164082Y73749D02*
X165248D01*
X169416Y53667D02*
X169999Y54251D01*
Y55417D01*
X169416Y56000D01*
X167083D01*
X166500Y55417D01*
Y54251D01*
X167083Y53667D01*
X169999Y52501D02*
Y50169D01*
X169416D01*
X167083Y52501D01*
X166500D01*
X255833Y81416D02*
X255249Y81999D01*
X254083D01*
X253500Y81416D01*
Y79083D01*
X254083Y78500D01*
X255249D01*
X255833Y79083D01*
X259331Y81999D02*
X258165Y81416D01*
X256999Y80249D01*
Y79083D01*
X257582Y78500D01*
X258748D01*
X259331Y79083D01*
Y79666D01*
X258748Y80249D01*
X256999D01*
X245833Y81416D02*
X245249Y81999D01*
X244083D01*
X243500Y81416D01*
Y79083D01*
X244083Y78500D01*
X245249D01*
X245833Y79083D01*
X249331Y81999D02*
X246999D01*
Y80249D01*
X248165Y80833D01*
X248748D01*
X249331Y80249D01*
Y79083D01*
X248748Y78500D01*
X247582D01*
X246999Y79083D01*
X50916Y78667D02*
X51499Y79251D01*
Y80417D01*
X50916Y81000D01*
X48583D01*
X48000Y80417D01*
Y79251D01*
X48583Y78667D01*
X48000Y75752D02*
X51499D01*
X49749Y77501D01*
Y75169D01*
X56416Y78667D02*
X56999Y79251D01*
Y80417D01*
X56416Y81000D01*
X54083D01*
X53500Y80417D01*
Y79251D01*
X54083Y78667D01*
X56416Y77501D02*
X56999Y76918D01*
Y75752D01*
X56416Y75169D01*
X55833D01*
X55249Y75752D01*
Y76335D01*
Y75752D01*
X54666Y75169D01*
X54083D01*
X53500Y75752D01*
Y76918D01*
X54083Y77501D01*
X128833Y201916D02*
X128249Y202499D01*
X127083D01*
X126500Y201916D01*
Y199583D01*
X127083Y199000D01*
X128249D01*
X128833Y199583D01*
X132331Y199000D02*
X129999D01*
X132331Y201333D01*
Y201916D01*
X131748Y202499D01*
X130582D01*
X129999Y201916D01*
X128833Y196916D02*
X128249Y197499D01*
X127083D01*
X126500Y196916D01*
Y194583D01*
X127083Y194000D01*
X128249D01*
X128833Y194583D01*
X129999Y194000D02*
X131165D01*
X130582D01*
Y197499D01*
X129999Y196916D01*
X187500Y256000D02*
Y258333D01*
X188666Y259499D01*
X189833Y258333D01*
Y256000D01*
Y257749D01*
X187500D01*
X190999Y258916D02*
X191582Y259499D01*
X192748D01*
X193331Y258916D01*
Y258333D01*
X192748Y257749D01*
X192165D01*
X192748D01*
X193331Y257166D01*
Y256583D01*
X192748Y256000D01*
X191582D01*
X190999Y256583D01*
X130500Y256500D02*
Y258833D01*
X131666Y259999D01*
X132833Y258833D01*
Y256500D01*
Y258249D01*
X130500D01*
X136331Y256500D02*
X133999D01*
X136331Y258833D01*
Y259416D01*
X135748Y259999D01*
X134582D01*
X133999Y259416D01*
X74500Y256500D02*
Y258833D01*
X75666Y259999D01*
X76833Y258833D01*
Y256500D01*
Y258249D01*
X74500D01*
X77999Y256500D02*
X79165D01*
X78582D01*
Y259999D01*
X77999Y259416D01*
X18500Y255500D02*
Y257833D01*
X19666Y258999D01*
X20833Y257833D01*
Y255500D01*
Y257249D01*
X18500D01*
X21999Y258416D02*
X22582Y258999D01*
X23748D01*
X24331Y258416D01*
Y256083D01*
X23748Y255500D01*
X22582D01*
X21999Y256083D01*
Y258416D01*
X119916Y78667D02*
X120499Y79251D01*
Y80417D01*
X119916Y81000D01*
X117583D01*
X117000Y80417D01*
Y79251D01*
X117583Y78667D01*
X117000Y77501D02*
Y76335D01*
Y76918D01*
X120499D01*
X119916Y77501D01*
X117000Y74585D02*
Y73419D01*
Y74002D01*
X120499D01*
X119916Y74585D01*
X114916Y79667D02*
X115499Y80251D01*
Y81417D01*
X114916Y82000D01*
X112583D01*
X112000Y81417D01*
Y80251D01*
X112583Y79667D01*
X112000Y78501D02*
Y77335D01*
Y77918D01*
X115499D01*
X114916Y78501D01*
X112000Y73253D02*
Y75585D01*
X114333Y73253D01*
X114916D01*
X115499Y73836D01*
Y75002D01*
X114916Y75585D01*
X173333Y97583D02*
Y99916D01*
X172749Y100499D01*
X171583D01*
X171000Y99916D01*
Y97583D01*
X171583Y97000D01*
X172749D01*
X172166Y98166D02*
X173333Y97000D01*
X172749D02*
X173333Y97583D01*
X176831Y97000D02*
X174499D01*
X176831Y99333D01*
Y99916D01*
X176248Y100499D01*
X175082D01*
X174499Y99916D01*
X139833Y97583D02*
Y99916D01*
X139249Y100499D01*
X138083D01*
X137500Y99916D01*
Y97583D01*
X138083Y97000D01*
X139249D01*
X138666Y98166D02*
X139833Y97000D01*
X139249D02*
X139833Y97583D01*
X140999Y99916D02*
X141582Y100499D01*
X142748D01*
X143331Y99916D01*
Y99333D01*
X142748Y98749D01*
X142165D01*
X142748D01*
X143331Y98166D01*
Y97583D01*
X142748Y97000D01*
X141582D01*
X140999Y97583D01*
X170000Y89500D02*
X173499D01*
Y87751D01*
X172916Y87167D01*
X171749D01*
X171166Y87751D01*
Y89500D01*
Y88334D02*
X170000Y87167D01*
Y86001D02*
Y84835D01*
Y85418D01*
X173499D01*
X172916Y86001D01*
X170583Y83085D02*
X170000Y82502D01*
Y81336D01*
X170583Y80753D01*
X172916D01*
X173499Y81336D01*
Y82502D01*
X172916Y83085D01*
X172333D01*
X171749Y82502D01*
Y80753D01*
X162000Y107500D02*
Y110999D01*
X163749D01*
X164333Y110416D01*
Y109249D01*
X163749Y108666D01*
X162000D01*
X163166D02*
X164333Y107500D01*
X167831D02*
X165499D01*
X167831Y109833D01*
Y110416D01*
X167248Y110999D01*
X166082D01*
X165499Y110416D01*
X168998D02*
X169581Y110999D01*
X170747D01*
X171330Y110416D01*
Y108083D01*
X170747Y107500D01*
X169581D01*
X168998Y108083D01*
Y110416D01*
X162000Y112000D02*
Y115499D01*
X163749D01*
X164333Y114916D01*
Y113749D01*
X163749Y113166D01*
X162000D01*
X163166D02*
X164333Y112000D01*
X167831D02*
X165499D01*
X167831Y114333D01*
Y114916D01*
X167248Y115499D01*
X166082D01*
X165499Y114916D01*
X168998Y112000D02*
X170164D01*
X169581D01*
Y115499D01*
X168998Y114916D01*
X175000Y89500D02*
X178499D01*
Y87751D01*
X177916Y87167D01*
X176749D01*
X176166Y87751D01*
Y89500D01*
Y88334D02*
X175000Y87167D01*
Y83669D02*
Y86001D01*
X177333Y83669D01*
X177916D01*
X178499Y84252D01*
Y85418D01*
X177916Y86001D01*
Y82502D02*
X178499Y81919D01*
Y80753D01*
X177916Y80170D01*
X177333D01*
X176749Y80753D01*
Y81336D01*
Y80753D01*
X176166Y80170D01*
X175583D01*
X175000Y80753D01*
Y81919D01*
X175583Y82502D01*
X142532Y116000D02*
Y119499D01*
X144281D01*
X144864Y118916D01*
Y117749D01*
X144281Y117166D01*
X142532D01*
X143698D02*
X144864Y116000D01*
X148363D02*
X146030D01*
X148363Y118333D01*
Y118916D01*
X147780Y119499D01*
X146614D01*
X146030Y118916D01*
X151279Y116000D02*
Y119499D01*
X149529Y117749D01*
X151862D01*
X90500Y181499D02*
Y178583D01*
X91083Y178000D01*
X92249D01*
X92833Y178583D01*
Y181499D01*
X95748Y178000D02*
Y181499D01*
X93999Y179749D01*
X96331D01*
X506999Y277000D02*
X503500D01*
Y275251D01*
X504083Y274667D01*
X506416D01*
X506999Y275251D01*
Y277000D01*
X503500Y271752D02*
X506999D01*
X505249Y273501D01*
Y271169D01*
X502917Y270002D02*
Y267670D01*
X506999Y264171D02*
Y266503D01*
X505249D01*
Y265337D01*
Y266503D01*
X503500D01*
X506999Y260672D02*
Y263004D01*
X503500D01*
Y260672D01*
X505249Y263004D02*
Y261838D01*
X506999Y259506D02*
Y257173D01*
Y258339D01*
X503500D01*
Y256007D02*
Y254840D01*
Y255424D01*
X506999D01*
X506416Y256007D01*
X316499Y160000D02*
X313000D01*
Y158251D01*
X313583Y157667D01*
X315916D01*
X316499Y158251D01*
Y160000D01*
Y154169D02*
Y156501D01*
X314749D01*
X315333Y155335D01*
Y154752D01*
X314749Y154169D01*
X313583D01*
X313000Y154752D01*
Y155918D01*
X313583Y156501D01*
X316999Y180474D02*
X313500D01*
Y178724D01*
X314083Y178141D01*
X316416D01*
X316999Y178724D01*
Y180474D01*
Y174642D02*
X316416Y175809D01*
X315249Y176975D01*
X314083D01*
X313500Y176392D01*
Y175225D01*
X314083Y174642D01*
X314666D01*
X315249Y175225D01*
Y176975D01*
X315999Y195000D02*
X312500D01*
Y193251D01*
X313083Y192667D01*
X315416D01*
X315999Y193251D01*
Y195000D01*
Y191501D02*
Y189169D01*
X315416D01*
X313083Y191501D01*
X312500D01*
X316499Y214000D02*
X313000D01*
Y212251D01*
X313583Y211667D01*
X315916D01*
X316499Y212251D01*
Y214000D01*
X315916Y210501D02*
X316499Y209918D01*
Y208752D01*
X315916Y208169D01*
X315333D01*
X314749Y208752D01*
X314166Y208169D01*
X313583D01*
X313000Y208752D01*
Y209918D01*
X313583Y210501D01*
X314166D01*
X314749Y209918D01*
X315333Y210501D01*
X315916D01*
X314749Y209918D02*
Y208752D01*
X421500Y19500D02*
Y22999D01*
X423249D01*
X423833Y22416D01*
Y21249D01*
X423249Y20666D01*
X421500D01*
X424999Y22999D02*
Y19500D01*
X426165Y20666D01*
X427331Y19500D01*
Y22999D01*
X428498Y19500D02*
Y22999D01*
X430247D01*
X430830Y22416D01*
Y21249D01*
X430247Y20666D01*
X428498D01*
X429664D02*
X430830Y19500D01*
X434329D02*
X431997D01*
X434329Y21833D01*
Y22416D01*
X433746Y22999D01*
X432580D01*
X431997Y22416D01*
X319000Y180000D02*
X322499D01*
Y178251D01*
X321916Y177667D01*
X320749D01*
X320166Y178251D01*
Y180000D01*
Y178834D02*
X319000Y177667D01*
X321916Y176501D02*
X322499Y175918D01*
Y174752D01*
X321916Y174169D01*
X321333D01*
X320749Y174752D01*
Y175335D01*
Y174752D01*
X320166Y174169D01*
X319583D01*
X319000Y174752D01*
Y175918D01*
X319583Y176501D01*
X319000Y170670D02*
Y173002D01*
X321333Y170670D01*
X321916D01*
X322499Y171253D01*
Y172419D01*
X321916Y173002D01*
X318500Y160000D02*
X321999D01*
Y158251D01*
X321416Y157667D01*
X320249D01*
X319666Y158251D01*
Y160000D01*
Y158834D02*
X318500Y157667D01*
X321416Y156501D02*
X321999Y155918D01*
Y154752D01*
X321416Y154169D01*
X320833D01*
X320249Y154752D01*
Y155335D01*
Y154752D01*
X319666Y154169D01*
X319083D01*
X318500Y154752D01*
Y155918D01*
X319083Y156501D01*
X321416Y153002D02*
X321999Y152419D01*
Y151253D01*
X321416Y150670D01*
X320833D01*
X320249Y151253D01*
Y151836D01*
Y151253D01*
X319666Y150670D01*
X319083D01*
X318500Y151253D01*
Y152419D01*
X319083Y153002D01*
X319000Y195500D02*
X322499D01*
Y193751D01*
X321916Y193167D01*
X320749D01*
X320166Y193751D01*
Y195500D01*
Y194334D02*
X319000Y193167D01*
X321916Y192001D02*
X322499Y191418D01*
Y190252D01*
X321916Y189669D01*
X321333D01*
X320749Y190252D01*
Y190835D01*
Y190252D01*
X320166Y189669D01*
X319583D01*
X319000Y190252D01*
Y191418D01*
X319583Y192001D01*
X319000Y186753D02*
X322499D01*
X320749Y188502D01*
Y186170D01*
X319000Y214000D02*
X322499D01*
Y212251D01*
X321916Y211667D01*
X320749D01*
X320166Y212251D01*
Y214000D01*
Y212834D02*
X319000Y211667D01*
X321916Y210501D02*
X322499Y209918D01*
Y208752D01*
X321916Y208169D01*
X321333D01*
X320749Y208752D01*
Y209335D01*
Y208752D01*
X320166Y208169D01*
X319583D01*
X319000Y208752D01*
Y209918D01*
X319583Y210501D01*
X322499Y204670D02*
Y207002D01*
X320749D01*
X321333Y205836D01*
Y205253D01*
X320749Y204670D01*
X319583D01*
X319000Y205253D01*
Y206419D01*
X319583Y207002D01*
X472500Y277000D02*
X475999D01*
Y275251D01*
X475416Y274667D01*
X474249D01*
X473666Y275251D01*
Y277000D01*
Y275834D02*
X472500Y274667D01*
X475416Y273501D02*
X475999Y272918D01*
Y271752D01*
X475416Y271169D01*
X474833D01*
X474249Y271752D01*
Y272335D01*
Y271752D01*
X473666Y271169D01*
X473083D01*
X472500Y271752D01*
Y272918D01*
X473083Y273501D01*
X475999Y267670D02*
X475416Y268836D01*
X474249Y270002D01*
X473083D01*
X472500Y269419D01*
Y268253D01*
X473083Y267670D01*
X473666D01*
X474249Y268253D01*
Y270002D01*
X471917Y266503D02*
Y264171D01*
X475999Y260672D02*
Y263004D01*
X474249D01*
Y261838D01*
Y263004D01*
X472500D01*
X475999Y257173D02*
Y259506D01*
X472500D01*
Y257173D01*
X474249Y259506D02*
Y258339D01*
X475999Y256007D02*
Y253674D01*
Y254840D01*
X472500D01*
Y252508D02*
Y251342D01*
Y251925D01*
X475999D01*
X475416Y252508D01*
X141500Y95499D02*
Y92583D01*
X142083Y92000D01*
X143249D01*
X143833Y92583D01*
Y95499D01*
X147331D02*
X146165Y94916D01*
X144999Y93749D01*
Y92583D01*
X145582Y92000D01*
X146748D01*
X147331Y92583D01*
Y93166D01*
X146748Y93749D01*
X144999D01*
X316333Y112416D02*
X315749Y112999D01*
X314583D01*
X314000Y112416D01*
Y110083D01*
X314583Y109500D01*
X315749D01*
X316333Y110083D01*
X317499Y109500D02*
X318665D01*
X318082D01*
Y112999D01*
X317499Y112416D01*
X320415D02*
X320998Y112999D01*
X322164D01*
X322747Y112416D01*
Y110083D01*
X322164Y109500D01*
X320998D01*
X320415Y110083D01*
Y112416D01*
X287333Y138916D02*
X286749Y139499D01*
X285583D01*
X285000Y138916D01*
Y136583D01*
X285583Y136000D01*
X286749D01*
X287333Y136583D01*
X288499Y136000D02*
X289665D01*
X289082D01*
Y139499D01*
X288499Y138916D01*
X293747Y139499D02*
X291415D01*
Y137749D01*
X292581Y138333D01*
X293164D01*
X293747Y137749D01*
Y136583D01*
X293164Y136000D01*
X291998D01*
X291415Y136583D01*
X326500Y136000D02*
X329999D01*
Y134251D01*
X329416Y133667D01*
X328249D01*
X327666Y134251D01*
Y136000D01*
Y134834D02*
X326500Y133667D01*
X329416Y132501D02*
X329999Y131918D01*
Y130752D01*
X329416Y130169D01*
X328833D01*
X328249Y130752D01*
Y131335D01*
Y130752D01*
X327666Y130169D01*
X327083D01*
X326500Y130752D01*
Y131918D01*
X327083Y132501D01*
X329999Y129002D02*
Y126670D01*
X329416D01*
X327083Y129002D01*
X326500D01*
X321500Y136000D02*
X324999D01*
Y134251D01*
X324416Y133667D01*
X323249D01*
X322666Y134251D01*
Y136000D01*
Y134834D02*
X321500Y133667D01*
X324416Y132501D02*
X324999Y131918D01*
Y130752D01*
X324416Y130169D01*
X323833D01*
X323249Y130752D01*
Y131335D01*
Y130752D01*
X322666Y130169D01*
X322083D01*
X321500Y130752D01*
Y131918D01*
X322083Y132501D01*
X324416Y129002D02*
X324999Y128419D01*
Y127253D01*
X324416Y126670D01*
X323833D01*
X323249Y127253D01*
X322666Y126670D01*
X322083D01*
X321500Y127253D01*
Y128419D01*
X322083Y129002D01*
X322666D01*
X323249Y128419D01*
X323833Y129002D01*
X324416D01*
X323249Y128419D02*
Y127253D01*
X290500Y123499D02*
Y120583D01*
X291083Y120000D01*
X292249D01*
X292833Y120583D01*
Y123499D01*
X293999Y120583D02*
X294582Y120000D01*
X295748D01*
X296331Y120583D01*
Y122916D01*
X295748Y123499D01*
X294582D01*
X293999Y122916D01*
Y122333D01*
X294582Y121749D01*
X296331D01*
X375333Y217499D02*
X373000D01*
Y215749D01*
X374166D01*
X373000D01*
Y214000D01*
X378831Y217499D02*
X376499D01*
Y214000D01*
X378831D01*
X376499Y215749D02*
X377665D01*
X379998Y217499D02*
X382330D01*
X381164D01*
Y214000D01*
X385829D02*
X383497D01*
X385829Y216333D01*
Y216916D01*
X385246Y217499D01*
X384080D01*
X383497Y216916D01*
X465333Y172999D02*
X463000D01*
Y171249D01*
X464166D01*
X463000D01*
Y169500D01*
X468831Y172999D02*
X466499D01*
Y169500D01*
X468831D01*
X466499Y171249D02*
X467665D01*
X469998Y172999D02*
X472330D01*
X471164D01*
Y169500D01*
X473497Y172416D02*
X474080Y172999D01*
X475246D01*
X475829Y172416D01*
Y171833D01*
X475246Y171249D01*
X474663D01*
X475246D01*
X475829Y170666D01*
Y170083D01*
X475246Y169500D01*
X474080D01*
X473497Y170083D01*
X375333Y172999D02*
X373000D01*
Y171249D01*
X374166D01*
X373000D01*
Y169500D01*
X378831Y172999D02*
X376499D01*
Y169500D01*
X378831D01*
X376499Y171249D02*
X377665D01*
X379998Y172999D02*
X382330D01*
X381164D01*
Y169500D01*
X385246D02*
Y172999D01*
X383497Y171249D01*
X385829D01*
X465333Y128499D02*
X463000D01*
Y126749D01*
X464166D01*
X463000D01*
Y125000D01*
X468831Y128499D02*
X466499D01*
Y125000D01*
X468831D01*
X466499Y126749D02*
X467665D01*
X469998Y128499D02*
X472330D01*
X471164D01*
Y125000D01*
X475829Y128499D02*
X473497D01*
Y126749D01*
X474663Y127333D01*
X475246D01*
X475829Y126749D01*
Y125583D01*
X475246Y125000D01*
X474080D01*
X473497Y125583D01*
X375333Y127999D02*
X373000D01*
Y126249D01*
X374166D01*
X373000D01*
Y124500D01*
X378831Y127999D02*
X376499D01*
Y124500D01*
X378831D01*
X376499Y126249D02*
X377665D01*
X379998Y127999D02*
X382330D01*
X381164D01*
Y124500D01*
X385829Y127999D02*
X384663Y127416D01*
X383497Y126249D01*
Y125083D01*
X384080Y124500D01*
X385246D01*
X385829Y125083D01*
Y125666D01*
X385246Y126249D01*
X383497D01*
X465333Y83499D02*
X463000D01*
Y81749D01*
X464166D01*
X463000D01*
Y80000D01*
X468831Y83499D02*
X466499D01*
Y80000D01*
X468831D01*
X466499Y81749D02*
X467665D01*
X469998Y83499D02*
X472330D01*
X471164D01*
Y80000D01*
X473497Y83499D02*
X475829D01*
Y82916D01*
X473497Y80583D01*
Y80000D01*
X375333Y82999D02*
X373000D01*
Y81249D01*
X374166D01*
X373000D01*
Y79500D01*
X378831Y82999D02*
X376499D01*
Y79500D01*
X378831D01*
X376499Y81249D02*
X377665D01*
X379998Y82999D02*
X382330D01*
X381164D01*
Y79500D01*
X383497Y82416D02*
X384080Y82999D01*
X385246D01*
X385829Y82416D01*
Y81833D01*
X385246Y81249D01*
X385829Y80666D01*
Y80083D01*
X385246Y79500D01*
X384080D01*
X383497Y80083D01*
Y80666D01*
X384080Y81249D01*
X383497Y81833D01*
Y82416D01*
X384080Y81249D02*
X385246D01*
X465333Y37999D02*
X463000D01*
Y36249D01*
X464166D01*
X463000D01*
Y34500D01*
X468831Y37999D02*
X466499D01*
Y34500D01*
X468831D01*
X466499Y36249D02*
X467665D01*
X469998Y37999D02*
X472330D01*
X471164D01*
Y34500D01*
X473497Y35083D02*
X474080Y34500D01*
X475246D01*
X475829Y35083D01*
Y37416D01*
X475246Y37999D01*
X474080D01*
X473497Y37416D01*
Y36833D01*
X474080Y36249D01*
X475829D01*
X374333Y38499D02*
X372000D01*
Y36749D01*
X373166D01*
X372000D01*
Y35000D01*
X377831Y38499D02*
X375499D01*
Y35000D01*
X377831D01*
X375499Y36749D02*
X376665D01*
X378998Y38499D02*
X381330D01*
X380164D01*
Y35000D01*
X382497D02*
X383663D01*
X383080D01*
Y38499D01*
X382497Y37916D01*
X385412D02*
X385996Y38499D01*
X387162D01*
X387745Y37916D01*
Y35583D01*
X387162Y35000D01*
X385996D01*
X385412Y35583D01*
Y37916D01*
X272000Y26599D02*
X274333D01*
X273166D01*
Y23100D01*
X275499D02*
Y26599D01*
X277248D01*
X277831Y26016D01*
Y24849D01*
X277248Y24266D01*
X275499D01*
X278998Y23100D02*
X280164D01*
X279581D01*
Y26599D01*
X278998Y26016D01*
X256800Y26599D02*
X259133D01*
X257966D01*
Y23100D01*
X260299D02*
Y26599D01*
X262048D01*
X262631Y26016D01*
Y24849D01*
X262048Y24266D01*
X260299D01*
X266130Y23100D02*
X263798D01*
X266130Y25433D01*
Y26016D01*
X265547Y26599D01*
X264381D01*
X263798Y26016D01*
X241600Y26599D02*
X243933D01*
X242766D01*
Y23100D01*
X245099D02*
Y26599D01*
X246848D01*
X247431Y26016D01*
Y24849D01*
X246848Y24266D01*
X245099D01*
X248598Y26016D02*
X249181Y26599D01*
X250347D01*
X250930Y26016D01*
Y25433D01*
X250347Y24849D01*
X249764D01*
X250347D01*
X250930Y24266D01*
Y23683D01*
X250347Y23100D01*
X249181D01*
X248598Y23683D01*
X287300Y26599D02*
X289633D01*
X288466D01*
Y23100D01*
X290799D02*
Y26599D01*
X292548D01*
X293131Y26016D01*
Y24849D01*
X292548Y24266D01*
X290799D01*
X296047Y23100D02*
Y26599D01*
X294298Y24849D01*
X296630D01*
X7000Y87649D02*
X9333D01*
X8166D01*
Y84150D01*
X10499D02*
Y87649D01*
X12248D01*
X12832Y87066D01*
Y85899D01*
X12248Y85316D01*
X10499D01*
X16330Y87649D02*
X13998D01*
Y85899D01*
X15164Y86483D01*
X15747D01*
X16330Y85899D01*
Y84733D01*
X15747Y84150D01*
X14581D01*
X13998Y84733D01*
X22500Y87749D02*
X24833D01*
X23666D01*
Y84250D01*
X25999D02*
Y87749D01*
X27748D01*
X28332Y87166D01*
Y85999D01*
X27748Y85416D01*
X25999D01*
X31830Y87749D02*
X30664Y87166D01*
X29498Y85999D01*
Y84833D01*
X30081Y84250D01*
X31247D01*
X31830Y84833D01*
Y85416D01*
X31247Y85999D01*
X29498D01*
X8000Y106999D02*
X10333D01*
X9166D01*
Y103500D01*
X11499D02*
Y106999D01*
X13248D01*
X13832Y106416D01*
Y105249D01*
X13248Y104666D01*
X11499D01*
X14998Y106999D02*
X17330D01*
Y106416D01*
X14998Y104083D01*
Y103500D01*
X180600Y26599D02*
X182933D01*
X181766D01*
Y23100D01*
X184099D02*
Y26599D01*
X185848D01*
X186431Y26016D01*
Y24849D01*
X185848Y24266D01*
X184099D01*
X187598Y26016D02*
X188181Y26599D01*
X189347D01*
X189930Y26016D01*
Y25433D01*
X189347Y24849D01*
X189930Y24266D01*
Y23683D01*
X189347Y23100D01*
X188181D01*
X187598Y23683D01*
Y24266D01*
X188181Y24849D01*
X187598Y25433D01*
Y26016D01*
X188181Y24849D02*
X189347D01*
X6600Y252799D02*
X8933D01*
X7766D01*
Y249300D01*
X10099D02*
Y252799D01*
X11848D01*
X12431Y252216D01*
Y251049D01*
X11848Y250466D01*
X10099D01*
X13598Y249883D02*
X14181Y249300D01*
X15347D01*
X15930Y249883D01*
Y252216D01*
X15347Y252799D01*
X14181D01*
X13598Y252216D01*
Y251633D01*
X14181Y251049D01*
X15930D01*
X165300Y26599D02*
X167633D01*
X166466D01*
Y23100D01*
X168799D02*
Y26599D01*
X170548D01*
X171131Y26016D01*
Y24849D01*
X170548Y24266D01*
X168799D01*
X172298Y23100D02*
X173464D01*
X172881D01*
Y26599D01*
X172298Y26016D01*
X175214D02*
X175797Y26599D01*
X176963D01*
X177546Y26016D01*
Y23683D01*
X176963Y23100D01*
X175797D01*
X175214Y23683D01*
Y26016D01*
X22000Y68999D02*
X24333D01*
X23166D01*
Y65500D01*
X25499D02*
Y68999D01*
X27248D01*
X27832Y68416D01*
Y67249D01*
X27248Y66666D01*
X25499D01*
X28998Y65500D02*
X30164D01*
X29581D01*
Y68999D01*
X28998Y68416D01*
X31914Y65500D02*
X33080D01*
X32497D01*
Y68999D01*
X31914Y68416D01*
X211050Y26599D02*
X213383D01*
X212216D01*
Y23100D01*
X214549D02*
Y26599D01*
X216298D01*
X216881Y26016D01*
Y24849D01*
X216298Y24266D01*
X214549D01*
X218048Y23100D02*
X219214D01*
X218631D01*
Y26599D01*
X218048Y26016D01*
X223296Y23100D02*
X220964D01*
X223296Y25433D01*
Y26016D01*
X222713Y26599D01*
X221547D01*
X220964Y26016D01*
X6000Y68999D02*
X8333D01*
X7166D01*
Y65500D01*
X9499D02*
Y68999D01*
X11248D01*
X11831Y68416D01*
Y67249D01*
X11248Y66666D01*
X9499D01*
X12998Y65500D02*
X14164D01*
X13581D01*
Y68999D01*
X12998Y68416D01*
X15913D02*
X16497Y68999D01*
X17663D01*
X18246Y68416D01*
Y67833D01*
X17663Y67249D01*
X17080D01*
X17663D01*
X18246Y66666D01*
Y66083D01*
X17663Y65500D01*
X16497D01*
X15913Y66083D01*
X226250Y26599D02*
X228583D01*
X227416D01*
Y23100D01*
X229749D02*
Y26599D01*
X231498D01*
X232081Y26016D01*
Y24849D01*
X231498Y24266D01*
X229749D01*
X233248Y23100D02*
X234414D01*
X233831D01*
Y26599D01*
X233248Y26016D01*
X237913Y23100D02*
Y26599D01*
X236163Y24849D01*
X238496D01*
X242000Y100999D02*
X244333D01*
X243166D01*
Y97500D01*
X245499D02*
Y100999D01*
X247248D01*
X247831Y100416D01*
Y99249D01*
X247248Y98666D01*
X245499D01*
X248998Y97500D02*
X250164D01*
X249581D01*
Y100999D01*
X248998Y100416D01*
X254246Y100999D02*
X251913D01*
Y99249D01*
X253080Y99833D01*
X253663D01*
X254246Y99249D01*
Y98083D01*
X253663Y97500D01*
X252497D01*
X251913Y98083D01*
X195800Y26599D02*
X198133D01*
X196966D01*
Y23100D01*
X199299D02*
Y26599D01*
X201048D01*
X201631Y26016D01*
Y24849D01*
X201048Y24266D01*
X199299D01*
X202798Y23100D02*
X203964D01*
X203381D01*
Y26599D01*
X202798Y26016D01*
X208046Y26599D02*
X206880Y26016D01*
X205714Y24849D01*
Y23683D01*
X206297Y23100D01*
X207463D01*
X208046Y23683D01*
Y24266D01*
X207463Y24849D01*
X205714D01*
X100000Y194999D02*
X102333D01*
X101166D01*
Y191500D01*
X103499D02*
Y194999D01*
X105248D01*
X105831Y194416D01*
Y193249D01*
X105248Y192666D01*
X103499D01*
X106998Y191500D02*
X108164D01*
X107581D01*
Y194999D01*
X106998Y194416D01*
X109914Y194999D02*
X112246D01*
Y194416D01*
X109914Y192083D01*
Y191500D01*
X22000Y106999D02*
X24333D01*
X23166D01*
Y103500D01*
X25499D02*
Y106999D01*
X27248D01*
X27832Y106416D01*
Y105249D01*
X27248Y104666D01*
X25499D01*
X28998Y103500D02*
X30164D01*
X29581D01*
Y106999D01*
X28998Y106416D01*
X31914D02*
X32497Y106999D01*
X33663D01*
X34246Y106416D01*
Y105833D01*
X33663Y105249D01*
X34246Y104666D01*
Y104083D01*
X33663Y103500D01*
X32497D01*
X31914Y104083D01*
Y104666D01*
X32497Y105249D01*
X31914Y105833D01*
Y106416D01*
X32497Y105249D02*
X33663D01*
X311000Y51999D02*
X313333D01*
X312166D01*
Y48500D01*
X314499D02*
Y51999D01*
X316248D01*
X316831Y51416D01*
Y50249D01*
X316248Y49666D01*
X314499D01*
X317998Y48500D02*
X319164D01*
X318581D01*
Y51999D01*
X317998Y51416D01*
X320914Y49083D02*
X321497Y48500D01*
X322663D01*
X323246Y49083D01*
Y51416D01*
X322663Y51999D01*
X321497D01*
X320914Y51416D01*
Y50833D01*
X321497Y50249D01*
X323246D01*
X356000Y264499D02*
X358333D01*
X357166D01*
Y261000D01*
X359499D02*
Y264499D01*
X361248D01*
X361831Y263916D01*
Y262749D01*
X361248Y262166D01*
X359499D01*
X365330Y261000D02*
X362998D01*
X365330Y263333D01*
Y263916D01*
X364747Y264499D01*
X363581D01*
X362998Y263916D01*
X366497D02*
X367080Y264499D01*
X368246D01*
X368829Y263916D01*
Y263333D01*
X368246Y262749D01*
X367663D01*
X368246D01*
X368829Y262166D01*
Y261583D01*
X368246Y261000D01*
X367080D01*
X366497Y261583D01*
X371600Y27299D02*
X373933D01*
X372766D01*
Y23800D01*
X375099D02*
Y27299D01*
X376848D01*
X377431Y26716D01*
Y25549D01*
X376848Y24966D01*
X375099D01*
X380930Y23800D02*
X378598D01*
X380930Y26133D01*
Y26716D01*
X380347Y27299D01*
X379181D01*
X378598Y26716D01*
X383846Y23800D02*
Y27299D01*
X382097Y25549D01*
X384429D01*
X27100Y252799D02*
X29433D01*
X28266D01*
Y249300D01*
X30599D02*
Y252799D01*
X32348D01*
X32932Y252216D01*
Y251049D01*
X32348Y250466D01*
X30599D01*
X36430Y249300D02*
X34098D01*
X36430Y251633D01*
Y252216D01*
X35847Y252799D01*
X34681D01*
X34098Y252216D01*
X39929Y252799D02*
X37597D01*
Y251049D01*
X38763Y251633D01*
X39346D01*
X39929Y251049D01*
Y249883D01*
X39346Y249300D01*
X38180D01*
X37597Y249883D01*
X355100Y27299D02*
X357433D01*
X356266D01*
Y23800D01*
X358599D02*
Y27299D01*
X360348D01*
X360931Y26716D01*
Y25549D01*
X360348Y24966D01*
X358599D01*
X364430Y23800D02*
X362098D01*
X364430Y26133D01*
Y26716D01*
X363847Y27299D01*
X362681D01*
X362098Y26716D01*
X367929Y27299D02*
X366763Y26716D01*
X365597Y25549D01*
Y24383D01*
X366180Y23800D01*
X367346D01*
X367929Y24383D01*
Y24966D01*
X367346Y25549D01*
X365597D01*
X335000Y264499D02*
X337333D01*
X336166D01*
Y261000D01*
X338499D02*
Y264499D01*
X340248D01*
X340831Y263916D01*
Y262749D01*
X340248Y262166D01*
X338499D01*
X344330Y261000D02*
X341998D01*
X344330Y263333D01*
Y263916D01*
X343747Y264499D01*
X342581D01*
X341998Y263916D01*
X345497Y264499D02*
X347829D01*
Y263916D01*
X345497Y261583D01*
Y261000D01*
X466300Y29599D02*
X468633D01*
X467466D01*
Y26100D01*
X469799D02*
Y29599D01*
X471548D01*
X472131Y29016D01*
Y27849D01*
X471548Y27266D01*
X469799D01*
X475630Y26100D02*
X473298D01*
X475630Y28433D01*
Y29016D01*
X475047Y29599D01*
X473881D01*
X473298Y29016D01*
X476797D02*
X477380Y29599D01*
X478546D01*
X479129Y29016D01*
Y28433D01*
X478546Y27849D01*
X479129Y27266D01*
Y26683D01*
X478546Y26100D01*
X477380D01*
X476797Y26683D01*
Y27266D01*
X477380Y27849D01*
X476797Y28433D01*
Y29016D01*
X477380Y27849D02*
X478546D01*
X331500Y240500D02*
X332833D01*
X332166D01*
Y244499D01*
X331500Y243832D01*
X338000Y246999D02*
Y243000D01*
X339999D01*
X340666Y243666D01*
Y244333D01*
X339999Y244999D01*
X338000D01*
X339999D01*
X340666Y245666D01*
Y246332D01*
X339999Y246999D01*
X338000D01*
X348166Y240500D02*
X345500D01*
X348166Y243166D01*
Y243832D01*
X347499Y244499D01*
X346166D01*
X345500Y243832D01*
X297500Y97000D02*
X298833D01*
X298166D01*
Y100999D01*
X297500Y100332D01*
X304000Y103499D02*
Y99500D01*
X305999D01*
X306666Y100166D01*
Y100833D01*
X305999Y101499D01*
X304000D01*
X305999D01*
X306666Y102166D01*
Y102832D01*
X305999Y103499D01*
X304000D01*
X314166Y97000D02*
X311500D01*
X314166Y99666D01*
Y100332D01*
X313499Y100999D01*
X312166D01*
X311500Y100332D01*
X438166Y240500D02*
X435500D01*
X438166Y243166D01*
Y243832D01*
X437499Y244499D01*
X436166D01*
X435500Y243832D01*
X428000Y246999D02*
Y243000D01*
X429999D01*
X430666Y243666D01*
Y244333D01*
X429999Y244999D01*
X428000D01*
X429999D01*
X430666Y245666D01*
Y246332D01*
X429999Y246999D01*
X428000D01*
X421500Y240500D02*
X422833D01*
X422166D01*
Y244499D01*
X421500Y243832D01*
X438166Y195500D02*
X435500D01*
X438166Y198166D01*
Y198832D01*
X437499Y199499D01*
X436166D01*
X435500Y198832D01*
X428000Y201999D02*
Y198000D01*
X429999D01*
X430666Y198667D01*
Y199333D01*
X429999Y199999D01*
X428000D01*
X429999D01*
X430666Y200666D01*
Y201332D01*
X429999Y201999D01*
X428000D01*
X421500Y195500D02*
X422833D01*
X422166D01*
Y199499D01*
X421500Y198832D01*
X331500Y195500D02*
X332833D01*
X332166D01*
Y199499D01*
X331500Y198832D01*
X338000Y201999D02*
Y198000D01*
X339999D01*
X340666Y198667D01*
Y199333D01*
X339999Y199999D01*
X338000D01*
X339999D01*
X340666Y200666D01*
Y201332D01*
X339999Y201999D01*
X338000D01*
X348166Y195500D02*
X345500D01*
X348166Y198166D01*
Y198832D01*
X347499Y199499D01*
X346166D01*
X345500Y198832D01*
X438166Y150500D02*
X435500D01*
X438166Y153166D01*
Y153832D01*
X437499Y154499D01*
X436166D01*
X435500Y153832D01*
X428000Y156999D02*
Y153000D01*
X429999D01*
X430666Y153666D01*
Y154333D01*
X429999Y154999D01*
X428000D01*
X429999D01*
X430666Y155666D01*
Y156332D01*
X429999Y156999D01*
X428000D01*
X421500Y150500D02*
X422833D01*
X422166D01*
Y154499D01*
X421500Y153832D01*
X331500Y150500D02*
X332833D01*
X332166D01*
Y154499D01*
X331500Y153832D01*
X338000Y156999D02*
Y153000D01*
X339999D01*
X340666Y153666D01*
Y154333D01*
X339999Y154999D01*
X338000D01*
X339999D01*
X340666Y155666D01*
Y156332D01*
X339999Y156999D01*
X338000D01*
X348166Y150500D02*
X345500D01*
X348166Y153166D01*
Y153832D01*
X347499Y154499D01*
X346166D01*
X345500Y153832D01*
X438166Y105500D02*
X435500D01*
X438166Y108166D01*
Y108832D01*
X437499Y109499D01*
X436166D01*
X435500Y108832D01*
X428000Y111999D02*
Y108000D01*
X429999D01*
X430666Y108667D01*
Y109333D01*
X429999Y109999D01*
X428000D01*
X429999D01*
X430666Y110666D01*
Y111332D01*
X429999Y111999D01*
X428000D01*
X421500Y105500D02*
X422833D01*
X422166D01*
Y109499D01*
X421500Y108832D01*
X438166Y60500D02*
X435500D01*
X438166Y63166D01*
Y63832D01*
X437499Y64499D01*
X436166D01*
X435500Y63832D01*
X428000Y66999D02*
Y63000D01*
X429999D01*
X430666Y63666D01*
Y64333D01*
X429999Y64999D01*
X428000D01*
X429999D01*
X430666Y65666D01*
Y66332D01*
X429999Y66999D01*
X428000D01*
X421500Y60500D02*
X422833D01*
X422166D01*
Y64499D01*
X421500Y63832D01*
X331500Y60500D02*
X332833D01*
X332166D01*
Y64499D01*
X331500Y63832D01*
X338000Y66999D02*
Y63000D01*
X339999D01*
X340666Y63666D01*
Y64333D01*
X339999Y64999D01*
X338000D01*
X339999D01*
X340666Y65666D01*
Y66332D01*
X339999Y66999D01*
X338000D01*
X348166Y60500D02*
X345500D01*
X348166Y63166D01*
Y63832D01*
X347499Y64499D01*
X346166D01*
X345500Y63832D01*
X331500Y105500D02*
X332833D01*
X332166D01*
Y109499D01*
X331500Y108832D01*
X338000Y111999D02*
Y108000D01*
X339999D01*
X340666Y108667D01*
Y109333D01*
X339999Y109999D01*
X338000D01*
X339999D01*
X340666Y110666D01*
Y111332D01*
X339999Y111999D01*
X338000D01*
X348166Y105500D02*
X345500D01*
X348166Y108166D01*
Y108832D01*
X347499Y109499D01*
X346166D01*
X345500Y108832D01*
X281000Y158499D02*
Y156166D01*
X282166Y155000D01*
X283333Y156166D01*
Y158499D01*
X284499D02*
Y155000D01*
X286248D01*
X286831Y155583D01*
Y156166D01*
X286248Y156749D01*
X284499D01*
X286248D01*
X286831Y157333D01*
Y157916D01*
X286248Y158499D01*
X284499D01*
X288581Y157333D02*
X289747D01*
X290330Y156749D01*
Y155000D01*
X288581D01*
X287998Y155583D01*
X288581Y156166D01*
X290330D01*
X292080Y157916D02*
Y157333D01*
X291497D01*
X292663D01*
X292080D01*
Y155583D01*
X292663Y155000D01*
X282000Y171500D02*
Y174999D01*
X283749D01*
X284333Y174416D01*
Y173249D01*
X283749Y172666D01*
X282000D01*
X285499Y174999D02*
Y171500D01*
X286665Y172666D01*
X287831Y171500D01*
Y174999D01*
X288998Y171500D02*
Y174999D01*
X290747D01*
X291330Y174416D01*
Y173249D01*
X290747Y172666D01*
X288998D01*
X290164D02*
X291330Y171500D01*
X292497D02*
X293663D01*
X293080D01*
Y174999D01*
X292497Y174416D01*
X281500Y190000D02*
Y193499D01*
X283249D01*
X283833Y192916D01*
Y191749D01*
X283249Y191166D01*
X281500D01*
X284999Y193499D02*
Y190000D01*
X286165Y191166D01*
X287331Y190000D01*
Y193499D01*
X288498Y190000D02*
Y193499D01*
X290247D01*
X290830Y192916D01*
Y191749D01*
X290247Y191166D01*
X288498D01*
X289664D02*
X290830Y190000D01*
X294329D02*
X291997D01*
X294329Y192333D01*
Y192916D01*
X293746Y193499D01*
X292580D01*
X291997Y192916D01*
X287333Y210499D02*
X285000D01*
Y208749D01*
X286166Y209333D01*
X286749D01*
X287333Y208749D01*
Y207583D01*
X286749Y207000D01*
X285583D01*
X285000Y207583D01*
X288499Y210499D02*
Y208166D01*
X289665Y207000D01*
X290831Y208166D01*
Y210499D01*
X142500Y243000D02*
Y246999D01*
X145166Y243000D01*
Y246999D01*
X147165Y243000D02*
X148498D01*
X149164Y243666D01*
Y244999D01*
X148498Y245666D01*
X147165D01*
X146499Y244999D01*
Y243666D01*
X147165Y243000D01*
X155163D02*
X156495D01*
X157162Y243666D01*
Y244999D01*
X156495Y245666D01*
X155163D01*
X154496Y244999D01*
Y243666D01*
X155163Y243000D01*
X158495D02*
Y245666D01*
X160494D01*
X161161Y244999D01*
Y243000D01*
X164493D02*
X163160D01*
X162494Y243666D01*
Y244999D01*
X163160Y245666D01*
X164493D01*
X165159Y244999D01*
Y244333D01*
X162494D01*
X173157Y246999D02*
Y243000D01*
X171157D01*
X170491Y243666D01*
Y244999D01*
X171157Y245666D01*
X173157D01*
X175156D02*
X176489D01*
X177155Y244999D01*
Y243000D01*
X175156D01*
X174490Y243666D01*
X175156Y244333D01*
X177155D01*
X178488Y243000D02*
Y245666D01*
X180488D01*
X181154Y244999D01*
Y243000D01*
X185153Y245666D02*
X183153D01*
X182487Y244999D01*
Y243666D01*
X183153Y243000D01*
X185153D01*
X188485D02*
X187152D01*
X186486Y243666D01*
Y244999D01*
X187152Y245666D01*
X188485D01*
X189152Y244999D01*
Y244333D01*
X186486D01*
X190484Y243000D02*
X192484D01*
X193150Y243666D01*
X192484Y244333D01*
X191151D01*
X190484Y244999D01*
X191151Y245666D01*
X193150D01*
X198482Y243000D02*
X200481D01*
X201148Y243666D01*
X200481Y244333D01*
X199148D01*
X198482Y244999D01*
X199148Y245666D01*
X201148D01*
X203147Y243000D02*
X204480D01*
X205147Y243666D01*
Y244999D01*
X204480Y245666D01*
X203147D01*
X202481Y244999D01*
Y243666D01*
X203147Y243000D01*
X206479Y246999D02*
Y243000D01*
X208479D01*
X209145Y243666D01*
Y244333D01*
Y244999D01*
X208479Y245666D01*
X206479D01*
X212477Y243000D02*
X211144D01*
X210478Y243666D01*
Y244999D01*
X211144Y245666D01*
X212477D01*
X213144Y244999D01*
Y244333D01*
X210478D01*
X214477Y245666D02*
Y243000D01*
Y244333D01*
X215143Y244999D01*
X215810Y245666D01*
X216476D01*
X219142Y242334D02*
X219808Y243000D01*
Y243666D01*
X219142D01*
Y243000D01*
X219808D01*
X219142Y242334D01*
X218476Y241667D01*
X226473Y245666D02*
Y243666D01*
X227139Y243000D01*
X229139D01*
Y245666D01*
X230472Y243000D02*
Y245666D01*
X232471D01*
X233137Y244999D01*
Y243000D01*
X234470D02*
X235803D01*
X235137D01*
Y246999D01*
X234470D01*
X239802Y243000D02*
X238469D01*
X237803Y243666D01*
Y244999D01*
X238469Y245666D01*
X239802D01*
X240468Y244999D01*
Y244333D01*
X237803D01*
X241801Y243000D02*
X243801D01*
X244467Y243666D01*
X243801Y244333D01*
X242468D01*
X241801Y244999D01*
X242468Y245666D01*
X244467D01*
X245800Y243000D02*
X247799D01*
X248466Y243666D01*
X247799Y244333D01*
X246466D01*
X245800Y244999D01*
X246466Y245666D01*
X248466D01*
X253797Y246999D02*
Y243000D01*
Y244999D01*
X254464Y245666D01*
X255797D01*
X256463Y244999D01*
Y243000D01*
X259795D02*
X258463D01*
X257796Y243666D01*
Y244999D01*
X258463Y245666D01*
X259795D01*
X260462Y244999D01*
Y244333D01*
X257796D01*
X265794Y243000D02*
X267126D01*
X266460D01*
Y245666D01*
X265794D01*
X269126Y243000D02*
X271125D01*
X271792Y243666D01*
X271125Y244333D01*
X269792D01*
X269126Y244999D01*
X269792Y245666D01*
X271792D01*
X277123Y243000D02*
X278456D01*
X277790D01*
Y245666D01*
X277123D01*
X280455Y243000D02*
Y245666D01*
X282455D01*
X283121Y244999D01*
Y243000D01*
X284454D02*
X286454D01*
X287120Y243666D01*
X286454Y244333D01*
X285121D01*
X284454Y244999D01*
X285121Y245666D01*
X287120D01*
X289119D02*
X290452D01*
X291119Y244999D01*
Y243000D01*
X289119D01*
X288453Y243666D01*
X289119Y244333D01*
X291119D01*
X292452Y243000D02*
Y245666D01*
X294451D01*
X295117Y244999D01*
Y243000D01*
X298450D02*
X297117D01*
X296450Y243666D01*
Y244999D01*
X297117Y245666D01*
X298450D01*
X299116Y244999D01*
Y244333D01*
X296450D01*
X300449Y243000D02*
Y243666D01*
X301115D01*
Y243000D01*
X300449D01*
M02*
