G04 Layer_Color=8388736*
%FSLAX25Y25*%
%MOIN*%
G70*
G01*
G75*
%ADD30C,0.00100*%
%ADD67R,0.03162X0.02768*%
%ADD68R,0.03162X0.08556*%
%ADD69R,0.08556X0.03162*%
%ADD70R,0.09800X0.09300*%
G04:AMPARAMS|DCode=71|XSize=82.8mil|YSize=31.62mil|CornerRadius=6.95mil|HoleSize=0mil|Usage=FLASHONLY|Rotation=90.000|XOffset=0mil|YOffset=0mil|HoleType=Round|Shape=RoundedRectangle|*
%AMROUNDEDRECTD71*
21,1,0.08280,0.01772,0,0,90.0*
21,1,0.06890,0.03162,0,0,90.0*
1,1,0.01391,0.00886,0.03445*
1,1,0.01391,0.00886,-0.03445*
1,1,0.01391,-0.00886,-0.03445*
1,1,0.01391,-0.00886,0.03445*
%
%ADD71ROUNDEDRECTD71*%
%ADD72R,0.02768X0.03162*%
%ADD73R,0.03162X0.07178*%
%ADD74R,0.14461X0.19698*%
%ADD75R,0.05918X0.03359*%
%ADD76R,0.07965X0.06469*%
%ADD77R,0.06469X0.07965*%
%ADD78R,0.07769X0.05288*%
%ADD79R,0.05288X0.07769*%
%ADD80R,0.05642X0.03123*%
%ADD81R,0.05406X0.02375*%
%ADD82R,0.01981X0.03359*%
%ADD83R,0.12217X0.03556*%
%ADD84C,0.06300*%
%ADD85O,0.10800X0.15800*%
%ADD86C,0.00800*%
%ADD87C,0.12800*%
%ADD88C,0.07887*%
%ADD89R,0.07887X0.07887*%
%ADD90O,0.15800X0.10800*%
%ADD91C,0.06800*%
%ADD92R,0.06706X0.06706*%
%ADD93C,0.06706*%
%ADD94C,0.17900*%
%ADD95C,0.01981*%
%ADD96C,0.03400*%
%ADD97C,0.04816*%
%ADD98C,0.18300*%
G36*
X308650Y119020D02*
X307075D01*
Y121972D01*
X308650D01*
Y119020D01*
D02*
G37*
G36*
X311012D02*
X309437D01*
Y121972D01*
X311012D01*
Y119020D01*
D02*
G37*
G36*
X306287D02*
X304713D01*
Y121972D01*
X306287D01*
Y119020D01*
D02*
G37*
G36*
X301563D02*
X299988D01*
Y121972D01*
X301563D01*
Y119020D01*
D02*
G37*
G36*
X303925D02*
X302350D01*
Y121972D01*
X303925D01*
Y119020D01*
D02*
G37*
G36*
X311405Y124236D02*
X299594D01*
Y127386D01*
X311405D01*
Y124236D01*
D02*
G37*
G36*
X308650Y131028D02*
X307075D01*
Y133980D01*
X308650D01*
Y131028D01*
D02*
G37*
G36*
X311012D02*
X309437D01*
Y133980D01*
X311012D01*
Y131028D01*
D02*
G37*
G36*
X306287D02*
X304713D01*
Y133980D01*
X306287D01*
Y131028D01*
D02*
G37*
G36*
X301563D02*
X299988D01*
Y133980D01*
X301563D01*
Y131028D01*
D02*
G37*
G36*
X303925D02*
X302350D01*
Y133980D01*
X303925D01*
Y131028D01*
D02*
G37*
D30*
X165500Y121500D02*
G03*
X168500Y118500I3000J0D01*
G01*
X267500D02*
G03*
X270500Y121500I0J3000D01*
G01*
Y220500D02*
G03*
X267500Y223500I-3000J0D01*
G01*
X0Y25000D02*
G03*
X25000Y0I25000J0D01*
G01*
Y280000D02*
G03*
X0Y255000I0J-25000D01*
G01*
X168500Y223500D02*
G03*
X165500Y220500I0J-3000D01*
G01*
X0Y-2500D02*
Y2500D01*
X-2500Y0D02*
X2500D01*
X25000Y280000D02*
X510000D01*
X0Y25000D02*
Y109100D01*
Y197800D02*
Y255000D01*
Y109100D02*
X88300D01*
X0Y197800D02*
X88300D01*
Y109100D02*
Y197800D01*
X270500Y121500D02*
Y220500D01*
X165500Y121500D02*
Y220500D01*
X168500Y118500D02*
X267500D01*
X168500Y223500D02*
X267500D01*
X510000Y0D02*
Y280000D01*
X25000Y0D02*
X510000D01*
D67*
X301937Y221500D02*
D03*
X298000D02*
D03*
X276000Y111500D02*
D03*
X272063D02*
D03*
X270532Y72000D02*
D03*
X274468D02*
D03*
X278532D02*
D03*
X282469D02*
D03*
X274500Y75500D02*
D03*
X270563D02*
D03*
X282469Y75500D02*
D03*
X278532D02*
D03*
X121468Y58500D02*
D03*
X117532D02*
D03*
X117532Y55000D02*
D03*
X121468D02*
D03*
X117532Y48500D02*
D03*
X121468D02*
D03*
X121500Y51500D02*
D03*
X117563D02*
D03*
X94532Y56000D02*
D03*
X98469D02*
D03*
X155063Y109000D02*
D03*
X159000D02*
D03*
X155063Y112500D02*
D03*
X159000D02*
D03*
X155063Y116000D02*
D03*
X159000D02*
D03*
D68*
X268500Y104224D02*
D03*
X273500D02*
D03*
X278500D02*
D03*
X283500D02*
D03*
Y84776D02*
D03*
X278500D02*
D03*
X273500D02*
D03*
X268500D02*
D03*
D69*
X129776Y51500D02*
D03*
Y56500D02*
D03*
Y61500D02*
D03*
Y66500D02*
D03*
X149224D02*
D03*
Y61500D02*
D03*
Y56500D02*
D03*
Y51500D02*
D03*
X83276Y61500D02*
D03*
Y66500D02*
D03*
Y71500D02*
D03*
Y76500D02*
D03*
X102724D02*
D03*
Y71500D02*
D03*
Y66500D02*
D03*
Y61500D02*
D03*
D70*
X235000Y49996D02*
D03*
X225000D02*
D03*
X215000D02*
D03*
X205000D02*
D03*
X195000D02*
D03*
X185000D02*
D03*
Y106000D02*
D03*
X195000D02*
D03*
X205000D02*
D03*
X215000D02*
D03*
X225000D02*
D03*
X235000D02*
D03*
D71*
X96500Y250331D02*
D03*
X101500D02*
D03*
X106500D02*
D03*
X111500D02*
D03*
X116500D02*
D03*
X121500D02*
D03*
X126500D02*
D03*
Y231000D02*
D03*
X121500D02*
D03*
X116500D02*
D03*
X111500D02*
D03*
X106500D02*
D03*
X101500D02*
D03*
X96500D02*
D03*
D72*
X412500Y53469D02*
D03*
Y49531D02*
D03*
X502500Y53469D02*
D03*
Y49531D02*
D03*
X412500Y98469D02*
D03*
Y94532D02*
D03*
X502500Y98469D02*
D03*
Y94532D02*
D03*
X412500Y143468D02*
D03*
Y139532D02*
D03*
X502500Y143468D02*
D03*
Y139532D02*
D03*
X412500Y188469D02*
D03*
Y184531D02*
D03*
X502500Y188469D02*
D03*
Y184531D02*
D03*
X412500Y233469D02*
D03*
Y229532D02*
D03*
X502500Y233469D02*
D03*
Y229532D02*
D03*
X261000Y46968D02*
D03*
Y43031D02*
D03*
X258000Y46968D02*
D03*
Y43031D02*
D03*
X255000Y46968D02*
D03*
Y43031D02*
D03*
X264000Y46968D02*
D03*
Y43031D02*
D03*
X270000Y43031D02*
D03*
Y46968D02*
D03*
X249000Y43031D02*
D03*
Y46968D02*
D03*
X252000Y43031D02*
D03*
Y46968D02*
D03*
X267000Y43031D02*
D03*
Y46968D02*
D03*
X163000Y84531D02*
D03*
Y88468D02*
D03*
X166500Y88468D02*
D03*
Y84531D02*
D03*
X305500Y171031D02*
D03*
Y174969D02*
D03*
Y154032D02*
D03*
Y157968D02*
D03*
Y188031D02*
D03*
Y191969D02*
D03*
Y206532D02*
D03*
Y210469D02*
D03*
X485500Y222969D02*
D03*
Y219032D02*
D03*
X395500Y222969D02*
D03*
Y219032D02*
D03*
X485500Y177969D02*
D03*
Y174031D02*
D03*
X395500Y177969D02*
D03*
Y174031D02*
D03*
X485500Y132968D02*
D03*
Y129032D02*
D03*
X395500Y132968D02*
D03*
Y129032D02*
D03*
X485500Y87968D02*
D03*
Y84031D02*
D03*
X395500Y87968D02*
D03*
Y84031D02*
D03*
X485500Y42968D02*
D03*
Y39031D02*
D03*
X395500Y42968D02*
D03*
Y39031D02*
D03*
X318500Y128532D02*
D03*
Y132468D02*
D03*
X315000Y132500D02*
D03*
Y128563D02*
D03*
D73*
X391500Y51201D02*
D03*
X396500D02*
D03*
X401500D02*
D03*
X406500D02*
D03*
X481500D02*
D03*
X486500D02*
D03*
X491500D02*
D03*
X496500D02*
D03*
X391500Y96201D02*
D03*
X396500D02*
D03*
X401500D02*
D03*
X406500D02*
D03*
X481500D02*
D03*
X486500D02*
D03*
X491500D02*
D03*
X496500D02*
D03*
X391500Y141201D02*
D03*
X396500D02*
D03*
X401500D02*
D03*
X406500D02*
D03*
X481500D02*
D03*
X486500D02*
D03*
X491500D02*
D03*
X496500D02*
D03*
X391500Y186201D02*
D03*
X396500D02*
D03*
X401500D02*
D03*
X406500D02*
D03*
X481500D02*
D03*
X486500D02*
D03*
X491500D02*
D03*
X496500D02*
D03*
X391500Y231201D02*
D03*
X396500D02*
D03*
X401500D02*
D03*
X406500D02*
D03*
X481500D02*
D03*
X486500D02*
D03*
X491500D02*
D03*
X496500D02*
D03*
D74*
X399000Y65807D02*
D03*
X489000D02*
D03*
X399000Y110807D02*
D03*
X489000D02*
D03*
X399000Y155807D02*
D03*
X489000D02*
D03*
X399000Y200807D02*
D03*
X489000D02*
D03*
X399000Y245807D02*
D03*
X489000D02*
D03*
D75*
X402000Y38000D02*
D03*
Y42921D02*
D03*
X492000D02*
D03*
Y38000D02*
D03*
X402000Y83000D02*
D03*
Y87921D02*
D03*
X492000D02*
D03*
Y83000D02*
D03*
X402000Y128000D02*
D03*
Y132921D02*
D03*
X492000D02*
D03*
Y128000D02*
D03*
X402000Y173000D02*
D03*
Y177921D02*
D03*
X492000D02*
D03*
Y173000D02*
D03*
X402000Y218000D02*
D03*
Y222921D02*
D03*
X492000D02*
D03*
Y218000D02*
D03*
X500000Y223000D02*
D03*
Y218079D02*
D03*
X299000Y153579D02*
D03*
Y158500D02*
D03*
Y175974D02*
D03*
Y171053D02*
D03*
Y188526D02*
D03*
Y193447D02*
D03*
X299500Y210921D02*
D03*
Y206000D02*
D03*
X410000Y218079D02*
D03*
Y223000D02*
D03*
X500000Y178000D02*
D03*
Y173079D02*
D03*
X410000D02*
D03*
Y178000D02*
D03*
X500000Y133000D02*
D03*
Y128079D02*
D03*
X410000D02*
D03*
Y133000D02*
D03*
X500000Y88000D02*
D03*
Y83079D02*
D03*
X410000D02*
D03*
Y88000D02*
D03*
X500000Y43000D02*
D03*
Y38079D02*
D03*
X410000D02*
D03*
Y43000D02*
D03*
D76*
X260000Y105260D02*
D03*
Y94740D02*
D03*
X256500Y73760D02*
D03*
Y63240D02*
D03*
X62500Y67740D02*
D03*
Y78260D02*
D03*
X125000Y90760D02*
D03*
Y80240D02*
D03*
D77*
X155260Y75500D02*
D03*
X144740D02*
D03*
X117240Y207500D02*
D03*
X127760D02*
D03*
X309260Y111000D02*
D03*
X298740D02*
D03*
X309260Y140500D02*
D03*
X298740D02*
D03*
D78*
X161500Y66669D02*
D03*
Y55331D02*
D03*
X246500Y74169D02*
D03*
Y62831D02*
D03*
X72500Y67331D02*
D03*
Y78669D02*
D03*
X135000Y79831D02*
D03*
Y91169D02*
D03*
D79*
X116831Y217500D02*
D03*
X128169D02*
D03*
D80*
X165173Y95760D02*
D03*
Y103240D02*
D03*
X156827Y99500D02*
D03*
X140327Y112240D02*
D03*
Y104760D02*
D03*
X148673Y108500D02*
D03*
D81*
X149181Y88559D02*
D03*
Y86000D02*
D03*
Y83441D02*
D03*
X156819D02*
D03*
Y88559D02*
D03*
D82*
X300776Y120496D02*
D03*
X303138D02*
D03*
X305500D02*
D03*
X307862D02*
D03*
X310224D02*
D03*
Y132504D02*
D03*
X307862D02*
D03*
X305500D02*
D03*
X303138D02*
D03*
X300776D02*
D03*
D83*
X305500Y125811D02*
D03*
D84*
X34950Y27106D02*
D03*
X46750D02*
D03*
Y15294D02*
D03*
X34950D02*
D03*
X452000Y240400D02*
D03*
Y228600D02*
D03*
X131100Y27106D02*
D03*
X142900D02*
D03*
Y15294D02*
D03*
X131100D02*
D03*
X151500Y205400D02*
D03*
Y193600D02*
D03*
X83000Y27106D02*
D03*
X94800D02*
D03*
Y15294D02*
D03*
X83000D02*
D03*
X36100Y212500D02*
D03*
X47900D02*
D03*
X225800Y270000D02*
D03*
X202200D02*
D03*
X214000D02*
D03*
X169300D02*
D03*
X145700D02*
D03*
X157500D02*
D03*
X112800D02*
D03*
X89200D02*
D03*
X101000D02*
D03*
X56300D02*
D03*
X32700D02*
D03*
X44500D02*
D03*
X362000Y240400D02*
D03*
Y228600D02*
D03*
X452000Y195400D02*
D03*
Y183600D02*
D03*
X362000Y195400D02*
D03*
Y183600D02*
D03*
X452000Y150400D02*
D03*
Y138600D02*
D03*
X362000Y150400D02*
D03*
Y138600D02*
D03*
X452000Y105400D02*
D03*
Y93600D02*
D03*
X362000Y105400D02*
D03*
Y93600D02*
D03*
X452000Y60400D02*
D03*
Y48600D02*
D03*
X362000Y60400D02*
D03*
Y48600D02*
D03*
D85*
X55200Y21200D02*
D03*
X26500D02*
D03*
X151350D02*
D03*
X122650D02*
D03*
X103250D02*
D03*
X74550D02*
D03*
X27650Y212500D02*
D03*
X56350D02*
D03*
X193750Y270000D02*
D03*
X234250D02*
D03*
X137250D02*
D03*
X177750D02*
D03*
X80750D02*
D03*
X121250D02*
D03*
X24250D02*
D03*
X64750D02*
D03*
D86*
X23150Y30800D02*
D03*
X58550D02*
D03*
X119300D02*
D03*
X154700D02*
D03*
X71200D02*
D03*
X106600D02*
D03*
D87*
X116500Y185500D02*
D03*
X316500Y41500D02*
D03*
X248000Y89500D02*
D03*
X28000Y96500D02*
D03*
X27800Y77650D02*
D03*
X11800D02*
D03*
X27800Y59000D02*
D03*
X11800D02*
D03*
X362500Y272000D02*
D03*
X342000D02*
D03*
X277750Y14000D02*
D03*
X262500D02*
D03*
X247250D02*
D03*
X293000D02*
D03*
X12000Y96500D02*
D03*
X186250Y14000D02*
D03*
X12500Y240000D02*
D03*
X171000Y14000D02*
D03*
X216750D02*
D03*
X232000D02*
D03*
X201500D02*
D03*
X377500Y14500D02*
D03*
X33000Y240000D02*
D03*
X361000Y14500D02*
D03*
X472000Y17000D02*
D03*
D88*
X415095Y10000D02*
D03*
X391595Y270000D02*
D03*
X333405Y10000D02*
D03*
D89*
X426905D02*
D03*
X403406Y270000D02*
D03*
X321595Y10000D02*
D03*
D90*
X452000Y248850D02*
D03*
Y220150D02*
D03*
X151500Y213850D02*
D03*
Y185150D02*
D03*
X362000Y248850D02*
D03*
Y220150D02*
D03*
X452000Y203850D02*
D03*
Y175150D02*
D03*
X362000Y203850D02*
D03*
Y175150D02*
D03*
X452000Y158850D02*
D03*
Y130150D02*
D03*
X362000Y158850D02*
D03*
Y130150D02*
D03*
X452000Y113850D02*
D03*
Y85150D02*
D03*
X362000Y113850D02*
D03*
Y85150D02*
D03*
X452000Y68850D02*
D03*
Y40150D02*
D03*
X362000Y68850D02*
D03*
Y40150D02*
D03*
D91*
X339000Y228500D02*
D03*
X346071Y235571D02*
D03*
X331929D02*
D03*
X339000Y238500D02*
D03*
X161000Y163500D02*
D03*
Y133500D02*
D03*
Y143500D02*
D03*
Y153500D02*
D03*
X305000Y85000D02*
D03*
X312071Y92071D02*
D03*
X297929D02*
D03*
X305000Y95000D02*
D03*
X429000Y238500D02*
D03*
X421929Y235571D02*
D03*
X436071D02*
D03*
X429000Y228500D02*
D03*
Y193500D02*
D03*
X421929Y190571D02*
D03*
X436071D02*
D03*
X429000Y183500D02*
D03*
X339000D02*
D03*
X346071Y190571D02*
D03*
X331929D02*
D03*
X339000Y193500D02*
D03*
X429000Y148500D02*
D03*
X421929Y145571D02*
D03*
X436071D02*
D03*
X429000Y138500D02*
D03*
X339000D02*
D03*
X346071Y145571D02*
D03*
X331929D02*
D03*
X339000Y148500D02*
D03*
X429000Y103500D02*
D03*
X421929Y100571D02*
D03*
X436071D02*
D03*
X429000Y93500D02*
D03*
Y58500D02*
D03*
X421929Y55571D02*
D03*
X436071D02*
D03*
X429000Y48500D02*
D03*
X339000D02*
D03*
X346071Y55571D02*
D03*
X331929D02*
D03*
X339000Y58500D02*
D03*
Y93500D02*
D03*
X346071Y100571D02*
D03*
X331929D02*
D03*
X339000Y103500D02*
D03*
D92*
X123500Y101500D02*
D03*
D93*
Y111500D02*
D03*
D94*
X316900Y227500D02*
D03*
X56900Y240000D02*
D03*
X316900Y62500D02*
D03*
X56900Y50000D02*
D03*
D95*
X305500Y125811D02*
D03*
X309555D02*
D03*
X301445D02*
D03*
D96*
X114000Y51500D02*
D03*
Y48000D02*
D03*
X121500Y45500D02*
D03*
X107000Y53500D02*
D03*
Y46000D02*
D03*
X79000Y5000D02*
D03*
X102000Y6000D02*
D03*
X146000Y9000D02*
D03*
X123000Y8500D02*
D03*
X62500Y13500D02*
D03*
X52500Y35000D02*
D03*
X30500Y40000D02*
D03*
X40500Y34500D02*
D03*
X296500Y165000D02*
D03*
X463000Y119500D02*
D03*
X462500Y164000D02*
D03*
X345500Y247965D02*
D03*
X342000Y249000D02*
D03*
X305500Y221000D02*
D03*
X303500Y239000D02*
D03*
X292500Y240000D02*
D03*
X463000Y31500D02*
D03*
X463500Y211000D02*
D03*
X462500Y75000D02*
D03*
X373000Y122500D02*
D03*
X373500Y165500D02*
D03*
X247500Y29500D02*
D03*
X142000Y87000D02*
D03*
X157500Y123000D02*
D03*
X239750Y69500D02*
D03*
X162000Y59000D02*
D03*
X262331Y62831D02*
D03*
X391500Y129000D02*
D03*
X481500Y219000D02*
D03*
Y173000D02*
D03*
Y128500D02*
D03*
Y83000D02*
D03*
X390000Y62500D02*
D03*
X159500Y81000D02*
D03*
X215000Y99500D02*
D03*
X391500Y173000D02*
D03*
Y221500D02*
D03*
X67500Y67740D02*
D03*
X78000Y78260D02*
D03*
X130000Y100000D02*
D03*
X94500Y73000D02*
D03*
X161500Y62500D02*
D03*
X170000Y71500D02*
D03*
X150000Y77000D02*
D03*
X274500Y50500D02*
D03*
X273000Y21500D02*
D03*
X180500Y31000D02*
D03*
X69500Y46000D02*
D03*
X327500Y249500D02*
D03*
X416000D02*
D03*
X412500Y226500D02*
D03*
X380000Y222000D02*
D03*
X369500Y96500D02*
D03*
Y51500D02*
D03*
X261000Y251000D02*
D03*
X441000Y261500D02*
D03*
X434000Y267000D02*
D03*
X438000Y264000D02*
D03*
X459500Y141500D02*
D03*
Y96500D02*
D03*
Y51500D02*
D03*
X304000Y111000D02*
D03*
Y148500D02*
D03*
X309000Y191532D02*
D03*
X309000Y158000D02*
D03*
X299000Y179000D02*
D03*
X309000Y175000D02*
D03*
X262000Y39500D02*
D03*
X144500Y83500D02*
D03*
X254000Y50500D02*
D03*
X265000D02*
D03*
X250500Y53000D02*
D03*
X268500D02*
D03*
X182000Y56500D02*
D03*
X116500Y85000D02*
D03*
X111000D02*
D03*
X95000Y88000D02*
D03*
X91500Y87000D02*
D03*
X97000Y243500D02*
D03*
X373000Y31500D02*
D03*
X76500Y221500D02*
D03*
X110500Y243000D02*
D03*
X281000Y111000D02*
D03*
X284500Y115000D02*
D03*
X292000Y81000D02*
D03*
X166500Y92000D02*
D03*
X287500Y99000D02*
D03*
X272500Y91000D02*
D03*
X111500Y223500D02*
D03*
X106500Y258000D02*
D03*
X177000Y92500D02*
D03*
X172500Y94000D02*
D03*
X391500Y38000D02*
D03*
X412500Y46500D02*
D03*
X326000Y78000D02*
D03*
X262000Y228000D02*
D03*
X80500Y254500D02*
D03*
X116500Y238000D02*
D03*
X187500Y69000D02*
D03*
X235500Y99000D02*
D03*
X225000Y99500D02*
D03*
X172000Y60000D02*
D03*
Y38500D02*
D03*
X315000Y137000D02*
D03*
X308000Y31500D02*
D03*
X391500Y83000D02*
D03*
X481500Y38000D02*
D03*
X470000Y222000D02*
D03*
X502500Y226500D02*
D03*
X76900Y50500D02*
D03*
X163000Y79500D02*
D03*
X166500D02*
D03*
X171000Y103000D02*
D03*
X95000Y52500D02*
D03*
X150209Y95169D02*
D03*
X178500Y107000D02*
D03*
X132000Y222500D02*
D03*
X287000Y78000D02*
D03*
X262000Y90000D02*
D03*
X287000Y30500D02*
D03*
X297000D02*
D03*
X286800Y69500D02*
D03*
X296800D02*
D03*
X217000Y32000D02*
D03*
X227000Y32500D02*
D03*
X217000Y68000D02*
D03*
X207000D02*
D03*
X380000Y42000D02*
D03*
X470000D02*
D03*
X502500Y46500D02*
D03*
X380000Y87000D02*
D03*
X412500Y91500D02*
D03*
X470000Y87000D02*
D03*
X502500Y91500D02*
D03*
X380000Y132000D02*
D03*
X412500Y136500D02*
D03*
X470000Y132000D02*
D03*
X502500Y136500D02*
D03*
X380000Y177000D02*
D03*
X470000D02*
D03*
X502500Y181500D02*
D03*
X299000Y162000D02*
D03*
Y196421D02*
D03*
X252000Y29000D02*
D03*
X267000Y26500D02*
D03*
X272500Y27500D02*
D03*
X373000Y76500D02*
D03*
X351500Y252000D02*
D03*
X369000Y233500D02*
D03*
X412500Y181500D02*
D03*
X233500Y71000D02*
D03*
X184000Y71500D02*
D03*
X422000Y31000D02*
D03*
X309000Y204000D02*
D03*
X294000Y222000D02*
D03*
Y214000D02*
D03*
X297500Y215000D02*
D03*
X303500Y41000D02*
D03*
X155500Y69000D02*
D03*
X157000Y103500D02*
D03*
X327500Y26500D02*
D03*
X417500Y77000D02*
D03*
X417000Y122500D02*
D03*
Y166500D02*
D03*
X416500Y211500D02*
D03*
X325500Y213000D02*
D03*
X326000Y168000D02*
D03*
Y123000D02*
D03*
D97*
X411236Y4961D02*
D03*
X387736Y264961D02*
D03*
X337264Y15039D02*
D03*
D98*
X450000Y270000D02*
D03*
Y20000D02*
D03*
M02*
