G04 Layer_Physical_Order=1*
G04 Layer_Color=255*
%FSLAX25Y25*%
%MOIN*%
G70*
G01*
G75*
%ADD10R,0.02362X0.01968*%
%ADD11R,0.02362X0.07756*%
%ADD12R,0.07756X0.02362*%
%ADD13R,0.09000X0.08500*%
G04:AMPARAMS|DCode=14|XSize=74.8mil|YSize=23.62mil|CornerRadius=2.95mil|HoleSize=0mil|Usage=FLASHONLY|Rotation=90.000|XOffset=0mil|YOffset=0mil|HoleType=Round|Shape=RoundedRectangle|*
%AMROUNDEDRECTD14*
21,1,0.07480,0.01772,0,0,90.0*
21,1,0.06890,0.02362,0,0,90.0*
1,1,0.00591,0.00886,0.03445*
1,1,0.00591,0.00886,-0.03445*
1,1,0.00591,-0.00886,-0.03445*
1,1,0.00591,-0.00886,0.03445*
%
%ADD14ROUNDEDRECTD14*%
%ADD15R,0.01968X0.02362*%
%ADD16R,0.02362X0.06378*%
%ADD17R,0.13661X0.18898*%
%ADD18R,0.05118X0.02559*%
%ADD19R,0.07165X0.05669*%
%ADD20R,0.05669X0.07165*%
%ADD21R,0.06968X0.04488*%
%ADD22R,0.04488X0.06968*%
%ADD23R,0.04842X0.02323*%
%ADD24R,0.04606X0.01575*%
%ADD25R,0.01181X0.02559*%
%ADD26R,0.11417X0.02756*%
%ADD27C,0.01000*%
%ADD28C,0.03000*%
%ADD29C,0.05000*%
%ADD30C,0.00100*%
%ADD31C,0.05500*%
%ADD32O,0.10000X0.15000*%
%ADD33C,0.12000*%
%ADD34C,0.07087*%
%ADD35R,0.07087X0.07087*%
%ADD36O,0.15000X0.10000*%
%ADD37C,0.06000*%
%ADD38R,0.05905X0.05905*%
%ADD39C,0.05905*%
%ADD40C,0.17500*%
%ADD41C,0.01181*%
%ADD42C,0.02600*%
%ADD43C,0.04016*%
D10*
X301937Y221500D02*
D03*
X298000D02*
D03*
X276000Y111500D02*
D03*
X272063D02*
D03*
X270532Y72000D02*
D03*
X274468D02*
D03*
X278532D02*
D03*
X282469D02*
D03*
X274500Y75500D02*
D03*
X270563D02*
D03*
X282469Y75500D02*
D03*
X278532D02*
D03*
X121468Y58500D02*
D03*
X117532D02*
D03*
X117532Y55000D02*
D03*
X121468D02*
D03*
X117532Y48500D02*
D03*
X121468D02*
D03*
X121500Y51500D02*
D03*
X117563D02*
D03*
X94532Y56000D02*
D03*
X98469D02*
D03*
X155063Y109000D02*
D03*
X159000D02*
D03*
X155063Y112500D02*
D03*
X159000D02*
D03*
X155063Y116000D02*
D03*
X159000D02*
D03*
D11*
X268500Y104224D02*
D03*
X273500D02*
D03*
X278500D02*
D03*
X283500D02*
D03*
Y84776D02*
D03*
X278500D02*
D03*
X273500D02*
D03*
X268500D02*
D03*
D12*
X129776Y51500D02*
D03*
Y56500D02*
D03*
Y61500D02*
D03*
Y66500D02*
D03*
X149224D02*
D03*
Y61500D02*
D03*
Y56500D02*
D03*
Y51500D02*
D03*
X83276Y61500D02*
D03*
Y66500D02*
D03*
Y71500D02*
D03*
Y76500D02*
D03*
X102724D02*
D03*
Y71500D02*
D03*
Y66500D02*
D03*
Y61500D02*
D03*
D13*
X235000Y49996D02*
D03*
X225000D02*
D03*
X215000D02*
D03*
X205000D02*
D03*
X195000D02*
D03*
X185000D02*
D03*
Y106000D02*
D03*
X195000D02*
D03*
X205000D02*
D03*
X215000D02*
D03*
X225000D02*
D03*
X235000D02*
D03*
D14*
X96500Y250331D02*
D03*
X101500D02*
D03*
X106500D02*
D03*
X111500D02*
D03*
X116500D02*
D03*
X121500D02*
D03*
X126500D02*
D03*
Y231000D02*
D03*
X121500D02*
D03*
X116500D02*
D03*
X111500D02*
D03*
X106500D02*
D03*
X101500D02*
D03*
X96500D02*
D03*
D15*
X412500Y53469D02*
D03*
Y49531D02*
D03*
X502500Y53469D02*
D03*
Y49531D02*
D03*
X412500Y98469D02*
D03*
Y94532D02*
D03*
X502500Y98469D02*
D03*
Y94532D02*
D03*
X412500Y143468D02*
D03*
Y139532D02*
D03*
X502500Y143468D02*
D03*
Y139532D02*
D03*
X412500Y188469D02*
D03*
Y184531D02*
D03*
X502500Y188469D02*
D03*
Y184531D02*
D03*
X412500Y233469D02*
D03*
Y229532D02*
D03*
X502500Y233469D02*
D03*
Y229532D02*
D03*
X261000Y46968D02*
D03*
Y43031D02*
D03*
X258000Y46968D02*
D03*
Y43031D02*
D03*
X255000Y46968D02*
D03*
Y43031D02*
D03*
X264000Y46968D02*
D03*
Y43031D02*
D03*
X270000Y43031D02*
D03*
Y46968D02*
D03*
X249000Y43031D02*
D03*
Y46968D02*
D03*
X252000Y43031D02*
D03*
Y46968D02*
D03*
X267000Y43031D02*
D03*
Y46968D02*
D03*
X163000Y84531D02*
D03*
Y88468D02*
D03*
X166500Y88468D02*
D03*
Y84531D02*
D03*
X305500Y171031D02*
D03*
Y174969D02*
D03*
Y154032D02*
D03*
Y157968D02*
D03*
Y188031D02*
D03*
Y191969D02*
D03*
Y206532D02*
D03*
Y210469D02*
D03*
X485500Y222969D02*
D03*
Y219032D02*
D03*
X395500Y222969D02*
D03*
Y219032D02*
D03*
X485500Y177969D02*
D03*
Y174031D02*
D03*
X395500Y177969D02*
D03*
Y174031D02*
D03*
X485500Y132968D02*
D03*
Y129032D02*
D03*
X395500Y132968D02*
D03*
Y129032D02*
D03*
X485500Y87968D02*
D03*
Y84031D02*
D03*
X395500Y87968D02*
D03*
Y84031D02*
D03*
X485500Y42968D02*
D03*
Y39031D02*
D03*
X395500Y42968D02*
D03*
Y39031D02*
D03*
X318500Y128532D02*
D03*
Y132468D02*
D03*
X315000Y132500D02*
D03*
Y128563D02*
D03*
D16*
X391500Y51201D02*
D03*
X396500D02*
D03*
X401500D02*
D03*
X406500D02*
D03*
X481500D02*
D03*
X486500D02*
D03*
X491500D02*
D03*
X496500D02*
D03*
X391500Y96201D02*
D03*
X396500D02*
D03*
X401500D02*
D03*
X406500D02*
D03*
X481500D02*
D03*
X486500D02*
D03*
X491500D02*
D03*
X496500D02*
D03*
X391500Y141201D02*
D03*
X396500D02*
D03*
X401500D02*
D03*
X406500D02*
D03*
X481500D02*
D03*
X486500D02*
D03*
X491500D02*
D03*
X496500D02*
D03*
X391500Y186201D02*
D03*
X396500D02*
D03*
X401500D02*
D03*
X406500D02*
D03*
X481500D02*
D03*
X486500D02*
D03*
X491500D02*
D03*
X496500D02*
D03*
X391500Y231201D02*
D03*
X396500D02*
D03*
X401500D02*
D03*
X406500D02*
D03*
X481500D02*
D03*
X486500D02*
D03*
X491500D02*
D03*
X496500D02*
D03*
D17*
X399000Y65807D02*
D03*
X489000D02*
D03*
X399000Y110807D02*
D03*
X489000D02*
D03*
X399000Y155807D02*
D03*
X489000D02*
D03*
X399000Y200807D02*
D03*
X489000D02*
D03*
X399000Y245807D02*
D03*
X489000D02*
D03*
D18*
X402000Y38000D02*
D03*
Y42921D02*
D03*
X492000D02*
D03*
Y38000D02*
D03*
X402000Y83000D02*
D03*
Y87921D02*
D03*
X492000D02*
D03*
Y83000D02*
D03*
X402000Y128000D02*
D03*
Y132921D02*
D03*
X492000D02*
D03*
Y128000D02*
D03*
X402000Y173000D02*
D03*
Y177921D02*
D03*
X492000D02*
D03*
Y173000D02*
D03*
X402000Y218000D02*
D03*
Y222921D02*
D03*
X492000D02*
D03*
Y218000D02*
D03*
X500000Y223000D02*
D03*
Y218079D02*
D03*
X299000Y153579D02*
D03*
Y158500D02*
D03*
Y175974D02*
D03*
Y171053D02*
D03*
Y188526D02*
D03*
Y193447D02*
D03*
X299500Y210921D02*
D03*
Y206000D02*
D03*
X410000Y218079D02*
D03*
Y223000D02*
D03*
X500000Y178000D02*
D03*
Y173079D02*
D03*
X410000D02*
D03*
Y178000D02*
D03*
X500000Y133000D02*
D03*
Y128079D02*
D03*
X410000D02*
D03*
Y133000D02*
D03*
X500000Y88000D02*
D03*
Y83079D02*
D03*
X410000D02*
D03*
Y88000D02*
D03*
X500000Y43000D02*
D03*
Y38079D02*
D03*
X410000D02*
D03*
Y43000D02*
D03*
D19*
X260000Y105260D02*
D03*
Y94740D02*
D03*
X256500Y73760D02*
D03*
Y63240D02*
D03*
X62500Y67740D02*
D03*
Y78260D02*
D03*
X125000Y90760D02*
D03*
Y80240D02*
D03*
D20*
X155260Y75500D02*
D03*
X144740D02*
D03*
X117240Y207500D02*
D03*
X127760D02*
D03*
X309260Y111000D02*
D03*
X298740D02*
D03*
X309260Y140500D02*
D03*
X298740D02*
D03*
D21*
X161500Y66669D02*
D03*
Y55331D02*
D03*
X246500Y74169D02*
D03*
Y62831D02*
D03*
X72500Y67331D02*
D03*
Y78669D02*
D03*
X135000Y79831D02*
D03*
Y91169D02*
D03*
D22*
X116831Y217500D02*
D03*
X128169D02*
D03*
D23*
X165173Y95760D02*
D03*
Y103240D02*
D03*
X156827Y99500D02*
D03*
X140327Y112240D02*
D03*
Y104760D02*
D03*
X148673Y108500D02*
D03*
D24*
X149181Y88559D02*
D03*
Y86000D02*
D03*
Y83441D02*
D03*
X156819D02*
D03*
Y88559D02*
D03*
D25*
X300776Y120496D02*
D03*
X303138D02*
D03*
X305500D02*
D03*
X307862D02*
D03*
X310224D02*
D03*
Y132504D02*
D03*
X307862D02*
D03*
X305500D02*
D03*
X303138D02*
D03*
X300776D02*
D03*
D26*
X305500Y125811D02*
D03*
D27*
X437500Y244404D02*
Y264000D01*
X137000Y48500D02*
Y55500D01*
X126500Y38000D02*
X137000Y48500D01*
X118000Y38000D02*
X126500D01*
X113000Y33000D02*
X118000Y38000D01*
X126500Y35500D02*
X139500Y48500D01*
X118000Y35500D02*
X126500D01*
X115000Y32500D02*
X118000Y35500D01*
X136000Y56500D02*
X137000Y55500D01*
X129776Y56500D02*
X136000D01*
X139500Y48500D02*
Y59500D01*
X137500Y61500D02*
X139500Y59500D01*
X129776Y61500D02*
X137500D01*
X166500Y88468D02*
Y93933D01*
X164673Y95760D02*
X166500Y93933D01*
X144000Y68032D02*
X145968Y70000D01*
X144000Y47500D02*
Y68032D01*
Y47500D02*
X163500Y28000D01*
X72800Y10700D02*
X110225D01*
X65500Y18000D02*
X72800Y10700D01*
X65500Y18000D02*
Y28500D01*
X11800Y23700D02*
X26500Y9000D01*
X11800Y23700D02*
Y46500D01*
X125000Y90760D02*
X138240D01*
X114000Y52035D02*
X114535Y51500D01*
X69260Y67740D02*
X75500Y61500D01*
X114000Y51500D02*
Y52035D01*
X112964Y45000D02*
X121500D01*
X108000Y61500D02*
X109616Y59885D01*
Y48349D02*
X112964Y45000D01*
X109616Y48349D02*
Y59885D01*
X114535Y51500D02*
X117563D01*
X107000Y46000D02*
Y53500D01*
X102724Y61500D02*
X108000D01*
X163500Y28000D02*
X172096D01*
X164500Y30000D02*
X172500D01*
X149224Y45276D02*
X164500Y30000D01*
X149224Y45276D02*
Y51500D01*
X115000Y13070D02*
Y32500D01*
X110930Y9000D02*
X115000Y13070D01*
X26500Y9000D02*
X110930D01*
X110225Y10700D02*
X113000Y13475D01*
X72500Y71500D02*
X83276D01*
X71000Y73000D02*
X72500Y71500D01*
X49000Y73000D02*
X71000D01*
X49000D02*
X69500Y52500D01*
X44350Y77650D02*
X49000Y73000D01*
X89000Y39500D02*
X94800Y33700D01*
Y27106D02*
Y33700D01*
X59000Y35000D02*
X65500Y28500D01*
X52500Y35000D02*
X59000D01*
X11800Y46500D02*
Y59000D01*
Y46500D02*
X18300Y40000D01*
X30500D01*
X291500Y170000D02*
X296500Y165000D01*
X502500Y180500D02*
Y184531D01*
Y225500D02*
Y229532D01*
X496241Y220741D02*
Y231201D01*
X412500Y135500D02*
Y139532D01*
X502500Y135500D02*
Y139532D01*
X412500Y180500D02*
Y184531D01*
Y45500D02*
Y49531D01*
Y225500D02*
Y229532D01*
X121831Y250000D02*
X128969D01*
X502500Y45500D02*
Y49531D01*
X268500Y107500D02*
X272500Y111500D01*
X260000Y105669D02*
X267055D01*
X412500Y90500D02*
Y94532D01*
X233500Y12500D02*
Y15500D01*
X502500Y90500D02*
Y94532D01*
X496241Y40741D02*
Y51201D01*
X406241Y85741D02*
Y96201D01*
X309858Y128532D02*
X318500D01*
X496241Y85741D02*
Y96201D01*
X406241Y130741D02*
Y141201D01*
X496241Y130741D02*
Y141201D01*
X406241Y175741D02*
Y186201D01*
Y40741D02*
Y51201D01*
X496241Y175741D02*
Y186201D01*
X327500Y224029D02*
Y249500D01*
X345500Y244904D02*
X351971Y238433D01*
X345500Y244904D02*
Y247965D01*
X342000Y245582D02*
X350271Y237311D01*
X342000Y245582D02*
Y249000D01*
X491500Y141201D02*
X492000Y140701D01*
X437500Y244404D02*
X441971Y239933D01*
X443671Y223089D02*
Y240637D01*
X441000Y243308D02*
X443671Y240637D01*
X441000Y243308D02*
Y261500D01*
X441971Y223793D02*
Y239933D01*
X440271Y224498D02*
Y239229D01*
X434000Y245500D02*
X440271Y239229D01*
X434000Y245500D02*
Y266000D01*
X303500Y226829D02*
X309000Y221329D01*
X302437Y221000D02*
X305500D01*
X301937Y221500D02*
X302437Y221000D01*
X303500Y226829D02*
Y239000D01*
X247500Y29500D02*
X247500D01*
X249000Y31000D01*
X146831Y95169D02*
X150209D01*
X140327Y101673D02*
X146831Y95169D01*
X140327Y101673D02*
Y104760D01*
X161500Y58500D02*
X162000Y59000D01*
X161500Y55331D02*
Y58500D01*
X160331Y56500D02*
X161500Y55331D01*
X149224Y56500D02*
X160331D01*
X473500Y211000D02*
X481500Y219000D01*
X472500Y164000D02*
X481500Y173000D01*
X157059Y83441D02*
X159500Y81000D01*
X156819Y83441D02*
X157059D01*
X215000Y99500D02*
Y106000D01*
X391500Y218000D02*
Y221500D01*
X67500Y67740D02*
X69260D01*
X62500D02*
X67500D01*
X78000Y78260D02*
X81516D01*
X113000Y13475D02*
Y33000D01*
X157500Y123000D02*
X159000Y121500D01*
Y116000D02*
Y121500D01*
X155063Y109000D02*
Y112500D01*
X153500Y116000D02*
X155063D01*
X152500Y115000D02*
X153500Y116000D01*
X152500Y105500D02*
Y115000D01*
X150000Y103000D02*
X152500Y105500D01*
X155063Y109000D02*
X156827Y107236D01*
X159000Y109000D02*
X162000D01*
X164000Y111000D01*
X161000Y127161D02*
X164000Y124161D01*
Y111000D02*
Y124161D01*
X161000Y112500D02*
X161500Y113000D01*
X159000Y112500D02*
X161000D01*
X156500Y128000D02*
X161500Y123000D01*
Y113000D02*
Y123000D01*
X97000Y65000D02*
X98500Y66500D01*
X102724D01*
X94500Y73000D02*
X98000Y76500D01*
X102724D01*
X83276Y66500D02*
X87500D01*
X89000Y65000D01*
X81516Y78260D02*
X83276Y76500D01*
X138240Y90760D02*
X142000Y87000D01*
X141299Y80240D02*
X144500Y83441D01*
Y75740D02*
Y83441D01*
Y75740D02*
X144740Y75500D01*
X161500Y62500D02*
Y66669D01*
X160500Y61500D02*
X161500Y62500D01*
X155260Y75500D02*
X161500Y69260D01*
Y66669D02*
Y69260D01*
X116831Y217500D02*
X117240Y217091D01*
Y207500D02*
Y217091D01*
X128169Y216831D02*
Y217500D01*
Y207909D02*
Y216831D01*
X127760Y207500D02*
X128169Y207909D01*
X115532Y217500D02*
X116831D01*
X111500Y221532D02*
X115532Y217500D01*
X148120Y70000D02*
X150000Y71880D01*
X145968Y70000D02*
X148120D01*
X150000Y71880D02*
Y77000D01*
X69500Y46000D02*
Y52500D01*
X27800Y77650D02*
X44350D01*
X170000Y71500D02*
Y87000D01*
X168532Y88468D02*
X170000Y87000D01*
X166500Y88468D02*
X168532D01*
X172096Y28000D02*
X177796Y22300D01*
X194700D01*
X201500Y15500D01*
Y14000D02*
Y15500D01*
X274500Y50500D02*
X278000Y47000D01*
X273000Y21500D02*
X278000Y26500D01*
X243700Y17550D02*
X247250Y14000D01*
X243700Y48700D02*
X248000Y53000D01*
X250500D01*
X293000Y14000D02*
Y43500D01*
X283500Y53000D02*
X293000Y43500D01*
X268500Y53000D02*
X283500D01*
X233500Y71000D02*
X241816Y62684D01*
X178500Y24000D02*
X206750D01*
X172500Y30000D02*
X178500Y24000D01*
X180500Y31000D02*
Y35875D01*
X178500Y37874D02*
X180500Y35875D01*
X458000Y31000D02*
X472000Y17000D01*
X441142Y31000D02*
X458000D01*
X436071Y36071D02*
X441142Y31000D01*
X32000Y68500D02*
X46500Y54000D01*
X20950Y68500D02*
X32000D01*
X11800Y77650D02*
X20950Y68500D01*
X139286Y258000D02*
X151286Y270000D01*
X120000Y258000D02*
X139286D01*
X116500Y254500D02*
X120000Y258000D01*
X326000Y67471D02*
X326850Y66621D01*
X416000Y249500D02*
X417000Y248500D01*
X406500Y231201D02*
X408768Y233469D01*
X412500D01*
X401500Y245807D02*
X404394Y248701D01*
X402000Y218000D02*
X403500D01*
X406241Y220741D01*
Y231201D02*
X406500D01*
X401500D02*
X402000Y230701D01*
Y222921D02*
Y230701D01*
X395500Y222969D02*
X401953D01*
X402000Y222921D01*
X395500Y217000D02*
X398000Y214500D01*
X395500Y217000D02*
Y219032D01*
X398000Y214500D02*
X406421D01*
X410000Y218079D01*
X351971Y106029D02*
Y238433D01*
X350271Y60729D02*
Y237311D01*
X351971Y106029D02*
X358500Y99500D01*
X406328Y211456D02*
X415000Y202784D01*
X398044Y211456D02*
X406328D01*
X415000Y171000D02*
Y202784D01*
X391500Y173000D02*
X396700Y167800D01*
X411800D01*
X415000Y171000D01*
X403500Y173000D02*
X406241Y175741D01*
X408768Y188469D02*
X412500D01*
X406500Y186201D02*
X408768Y188469D01*
X406421Y169500D02*
X410000Y173079D01*
X398000Y169500D02*
X406421D01*
X410000Y178000D02*
X412500Y180500D01*
X391500Y218000D02*
X398044Y211456D01*
X350271Y60729D02*
X356500Y54500D01*
X366500D01*
X369500Y51500D01*
X366500Y99500D02*
X369500Y96500D01*
X358500Y99500D02*
X366500D01*
X443671Y178089D02*
Y200911D01*
X443300Y177718D02*
X443671Y178089D01*
X443300Y156282D02*
Y177718D01*
Y156282D02*
X443671Y155911D01*
Y147329D02*
Y155911D01*
X441600Y200578D02*
Y223422D01*
Y155578D02*
Y178422D01*
X439900Y199874D02*
Y224126D01*
Y154874D02*
Y179126D01*
X440271Y66229D02*
Y154502D01*
X441971Y103800D02*
Y155207D01*
X440271Y179498D02*
Y199503D01*
X439900Y179126D02*
X440271Y179498D01*
X441971Y178793D02*
Y200207D01*
X441600Y178422D02*
X441971Y178793D01*
X439900Y199874D02*
X440271Y199503D01*
X441600Y200578D02*
X441971Y200207D01*
X439900Y154874D02*
X440271Y154502D01*
X441600Y155578D02*
X441971Y155207D01*
X439900Y224126D02*
X440271Y224498D01*
X441600Y223422D02*
X441971Y223793D01*
X443671Y147329D02*
X447000Y144000D01*
X457000D01*
X459500Y141500D01*
X441971Y103800D02*
X448221Y97550D01*
X453636D01*
X454686Y96500D01*
X459500D01*
X440271Y66229D02*
X453950Y52550D01*
X458450D01*
X459500Y51500D01*
X308968Y174969D02*
X309000Y175000D01*
X305500Y174969D02*
X308968D01*
X309000Y175000D02*
X309000Y175000D01*
Y191532D01*
X294500Y221500D02*
X298000D01*
X298740Y111000D02*
X304000D01*
Y147240D02*
Y148500D01*
X305500Y191500D02*
X308968D01*
X305500Y157968D02*
X308968D01*
X305047Y153579D02*
X305500Y154032D01*
X299000Y153579D02*
X305047D01*
X299453Y171031D02*
X305500D01*
X298969Y206532D02*
X299500Y206000D01*
X262000Y39500D02*
Y40500D01*
X261000Y41500D02*
X262000Y40500D01*
X261000Y41500D02*
Y43031D01*
X258000D02*
X261000D01*
X264000D01*
X270000Y30500D02*
Y43031D01*
X255000Y46968D02*
Y49500D01*
X254000Y50500D02*
X255000Y49500D01*
X264000Y46968D02*
Y49500D01*
X265000Y50500D01*
X252000Y46968D02*
X255000D01*
X264000Y46968D02*
X267000D01*
X249000D02*
Y51500D01*
X250500Y53000D01*
X256500D01*
X258000Y51500D01*
Y46968D02*
Y51500D01*
X261000Y46968D02*
Y52000D01*
X262000Y53000D01*
X268500D01*
X270000Y51500D01*
Y46968D02*
Y51500D01*
X255000Y43031D02*
X258000D01*
X252000Y46968D02*
X252000Y46968D01*
X264000D02*
X264000Y46968D01*
X178500Y37874D02*
Y53943D01*
X181057Y56500D01*
X182000D01*
X130000Y231000D02*
X138800Y222200D01*
X140327Y110173D02*
X147500Y103000D01*
X140327Y110173D02*
Y112240D01*
X91500Y245331D02*
X96500Y250331D01*
X91500Y87000D02*
Y245331D01*
X93200Y89800D02*
X95000Y88000D01*
X93200Y89800D02*
Y227700D01*
X97000Y243500D02*
X100000D01*
X104000Y239500D01*
X147500Y103000D02*
X150000D01*
X124240Y112240D02*
X140327D01*
X123500Y111500D02*
X124240Y112240D01*
X101500Y259000D02*
X104119Y256381D01*
X55500Y259000D02*
X101500D01*
X44500Y270000D02*
X55500Y259000D01*
X110500Y242500D02*
Y243000D01*
X111500Y243500D02*
Y250331D01*
X273500Y104224D02*
Y109000D01*
X276000Y111500D01*
X284500Y106224D02*
Y115000D01*
X273500Y80532D02*
X278532Y75500D01*
X273500Y80532D02*
Y84776D01*
X111500Y223500D02*
Y231000D01*
Y221532D02*
Y223500D01*
X106500Y250331D02*
Y258000D01*
X116500Y250331D02*
Y254500D01*
X151286Y270000D02*
X157500D01*
X101000D02*
X114119Y256881D01*
X172500Y60500D02*
Y94000D01*
X172000Y60000D02*
X172500Y60500D01*
X398000Y34500D02*
X406421D01*
X410000Y38079D01*
X385000Y31500D02*
X391500Y38000D01*
X326000Y67471D02*
Y78000D01*
X102724Y71500D02*
X106500D01*
X96500Y250331D02*
X101500D01*
X121500D02*
X121831Y250000D01*
X121500Y231000D02*
X126500D01*
X196000Y68000D02*
X207000D01*
X225000Y99500D02*
Y106000D01*
X283000Y104724D02*
X283500Y104224D01*
X305469Y188000D02*
X305500Y188031D01*
X298740Y111000D02*
X300776Y113035D01*
Y120496D01*
X303138D01*
X305000Y85000D02*
X313500D01*
X317500Y89000D01*
Y102760D01*
X309260Y111000D02*
X317500Y102760D01*
X307862Y112398D02*
Y120496D01*
Y112398D02*
X309260Y111000D01*
X305500Y120496D02*
X307862D01*
X298000Y141240D02*
X298740Y140500D01*
X315000Y132500D02*
Y137000D01*
X307862Y130527D02*
X309858Y128532D01*
X307862Y130527D02*
Y132504D01*
X309260Y140500D02*
X310224Y139535D01*
Y132504D02*
Y139535D01*
X318500Y132468D02*
Y138500D01*
X316500Y140500D02*
X318500Y138500D01*
X309260Y140500D02*
X316500D01*
X306950Y32550D02*
X308000Y31500D01*
X318500Y132468D02*
X321031D01*
X323000Y130500D01*
Y89500D02*
Y130500D01*
X306950Y73450D02*
X323000Y89500D01*
X384000Y165500D02*
X391500Y173000D01*
X385000Y76500D02*
X391500Y83000D01*
X496421Y214500D02*
X500000Y218079D01*
X488000Y214500D02*
X496421D01*
X485500Y217000D02*
Y219032D01*
Y217000D02*
X488000Y214500D01*
X491953Y222969D02*
X492000Y222921D01*
X485500Y222969D02*
X491953D01*
X492000Y222921D02*
Y230701D01*
X491500Y231201D02*
X492000Y230701D01*
X496241Y231201D02*
X496500D01*
X493500Y218000D02*
X496241Y220741D01*
X492000Y218000D02*
X493500D01*
X491500Y245807D02*
X494394Y248701D01*
X498768Y233469D02*
X502500D01*
X496500Y231201D02*
X498768Y233469D01*
X500000Y223000D02*
X502500Y225500D01*
X102724Y66500D02*
Y71500D01*
X121500Y51500D02*
X129776D01*
X121500Y48531D02*
Y51500D01*
X121468Y48500D02*
X121500Y48531D01*
X117532Y59500D02*
X117532Y59500D01*
X149181Y86000D02*
X160531D01*
X163000Y88468D01*
X150209Y95169D02*
X156819Y88559D01*
X163000Y79500D02*
Y84531D01*
X163000Y84531D02*
X163000Y84531D01*
X166500Y79500D02*
Y84531D01*
X166500Y84531D01*
X156327Y95673D02*
X163000Y89000D01*
Y88468D02*
Y89000D01*
X164673Y103240D02*
X165173D01*
X170760D02*
X171000Y103000D01*
X165173Y103240D02*
X170760D01*
X161000Y127161D02*
Y133500D01*
X156500Y128000D02*
Y139000D01*
X161000Y143500D01*
X115000Y48500D02*
X117532D01*
X94532Y52969D02*
Y56000D01*
Y52969D02*
X95000Y52500D01*
X178500Y107000D02*
X184000D01*
X185000Y106000D01*
X132000Y220661D02*
Y222500D01*
X148673Y108500D02*
X149500Y109327D01*
Y142000D01*
X161000Y153500D01*
X268500Y77563D02*
Y84776D01*
Y77563D02*
X270563Y75500D01*
X270532Y72000D02*
Y75468D01*
X270563Y75500D01*
X278532Y72000D02*
Y75500D01*
X278532Y72000D02*
X278532Y72000D01*
X271000Y79000D02*
X274500Y75500D01*
X271000Y79000D02*
Y89500D01*
X272500Y91000D01*
X277000D01*
X278500Y89500D01*
Y84776D02*
Y89500D01*
X282469Y75500D02*
Y76032D01*
X278500Y80000D02*
X282469Y76032D01*
X278500Y80000D02*
Y84776D01*
X282469Y72000D02*
X284500D01*
X287000Y74500D01*
X284224Y84776D02*
X287000Y82000D01*
X283500Y84776D02*
X284224D01*
X279468Y69000D02*
X282469Y72000D01*
X287000Y74500D02*
Y78000D01*
Y82000D01*
X268500Y95000D02*
Y104224D01*
Y95000D02*
X272500Y91000D01*
X267055Y105669D02*
X268500Y104224D01*
X260000Y91500D02*
X261500Y90000D01*
X260000Y91500D02*
Y94331D01*
X268500Y104224D02*
Y107500D01*
X210500Y32000D02*
X217000D01*
X209000Y60000D02*
X217000Y68000D01*
X408768Y53469D02*
X412500D01*
X406500Y51201D02*
X408768Y53469D01*
X401500Y51201D02*
X402000Y50701D01*
Y42921D02*
Y50701D01*
X406241Y51201D02*
X406500D01*
X403500Y38000D02*
X406241Y40741D01*
X402000Y38000D02*
X403500D01*
X410000Y43000D02*
X412500Y45500D01*
X395500Y37000D02*
Y39031D01*
Y37000D02*
X398000Y34500D01*
X401953Y42968D02*
X402000Y42921D01*
X395500Y42968D02*
X401953D01*
X401500Y65807D02*
X404394Y68701D01*
X498768Y53469D02*
X502500D01*
X496500Y51201D02*
X498768Y53469D01*
X491500Y51201D02*
X492000Y50701D01*
X496241Y51201D02*
X496500D01*
X493500Y38000D02*
X496241Y40741D01*
X492000Y38000D02*
X493500D01*
X492000Y42921D02*
Y50701D01*
X500000Y43000D02*
X502500Y45500D01*
X496421Y34500D02*
X500000Y38079D01*
X488000Y34500D02*
X496421D01*
X485500Y37000D02*
Y39031D01*
Y37000D02*
X488000Y34500D01*
X491953Y42968D02*
X492000Y42921D01*
X485500Y42968D02*
X491953D01*
X491500Y65807D02*
X494394Y68701D01*
X408768Y98469D02*
X412500D01*
X406500Y96201D02*
X408768Y98469D01*
X402000Y87921D02*
Y95701D01*
X401500Y96201D02*
X402000Y95701D01*
X406241Y96201D02*
X406500D01*
X403500Y83000D02*
X406241Y85741D01*
X402000Y83000D02*
X403500D01*
X410000Y88000D02*
X412500Y90500D01*
X406421Y79500D02*
X410000Y83079D01*
X398000Y79500D02*
X406421D01*
X395500Y82000D02*
Y84031D01*
Y82000D02*
X398000Y79500D01*
X401953Y87968D02*
X402000Y87921D01*
X395500Y87968D02*
X401953D01*
X401500Y110807D02*
X404394Y113701D01*
X498768Y98469D02*
X502500D01*
X496500Y96201D02*
X498768Y98469D01*
X491500Y96201D02*
X492000Y95701D01*
X496241Y96201D02*
X496500D01*
X493500Y83000D02*
X496241Y85741D01*
X492000Y83000D02*
X493500D01*
X492000Y87921D02*
Y95701D01*
X500000Y88000D02*
X502500Y90500D01*
X496421Y79500D02*
X500000Y83079D01*
X488000Y79500D02*
X496421D01*
X485500Y82000D02*
Y84031D01*
Y82000D02*
X488000Y79500D01*
X491953Y87968D02*
X492000Y87921D01*
X485500Y87968D02*
X491953D01*
X491500Y110807D02*
X494394Y113701D01*
X408768Y143468D02*
X412500D01*
X406500Y141201D02*
X408768Y143468D01*
X401500Y141201D02*
X402000Y140701D01*
Y132921D02*
Y140701D01*
X406241Y141201D02*
X406500D01*
X403500Y128000D02*
X406241Y130741D01*
X402000Y128000D02*
X403500D01*
X410000Y133000D02*
X412500Y135500D01*
X406421Y124500D02*
X410000Y128079D01*
X398000Y124500D02*
X406421D01*
X395500Y127000D02*
Y129032D01*
Y127000D02*
X398000Y124500D01*
X401953Y132968D02*
X402000Y132921D01*
X395500Y132968D02*
X401953D01*
X401500Y155807D02*
X404394Y158701D01*
X498768Y143468D02*
X502500D01*
X496500Y141201D02*
X498768Y143468D01*
X496241Y141201D02*
X496500D01*
X493500Y128000D02*
X496241Y130741D01*
X492000Y128000D02*
X493500D01*
X492000Y132921D02*
Y140701D01*
X500000Y133000D02*
X502500Y135500D01*
X496421Y124500D02*
X500000Y128079D01*
X488000Y124500D02*
X496421D01*
X485500Y127000D02*
Y129032D01*
Y127000D02*
X488000Y124500D01*
X491953Y132968D02*
X492000Y132921D01*
X485500Y132968D02*
X491953D01*
X491500Y155807D02*
X494394Y158701D01*
X401500Y186201D02*
X402000Y185701D01*
Y177921D02*
Y185701D01*
X406241Y186201D02*
X406500D01*
X402000Y173000D02*
X403500D01*
X395500Y172000D02*
Y174031D01*
Y172000D02*
X398000Y169500D01*
X401953Y177969D02*
X402000Y177921D01*
X395500Y177969D02*
X401953D01*
X401500Y200807D02*
X404394Y203701D01*
X498768Y188469D02*
X502500D01*
X496500Y186201D02*
X498768Y188469D01*
X491500Y186201D02*
X492000Y185701D01*
X496241Y186201D02*
X496500D01*
X493500Y173000D02*
X496241Y175741D01*
X492000Y173000D02*
X493500D01*
X492000Y177921D02*
Y185701D01*
X500000Y178000D02*
X502500Y180500D01*
X496421Y169500D02*
X500000Y173079D01*
X488000Y169500D02*
X496421D01*
X485500Y172000D02*
Y174031D01*
Y172000D02*
X488000Y169500D01*
X491953Y177969D02*
X492000Y177921D01*
X485500Y177969D02*
X491953D01*
X491500Y200807D02*
X494394Y203701D01*
X299000Y158500D02*
Y162000D01*
X121468Y58500D02*
Y60469D01*
X122500Y61500D01*
X129776D01*
X117532Y59500D02*
Y60532D01*
X123500Y66500D01*
X129776D01*
X249000Y31000D02*
Y43031D01*
X252000Y29000D02*
Y43031D01*
X267000Y26500D02*
X267000Y26500D01*
X272500Y27500D02*
X273000D01*
X351500Y243500D02*
Y252000D01*
Y243500D02*
X361500Y233500D01*
X369000D01*
X406241Y220741D02*
Y231201D01*
X410000Y223000D02*
X412500Y225500D01*
X417000Y38500D02*
X422000Y33500D01*
Y31000D02*
Y33500D01*
X309000Y204000D02*
Y221329D01*
X292000Y81000D02*
Y98036D01*
X289200Y100836D02*
X292000Y98036D01*
X278500Y104224D02*
Y108500D01*
X281000Y111000D01*
X291500Y239000D02*
X292500Y240000D01*
X299000Y175500D02*
Y175974D01*
Y179000D01*
Y192921D02*
Y193447D01*
Y196421D01*
Y170579D02*
X299453Y171031D01*
X299000Y188000D02*
X305469D01*
X299500Y206000D02*
X304969D01*
X305500Y206532D01*
X291500Y170000D02*
Y239000D01*
X294000Y222000D02*
X294500Y221500D01*
X299500Y211000D02*
Y213000D01*
X303000Y217500D02*
X305500Y215000D01*
Y210469D02*
Y215000D01*
X297500Y215000D02*
X299500Y213000D01*
X294000Y214000D02*
Y216500D01*
X295000Y217500D01*
X303000D01*
X261000Y251000D02*
X273000D01*
X289200Y234800D01*
Y100836D02*
Y234800D01*
X262000Y228000D02*
X282000D01*
X287500Y222500D01*
Y99000D02*
Y222500D01*
X111000Y85000D02*
Y165500D01*
X138800Y193300D01*
Y222200D01*
X140500Y192596D02*
Y238469D01*
X112700Y88800D02*
X116500Y85000D01*
X112700Y88800D02*
Y164796D01*
X140500Y192596D01*
X106500Y71500D02*
X108500Y73500D01*
Y193500D01*
X243700Y17550D02*
Y48700D01*
X278000Y26500D02*
Y47000D01*
X306950Y32550D02*
Y73450D01*
X185000Y57000D02*
X196000Y68000D01*
X200500Y60000D02*
X209000D01*
X75500Y61500D02*
X83276D01*
X149224D02*
X160500D01*
X97000Y57468D02*
Y65000D01*
X195000Y49996D02*
Y54500D01*
X185000Y49996D02*
Y57000D01*
X195000Y54500D02*
X200500Y60000D01*
X222500Y32500D02*
X227000D01*
X215000Y40000D02*
X222500Y32500D01*
X205000Y37500D02*
X210500Y32000D01*
X205000Y37500D02*
Y49996D01*
X93200Y227700D02*
X96500Y231000D01*
X101500D01*
X126500D02*
X130000D01*
X116500Y238000D02*
Y241464D01*
X104119Y245885D02*
Y256381D01*
X114119Y243846D02*
X116500Y241464D01*
X114119Y243846D02*
Y256881D01*
X128969Y250000D02*
X140500Y238469D01*
X106500Y231000D02*
Y243504D01*
X267000Y26500D02*
Y43031D01*
X97000Y57468D02*
X98469Y56000D01*
X104119Y245885D02*
X106500Y243504D01*
X116500Y231000D02*
Y238000D01*
X117532Y55000D02*
Y59500D01*
X215000Y40000D02*
Y49996D01*
X176000Y57500D02*
X187500Y69000D01*
X176000Y33500D02*
Y57500D01*
X172500Y30000D02*
X176000Y33500D01*
X149224Y66500D02*
Y67224D01*
X151000Y69000D01*
X155500D01*
X121468Y55000D02*
X122784Y56316D01*
X123147D01*
X123331Y56500D01*
X129776D01*
X87500Y38000D02*
X89000Y39500D01*
Y65000D01*
X172000Y38500D02*
X174300Y40800D01*
Y58300D01*
X177000Y61000D01*
Y92500D01*
X104000Y198000D02*
X108500Y193500D01*
X104000Y198000D02*
Y239500D01*
X463000Y31500D02*
X475000D01*
X481500Y38000D01*
X463500Y75000D02*
X473500D01*
X481500Y83000D01*
X463000Y119500D02*
X472500D01*
X481500Y128500D01*
X462500Y164000D02*
X472500D01*
X463500Y211000D02*
X473500D01*
X373500Y165500D02*
X384000D01*
X385000Y122500D02*
X391500Y129000D01*
X373000Y76500D02*
X385000D01*
X373000Y122500D02*
X385000D01*
X373000Y31500D02*
X385000D01*
X292000Y52500D02*
Y81000D01*
Y52500D02*
X303500Y41000D01*
X206750Y24000D02*
X216750Y14000D01*
X233500Y15500D02*
X241816Y23816D01*
Y62684D01*
X156327Y95673D02*
Y99500D01*
X156827D02*
Y107236D01*
X326850Y27150D02*
X327500Y26500D01*
X326850Y27150D02*
Y66621D01*
X417000Y38500D02*
X417500Y39000D01*
Y77000D01*
X417000Y122500D02*
X417500Y122000D01*
Y77000D02*
Y122000D01*
X417000Y122500D02*
Y166500D01*
X416500Y211500D02*
X417000Y211000D01*
Y166500D02*
Y211000D01*
X325500Y213000D02*
Y222029D01*
X327500Y224029D01*
X325500Y213000D02*
X326000Y212500D01*
Y168000D02*
Y212500D01*
Y78000D02*
Y123000D01*
Y168000D01*
X283000Y104724D02*
X284500Y106224D01*
X235500Y99000D02*
Y106500D01*
X270000Y30500D02*
X273000Y27500D01*
X443300Y222718D02*
X443671Y223089D01*
X443300Y201282D02*
X443671Y200911D01*
X443300Y201282D02*
Y222718D01*
X274468Y70031D02*
Y72000D01*
Y70031D02*
X275500Y69000D01*
X279468D01*
X246500Y62831D02*
X262331D01*
X62500Y78260D02*
X78000D01*
X128169Y216831D02*
X132000Y220661D01*
X110500Y242500D02*
X111500Y243500D01*
X125000Y80240D02*
X141299D01*
X144500Y83441D02*
X149181D01*
X417000Y211000D02*
Y248500D01*
X46500Y45500D02*
Y54000D01*
Y45500D02*
X54000Y38000D01*
X87500D01*
X27800Y59000D02*
X28500D01*
X52500Y35000D01*
X298000Y141240D02*
X304000Y147240D01*
D28*
X200532Y75968D02*
X258500D01*
X185000Y91500D02*
X200532Y75968D01*
X185000Y91500D02*
Y106000D01*
D29*
X452001Y240500D02*
X452001D01*
X452000Y240500D02*
X452001Y240500D01*
X332000Y235642D02*
Y246000D01*
X481500Y186201D02*
X486500D01*
X491500D01*
X481500Y231201D02*
X486500D01*
X491500D01*
X396500D02*
X401500D01*
X391500Y186201D02*
X396500D01*
X401500D01*
X396500Y141201D02*
X401500D01*
X391500D02*
X396500D01*
Y96201D02*
X401500D01*
X391500D02*
X396500D01*
Y51201D02*
X401500D01*
X391500D02*
X396500D01*
X486500D02*
X491500D01*
X481500D02*
X486500D01*
Y96201D02*
X491500D01*
X481500D02*
X486500D01*
Y141201D02*
X491500D01*
X362000Y240400D02*
X371935D01*
Y240300D02*
X378500Y246865D01*
X397843Y246965D02*
X399000Y245807D01*
X378500Y246965D02*
X397843D01*
X379000Y201965D02*
X397843D01*
X378500D02*
X379000D01*
X397843D02*
X399000Y200807D01*
X397843Y156965D02*
X399000Y155807D01*
X378500Y156965D02*
X397843D01*
Y111965D02*
X399000Y110807D01*
X378500Y111965D02*
X397843D01*
X397807Y67000D02*
X399000Y65807D01*
X378535Y67000D02*
X397807D01*
X371935Y60400D02*
X378535Y67000D01*
X461935Y60400D02*
X468500Y66965D01*
X487843D02*
X489000Y65807D01*
X468500Y66965D02*
X487843D01*
X461935Y105400D02*
X468500Y111965D01*
X487843D02*
X489000Y110807D01*
X468500Y111965D02*
X487843D01*
X461935Y150400D02*
X468500Y156965D01*
X487843D02*
X489000Y155807D01*
X468500Y156965D02*
X487843D01*
Y201965D02*
X489000Y200807D01*
X468500Y201965D02*
X487843D01*
Y246965D02*
X489000Y245807D01*
X468500Y246965D02*
X487843D01*
X461935Y195400D02*
X468500Y201965D01*
X371935Y150400D02*
X378500Y156965D01*
X362000Y105400D02*
X371935D01*
X378500Y111965D01*
X362000Y60400D02*
X371935D01*
X362000Y259500D02*
X362500Y260000D01*
Y272000D01*
X346071Y38971D02*
X358542Y26500D01*
X331929Y235571D02*
X332000Y235642D01*
X346071Y190571D02*
Y235571D01*
X331929Y190571D02*
Y235571D01*
X346071Y100571D02*
Y145571D01*
Y190571D01*
X421929Y235571D02*
Y251071D01*
X436071Y36071D02*
Y55571D01*
X346071Y38971D02*
Y55571D01*
X331929Y100571D02*
Y145571D01*
X421929Y100571D02*
Y145571D01*
X331929D02*
Y190571D01*
X421929Y145571D02*
Y190571D01*
X436071Y145571D02*
Y190571D01*
Y235571D01*
Y100571D02*
Y145571D01*
Y55571D02*
Y100571D01*
X481500Y141201D02*
X486500D01*
X346071Y55571D02*
Y100571D01*
X331929Y55571D02*
Y100571D01*
X372535Y195500D02*
X379000Y201965D01*
X461935Y240400D02*
X468500Y246965D01*
X426500Y26500D02*
X436071Y36071D01*
X410000Y14900D02*
X414900Y10000D01*
X410000Y14900D02*
Y26500D01*
X358542D02*
X410000D01*
X426500D01*
X414000Y259000D02*
X421929Y251071D01*
X332000Y246000D02*
X345000Y259000D01*
X414000D01*
X362000Y195500D02*
X372535D01*
X362000Y150500D02*
X371935D01*
X452000Y60500D02*
X461935D01*
X452000Y105500D02*
X461935D01*
X452000Y150500D02*
X461935D01*
X452000Y195500D02*
X461935D01*
X452001Y240500D02*
X461935Y240400D01*
X421929Y55571D02*
X422000Y55642D01*
X421929Y100571D02*
X422000Y100500D01*
Y55642D02*
Y100500D01*
X421929Y190571D02*
Y235571D01*
X391600Y270000D02*
X393500Y268100D01*
X392753Y259753D02*
X393500Y260500D01*
Y268100D01*
X380000Y222000D02*
X389201Y231201D01*
X391500D01*
X396500D01*
X389201Y186201D02*
X391500D01*
X380000Y177000D02*
X389201Y186201D01*
Y141201D02*
X391500D01*
X380000Y132000D02*
X389201Y141201D01*
Y96201D02*
X391500D01*
X380000Y87000D02*
X389201Y96201D01*
X380000Y42000D02*
X389201Y51201D01*
X391500D01*
X479201D02*
X481500D01*
X470000Y42000D02*
X479201Y51201D01*
Y96201D02*
X481500D01*
X470000Y87000D02*
X479201Y96201D01*
Y141201D02*
X481500D01*
X470000Y132000D02*
X479201Y141201D01*
X470000Y177000D02*
X479201Y186201D01*
X481500D01*
X479201Y231201D02*
X481500D01*
X470000Y222000D02*
X479201Y231201D01*
D30*
X165500Y121500D02*
G03*
X168500Y118500I3000J0D01*
G01*
X267500D02*
G03*
X270500Y121500I0J3000D01*
G01*
Y220500D02*
G03*
X267500Y223500I-3000J0D01*
G01*
X0Y25000D02*
G03*
X25000Y0I25000J0D01*
G01*
Y280000D02*
G03*
X0Y255000I0J-25000D01*
G01*
X168500Y223500D02*
G03*
X165500Y220500I0J-3000D01*
G01*
X0Y-2500D02*
Y2500D01*
X-2500Y0D02*
X2500D01*
X25000Y280000D02*
X510000D01*
X0Y25000D02*
Y109100D01*
Y197800D02*
Y255000D01*
Y109100D02*
X88300D01*
X0Y197800D02*
X88300D01*
Y109100D02*
Y197800D01*
X270500Y121500D02*
Y220500D01*
X165500Y121500D02*
Y220500D01*
X168500Y118500D02*
X267500D01*
X168500Y223500D02*
X267500D01*
X510000Y0D02*
Y280000D01*
X25000Y0D02*
X510000D01*
D31*
X34950Y27106D02*
D03*
X46750D02*
D03*
Y15294D02*
D03*
X34950D02*
D03*
X452000Y240400D02*
D03*
Y228600D02*
D03*
X131100Y27106D02*
D03*
X142900D02*
D03*
Y15294D02*
D03*
X131100D02*
D03*
X151500Y205400D02*
D03*
Y193600D02*
D03*
X83000Y27106D02*
D03*
X94800D02*
D03*
Y15294D02*
D03*
X83000D02*
D03*
X36100Y212500D02*
D03*
X47900D02*
D03*
X225800Y270000D02*
D03*
X202200D02*
D03*
X214000D02*
D03*
X169300D02*
D03*
X145700D02*
D03*
X157500D02*
D03*
X112800D02*
D03*
X89200D02*
D03*
X101000D02*
D03*
X56300D02*
D03*
X32700D02*
D03*
X44500D02*
D03*
X362000Y240400D02*
D03*
Y228600D02*
D03*
X452000Y195400D02*
D03*
Y183600D02*
D03*
X362000Y195400D02*
D03*
Y183600D02*
D03*
X452000Y150400D02*
D03*
Y138600D02*
D03*
X362000Y150400D02*
D03*
Y138600D02*
D03*
X452000Y105400D02*
D03*
Y93600D02*
D03*
X362000Y105400D02*
D03*
Y93600D02*
D03*
X452000Y60400D02*
D03*
Y48600D02*
D03*
X362000Y60400D02*
D03*
Y48600D02*
D03*
D32*
X55200Y21200D02*
D03*
X26500D02*
D03*
X151350D02*
D03*
X122650D02*
D03*
X103250D02*
D03*
X74550D02*
D03*
X27650Y212500D02*
D03*
X56350D02*
D03*
X193750Y270000D02*
D03*
X234250D02*
D03*
X137250D02*
D03*
X177750D02*
D03*
X80750D02*
D03*
X121250D02*
D03*
X24250D02*
D03*
X64750D02*
D03*
D33*
X116500Y185500D02*
D03*
X316500Y41500D02*
D03*
X248000Y89500D02*
D03*
X28000Y96500D02*
D03*
X27800Y77650D02*
D03*
X11800D02*
D03*
X27800Y59000D02*
D03*
X11800D02*
D03*
X362500Y272000D02*
D03*
X342000D02*
D03*
X277750Y14000D02*
D03*
X262500D02*
D03*
X247250D02*
D03*
X293000D02*
D03*
X12000Y96500D02*
D03*
X186250Y14000D02*
D03*
X12500Y240000D02*
D03*
X171000Y14000D02*
D03*
X216750D02*
D03*
X232000D02*
D03*
X201500D02*
D03*
X377500Y14500D02*
D03*
X33000Y240000D02*
D03*
X361000Y14500D02*
D03*
X472000Y17000D02*
D03*
D34*
X415095Y10000D02*
D03*
X391595Y270000D02*
D03*
X333405Y10000D02*
D03*
D35*
X426905D02*
D03*
X403406Y270000D02*
D03*
X321595Y10000D02*
D03*
D36*
X452000Y248850D02*
D03*
Y220150D02*
D03*
X151500Y213850D02*
D03*
Y185150D02*
D03*
X362000Y248850D02*
D03*
Y220150D02*
D03*
X452000Y203850D02*
D03*
Y175150D02*
D03*
X362000Y203850D02*
D03*
Y175150D02*
D03*
X452000Y158850D02*
D03*
Y130150D02*
D03*
X362000Y158850D02*
D03*
Y130150D02*
D03*
X452000Y113850D02*
D03*
Y85150D02*
D03*
X362000Y113850D02*
D03*
Y85150D02*
D03*
X452000Y68850D02*
D03*
Y40150D02*
D03*
X362000Y68850D02*
D03*
Y40150D02*
D03*
D37*
X339000Y228500D02*
D03*
X346071Y235571D02*
D03*
X331929D02*
D03*
X339000Y238500D02*
D03*
X161000Y163500D02*
D03*
Y133500D02*
D03*
Y143500D02*
D03*
Y153500D02*
D03*
X305000Y85000D02*
D03*
X312071Y92071D02*
D03*
X297929D02*
D03*
X305000Y95000D02*
D03*
X429000Y238500D02*
D03*
X421929Y235571D02*
D03*
X436071D02*
D03*
X429000Y228500D02*
D03*
Y193500D02*
D03*
X421929Y190571D02*
D03*
X436071D02*
D03*
X429000Y183500D02*
D03*
X339000D02*
D03*
X346071Y190571D02*
D03*
X331929D02*
D03*
X339000Y193500D02*
D03*
X429000Y148500D02*
D03*
X421929Y145571D02*
D03*
X436071D02*
D03*
X429000Y138500D02*
D03*
X339000D02*
D03*
X346071Y145571D02*
D03*
X331929D02*
D03*
X339000Y148500D02*
D03*
X429000Y103500D02*
D03*
X421929Y100571D02*
D03*
X436071D02*
D03*
X429000Y93500D02*
D03*
Y58500D02*
D03*
X421929Y55571D02*
D03*
X436071D02*
D03*
X429000Y48500D02*
D03*
X339000D02*
D03*
X346071Y55571D02*
D03*
X331929D02*
D03*
X339000Y58500D02*
D03*
Y93500D02*
D03*
X346071Y100571D02*
D03*
X331929D02*
D03*
X339000Y103500D02*
D03*
D38*
X123500Y101500D02*
D03*
D39*
Y111500D02*
D03*
D40*
X316900Y227500D02*
D03*
X56900Y240000D02*
D03*
X316900Y62500D02*
D03*
X56900Y50000D02*
D03*
X450000Y270000D02*
D03*
Y20000D02*
D03*
D41*
X305500Y125811D02*
D03*
X309555D02*
D03*
X301445D02*
D03*
D42*
X114000Y51500D02*
D03*
Y48000D02*
D03*
X121500Y45500D02*
D03*
X107000Y53500D02*
D03*
Y46000D02*
D03*
X79000Y5000D02*
D03*
X102000Y6000D02*
D03*
X146000Y9000D02*
D03*
X123000Y8500D02*
D03*
X62500Y13500D02*
D03*
X52500Y35000D02*
D03*
X30500Y40000D02*
D03*
X40500Y34500D02*
D03*
X296500Y165000D02*
D03*
X463000Y119500D02*
D03*
X462500Y164000D02*
D03*
X345500Y247965D02*
D03*
X342000Y249000D02*
D03*
X305500Y221000D02*
D03*
X303500Y239000D02*
D03*
X292500Y240000D02*
D03*
X463000Y31500D02*
D03*
X463500Y211000D02*
D03*
X462500Y75000D02*
D03*
X373000Y122500D02*
D03*
X373500Y165500D02*
D03*
X247500Y29500D02*
D03*
X142000Y87000D02*
D03*
X157500Y123000D02*
D03*
X239750Y69500D02*
D03*
X162000Y59000D02*
D03*
X262331Y62831D02*
D03*
X391500Y129000D02*
D03*
X481500Y219000D02*
D03*
Y173000D02*
D03*
Y128500D02*
D03*
Y83000D02*
D03*
X390000Y62500D02*
D03*
X159500Y81000D02*
D03*
X215000Y99500D02*
D03*
X391500Y173000D02*
D03*
Y221500D02*
D03*
X67500Y67740D02*
D03*
X78000Y78260D02*
D03*
X130000Y100000D02*
D03*
X94500Y73000D02*
D03*
X161500Y62500D02*
D03*
X170000Y71500D02*
D03*
X150000Y77000D02*
D03*
X274500Y50500D02*
D03*
X273000Y21500D02*
D03*
X180500Y31000D02*
D03*
X69500Y46000D02*
D03*
X327500Y249500D02*
D03*
X416000D02*
D03*
X412500Y226500D02*
D03*
X380000Y222000D02*
D03*
X369500Y96500D02*
D03*
Y51500D02*
D03*
X261000Y251000D02*
D03*
X441000Y261500D02*
D03*
X434000Y267000D02*
D03*
X438000Y264000D02*
D03*
X459500Y141500D02*
D03*
Y96500D02*
D03*
Y51500D02*
D03*
X304000Y111000D02*
D03*
Y148500D02*
D03*
X309000Y191532D02*
D03*
X309000Y158000D02*
D03*
X299000Y179000D02*
D03*
X309000Y175000D02*
D03*
X262000Y39500D02*
D03*
X144500Y83500D02*
D03*
X254000Y50500D02*
D03*
X265000D02*
D03*
X250500Y53000D02*
D03*
X268500D02*
D03*
X182000Y56500D02*
D03*
X116500Y85000D02*
D03*
X111000D02*
D03*
X95000Y88000D02*
D03*
X91500Y87000D02*
D03*
X97000Y243500D02*
D03*
X373000Y31500D02*
D03*
X76500Y221500D02*
D03*
X110500Y243000D02*
D03*
X281000Y111000D02*
D03*
X284500Y115000D02*
D03*
X292000Y81000D02*
D03*
X166500Y92000D02*
D03*
X287500Y99000D02*
D03*
X272500Y91000D02*
D03*
X111500Y223500D02*
D03*
X106500Y258000D02*
D03*
X177000Y92500D02*
D03*
X172500Y94000D02*
D03*
X391500Y38000D02*
D03*
X412500Y46500D02*
D03*
X326000Y78000D02*
D03*
X262000Y228000D02*
D03*
X80500Y254500D02*
D03*
X116500Y238000D02*
D03*
X187500Y69000D02*
D03*
X235500Y99000D02*
D03*
X225000Y99500D02*
D03*
X172000Y60000D02*
D03*
Y38500D02*
D03*
X315000Y137000D02*
D03*
X308000Y31500D02*
D03*
X391500Y83000D02*
D03*
X481500Y38000D02*
D03*
X470000Y222000D02*
D03*
X502500Y226500D02*
D03*
X76900Y50500D02*
D03*
X163000Y79500D02*
D03*
X166500D02*
D03*
X171000Y103000D02*
D03*
X95000Y52500D02*
D03*
X150209Y95169D02*
D03*
X178500Y107000D02*
D03*
X132000Y222500D02*
D03*
X287000Y78000D02*
D03*
X262000Y90000D02*
D03*
X287000Y30500D02*
D03*
X297000D02*
D03*
X286800Y69500D02*
D03*
X296800D02*
D03*
X217000Y32000D02*
D03*
X227000Y32500D02*
D03*
X217000Y68000D02*
D03*
X207000D02*
D03*
X380000Y42000D02*
D03*
X470000D02*
D03*
X502500Y46500D02*
D03*
X380000Y87000D02*
D03*
X412500Y91500D02*
D03*
X470000Y87000D02*
D03*
X502500Y91500D02*
D03*
X380000Y132000D02*
D03*
X412500Y136500D02*
D03*
X470000Y132000D02*
D03*
X502500Y136500D02*
D03*
X380000Y177000D02*
D03*
X470000D02*
D03*
X502500Y181500D02*
D03*
X299000Y162000D02*
D03*
Y196421D02*
D03*
X252000Y29000D02*
D03*
X267000Y26500D02*
D03*
X272500Y27500D02*
D03*
X373000Y76500D02*
D03*
X351500Y252000D02*
D03*
X369000Y233500D02*
D03*
X412500Y181500D02*
D03*
X233500Y71000D02*
D03*
X184000Y71500D02*
D03*
X422000Y31000D02*
D03*
X309000Y204000D02*
D03*
X294000Y222000D02*
D03*
Y214000D02*
D03*
X297500Y215000D02*
D03*
X303500Y41000D02*
D03*
X155500Y69000D02*
D03*
X157000Y103500D02*
D03*
X327500Y26500D02*
D03*
X417500Y77000D02*
D03*
X417000Y122500D02*
D03*
Y166500D02*
D03*
X416500Y211500D02*
D03*
X325500Y213000D02*
D03*
X326000Y168000D02*
D03*
Y123000D02*
D03*
D43*
X411236Y4961D02*
D03*
X387736Y264961D02*
D03*
X337264Y15039D02*
D03*
M02*
