G04 Layer_Color=32896*
%FSLAX25Y25*%
%MOIN*%
G70*
G01*
G75*
%ADD30C,0.00100*%
%ADD63C,0.00787*%
%ADD64C,0.00500*%
%ADD65C,0.00600*%
%ADD66C,0.00700*%
D30*
X165500Y121500D02*
G03*
X168500Y118500I3000J0D01*
G01*
X267500D02*
G03*
X270500Y121500I0J3000D01*
G01*
Y220500D02*
G03*
X267500Y223500I-3000J0D01*
G01*
X0Y25000D02*
G03*
X25000Y0I25000J0D01*
G01*
Y280000D02*
G03*
X0Y255000I0J-25000D01*
G01*
X168500Y223500D02*
G03*
X165500Y220500I0J-3000D01*
G01*
X0Y-2500D02*
Y2500D01*
X-2500Y0D02*
X2500D01*
X25000Y280000D02*
X510000D01*
X0Y25000D02*
Y109100D01*
Y197800D02*
Y255000D01*
Y109100D02*
X88300D01*
X0Y197800D02*
X88300D01*
Y109100D02*
Y197800D01*
X270500Y121500D02*
Y220500D01*
X165500Y121500D02*
Y220500D01*
X168500Y118500D02*
X267500D01*
X168500Y223500D02*
X267500D01*
X510000Y0D02*
Y280000D01*
X25000Y0D02*
X510000D01*
D63*
X376988Y49626D02*
G03*
X376988Y49626I-394J0D01*
G01*
X466988D02*
G03*
X466988Y49626I-394J0D01*
G01*
X376988Y94626D02*
G03*
X376988Y94626I-394J0D01*
G01*
X466988D02*
G03*
X466988Y94626I-394J0D01*
G01*
X376988Y139626D02*
G03*
X376988Y139626I-394J0D01*
G01*
X466988D02*
G03*
X466988Y139626I-394J0D01*
G01*
X376988Y184626D02*
G03*
X376988Y184626I-394J0D01*
G01*
X466988D02*
G03*
X466988Y184626I-394J0D01*
G01*
X376988Y229626D02*
G03*
X376988Y229626I-394J0D01*
G01*
X466988D02*
G03*
X466988Y229626I-394J0D01*
G01*
D64*
X384823Y68642D02*
X400177D01*
X384823Y48760D02*
X400177D01*
X474823Y68642D02*
X490177D01*
X474823Y48760D02*
X490177D01*
X384823Y113642D02*
X400177D01*
X384823Y93760D02*
X400177D01*
X474823Y113642D02*
X490177D01*
X474823Y93760D02*
X490177D01*
X384823Y158642D02*
X400177D01*
X384823Y138760D02*
X400177D01*
X474823Y158642D02*
X490177D01*
X474823Y138760D02*
X490177D01*
X384823Y203642D02*
X400177D01*
X384823Y183760D02*
X400177D01*
X474823Y203642D02*
X490177D01*
X474823Y183760D02*
X490177D01*
X384823Y248642D02*
X400177D01*
X384823Y228760D02*
X400177D01*
X474823Y248642D02*
X490177D01*
X474823Y228760D02*
X490177D01*
X390858Y35543D02*
X393142D01*
X390858Y28457D02*
X393142D01*
X480858Y35543D02*
X483142D01*
X480858Y28457D02*
X483142D01*
X391358Y80543D02*
X393642D01*
X391358Y73457D02*
X393642D01*
X480858Y80543D02*
X483142D01*
X480858Y73457D02*
X483142D01*
X390858Y125543D02*
X393142D01*
X390858Y118457D02*
X393142D01*
X480858Y125543D02*
X483142D01*
X480858Y118457D02*
X483142D01*
X390858Y170543D02*
X393142D01*
X390858Y163457D02*
X393142D01*
X480858Y170543D02*
X483142D01*
X480858Y163457D02*
X483142D01*
X390858Y215543D02*
X393142D01*
X390858Y208457D02*
X393142D01*
X480858Y215543D02*
X483142D01*
X480858Y208457D02*
X483142D01*
X389835Y45665D02*
X394165D01*
X389835Y38736D02*
X394165D01*
X479835Y45665D02*
X484165D01*
X479835Y38736D02*
X484165D01*
X389835Y90665D02*
X394165D01*
X389835Y83736D02*
X394165D01*
X479835Y90665D02*
X484165D01*
X479835Y83736D02*
X484165D01*
X389835Y135665D02*
X394165D01*
X389835Y128736D02*
X394165D01*
X479835Y135665D02*
X484165D01*
X479835Y128736D02*
X484165D01*
X389835Y180665D02*
X394165D01*
X389835Y173736D02*
X394165D01*
X479835Y180665D02*
X484165D01*
X479835Y173736D02*
X484165D01*
X389835Y225665D02*
X394165D01*
X389835Y218736D02*
X394165D01*
X479835Y225665D02*
X484165D01*
X479835Y218736D02*
X484165D01*
D65*
X127500Y110780D02*
X132500D01*
X99701Y5000D02*
Y10000D01*
X75279Y7500D02*
Y12500D01*
X135721Y6000D02*
Y11000D01*
X134201Y6000D02*
Y11000D01*
X89780Y5000D02*
Y10000D01*
X30299Y32000D02*
Y37000D01*
X50779Y32000D02*
Y37000D01*
X211701Y260500D02*
Y265500D01*
X156280Y260500D02*
Y265500D01*
X99779Y260500D02*
Y265500D01*
X43279Y260500D02*
Y265500D01*
X442000Y224181D02*
X447000D01*
X350000Y222882D02*
X355000D01*
X442000Y179181D02*
X447000D01*
X350500Y178882D02*
X355500D01*
X442000Y134181D02*
X447000D01*
X352000D02*
X357000D01*
X442000Y89181D02*
X447000D01*
X351500Y89402D02*
X356500D01*
X442000Y44181D02*
X447000D01*
X351500Y44402D02*
X356500D01*
D66*
X120500Y6499D02*
Y3000D01*
X118751D01*
X118167Y3583D01*
Y5916D01*
X118751Y6499D01*
X120500D01*
X117001Y3000D02*
X115835D01*
X116418D01*
Y6499D01*
X117001Y5916D01*
X114085D02*
X113502Y6499D01*
X112336D01*
X111753Y5916D01*
Y3583D01*
X112336Y3000D01*
X113502D01*
X114085Y3583D01*
Y5916D01*
X27500Y37999D02*
Y34500D01*
X25751D01*
X25167Y35083D01*
Y37416D01*
X25751Y37999D01*
X27500D01*
X21668Y34500D02*
X24001D01*
X21668Y36833D01*
Y37416D01*
X22252Y37999D01*
X23418D01*
X24001Y37416D01*
X20502D02*
X19919Y37999D01*
X18753D01*
X18170Y37416D01*
Y35083D01*
X18753Y34500D01*
X19919D01*
X20502Y35083D01*
Y37416D01*
X63000Y37999D02*
Y34500D01*
X61251D01*
X60667Y35083D01*
Y37416D01*
X61251Y37999D01*
X63000D01*
X59501Y34500D02*
X58335D01*
X58918D01*
Y37999D01*
X59501Y37416D01*
X56585Y35083D02*
X56002Y34500D01*
X54836D01*
X54253Y35083D01*
Y37416D01*
X54836Y37999D01*
X56002D01*
X56585Y37416D01*
Y36833D01*
X56002Y36249D01*
X54253D01*
X133000Y4999D02*
Y1500D01*
X131251D01*
X130667Y2083D01*
Y4416D01*
X131251Y4999D01*
X133000D01*
X129501Y1500D02*
X128335D01*
X128918D01*
Y4999D01*
X129501Y4416D01*
X126585D02*
X126002Y4999D01*
X124836D01*
X124253Y4416D01*
Y3833D01*
X124836Y3249D01*
X124253Y2666D01*
Y2083D01*
X124836Y1500D01*
X126002D01*
X126585Y2083D01*
Y2666D01*
X126002Y3249D01*
X126585Y3833D01*
Y4416D01*
X126002Y3249D02*
X124836D01*
X146000Y4999D02*
Y1500D01*
X144251D01*
X143667Y2083D01*
Y4416D01*
X144251Y4999D01*
X146000D01*
X142501Y1500D02*
X141335D01*
X141918D01*
Y4999D01*
X142501Y4416D01*
X139585Y4999D02*
X137253D01*
Y4416D01*
X139585Y2083D01*
Y1500D01*
X134501Y111000D02*
X138000D01*
Y109251D01*
X137417Y108667D01*
X135084D01*
X134501Y109251D01*
Y111000D01*
X138000Y107501D02*
Y106335D01*
Y106918D01*
X134501D01*
X135084Y107501D01*
X134501Y102253D02*
X135084Y103419D01*
X136251Y104585D01*
X137417D01*
X138000Y104002D01*
Y102836D01*
X137417Y102253D01*
X136834D01*
X136251Y102836D01*
Y104585D01*
X222500Y264499D02*
Y261000D01*
X220751D01*
X220167Y261583D01*
Y263916D01*
X220751Y264499D01*
X222500D01*
X219001Y261000D02*
X217835D01*
X218418D01*
Y264499D01*
X219001Y263916D01*
X213753Y264499D02*
X216085D01*
Y262749D01*
X214919Y263333D01*
X214336D01*
X213753Y262749D01*
Y261583D01*
X214336Y261000D01*
X215502D01*
X216085Y261583D01*
X167000Y264499D02*
Y261000D01*
X165251D01*
X164667Y261583D01*
Y263916D01*
X165251Y264499D01*
X167000D01*
X163501Y261000D02*
X162335D01*
X162918D01*
Y264499D01*
X163501Y263916D01*
X158836Y261000D02*
Y264499D01*
X160585Y262749D01*
X158253D01*
X110000Y264999D02*
Y261500D01*
X108251D01*
X107667Y262083D01*
Y264416D01*
X108251Y264999D01*
X110000D01*
X106501Y261500D02*
X105335D01*
X105918D01*
Y264999D01*
X106501Y264416D01*
X103585D02*
X103002Y264999D01*
X101836D01*
X101253Y264416D01*
Y263833D01*
X101836Y263249D01*
X102419D01*
X101836D01*
X101253Y262666D01*
Y262083D01*
X101836Y261500D01*
X103002D01*
X103585Y262083D01*
X54000Y264499D02*
Y261000D01*
X52251D01*
X51667Y261583D01*
Y263916D01*
X52251Y264499D01*
X54000D01*
X50501Y261000D02*
X49335D01*
X49918D01*
Y264499D01*
X50501Y263916D01*
X45253Y261000D02*
X47585D01*
X45253Y263333D01*
Y263916D01*
X45836Y264499D01*
X47002D01*
X47585Y263916D01*
X64500Y7999D02*
Y4500D01*
X62751D01*
X62167Y5083D01*
Y7416D01*
X62751Y7999D01*
X64500D01*
X61001Y4500D02*
X59835D01*
X60418D01*
Y7999D01*
X61001Y7416D01*
X58085Y4500D02*
X56919D01*
X57502D01*
Y7999D01*
X58085Y7416D01*
X110000Y6499D02*
Y3000D01*
X108251D01*
X107667Y3583D01*
Y5916D01*
X108251Y6499D01*
X110000D01*
X106501Y3583D02*
X105918Y3000D01*
X104752D01*
X104169Y3583D01*
Y5916D01*
X104752Y6499D01*
X105918D01*
X106501Y5916D01*
Y5333D01*
X105918Y4749D01*
X104169D01*
X113000Y22000D02*
X109501D01*
Y20251D01*
X110084Y19667D01*
X111251D01*
X111834Y20251D01*
Y22000D01*
Y20834D02*
X113000Y19667D01*
Y16169D02*
Y18501D01*
X110667Y16169D01*
X110084D01*
X109501Y16752D01*
Y17918D01*
X110084Y18501D01*
X109501Y12670D02*
Y15002D01*
X111251D01*
X110667Y13836D01*
Y13253D01*
X111251Y12670D01*
X112417D01*
X113000Y13253D01*
Y14419D01*
X112417Y15002D01*
X500000Y272999D02*
Y270083D01*
X499417Y269500D01*
X498251D01*
X497667Y270083D01*
Y272999D01*
X494169D02*
X496501D01*
Y271249D01*
X495335Y271833D01*
X494752D01*
X494169Y271249D01*
Y270083D01*
X494752Y269500D01*
X495918D01*
X496501Y270083D01*
X493002Y268917D02*
X490670D01*
X487171Y272999D02*
X489503D01*
Y271249D01*
X488337D01*
X489503D01*
Y269500D01*
X483672Y272999D02*
X486004D01*
Y269500D01*
X483672D01*
X486004Y271249D02*
X484838D01*
X482506Y272999D02*
X480173D01*
X481339D01*
Y269500D01*
X479007D02*
X477841D01*
X478424D01*
Y272999D01*
X479007Y272416D01*
X462001Y272000D02*
X465500D01*
Y270251D01*
X464917Y269667D01*
X462584D01*
X462001Y270251D01*
Y272000D01*
X465500Y268501D02*
Y267335D01*
Y267918D01*
X462001D01*
X462584Y268501D01*
X466083Y265585D02*
Y263253D01*
X462001Y259754D02*
Y262087D01*
X463751D01*
Y260920D01*
Y262087D01*
X465500D01*
X462001Y256255D02*
Y258588D01*
X465500D01*
Y256255D01*
X463751Y258588D02*
Y257421D01*
X462001Y255089D02*
Y252756D01*
Y253923D01*
X465500D01*
Y251590D02*
Y250424D01*
Y251007D01*
X462001D01*
X462584Y251590D01*
X496167Y255416D02*
X496751Y255999D01*
X497917D01*
X498500Y255416D01*
Y253083D01*
X497917Y252500D01*
X496751D01*
X496167Y253083D01*
X495001Y252500D02*
X493835D01*
X494418D01*
Y255999D01*
X495001Y255416D01*
X490336Y252500D02*
Y255999D01*
X492085Y254249D01*
X489753D01*
X488587Y251917D02*
X486254D01*
X482755Y255999D02*
X485088D01*
Y254249D01*
X483921D01*
X485088D01*
Y252500D01*
X479256Y255999D02*
X481589D01*
Y252500D01*
X479256D01*
X481589Y254249D02*
X480422D01*
X478090Y255999D02*
X475757D01*
X476924D01*
Y252500D01*
X474591D02*
X473425D01*
X474008D01*
Y255999D01*
X474591Y255416D01*
X497167Y266916D02*
X497751Y267499D01*
X498917D01*
X499500Y266916D01*
Y264583D01*
X498917Y264000D01*
X497751D01*
X497167Y264583D01*
X496001Y264000D02*
X494835D01*
X495418D01*
Y267499D01*
X496001Y266916D01*
X493085D02*
X492502Y267499D01*
X491336D01*
X490753Y266916D01*
Y266333D01*
X491336Y265749D01*
X491919D01*
X491336D01*
X490753Y265166D01*
Y264583D01*
X491336Y264000D01*
X492502D01*
X493085Y264583D01*
X489586Y263417D02*
X487254D01*
X483755Y267499D02*
X486088D01*
Y265749D01*
X484921D01*
X486088D01*
Y264000D01*
X480256Y267499D02*
X482589D01*
Y264000D01*
X480256D01*
X482589Y265749D02*
X481423D01*
X479090Y267499D02*
X476757D01*
X477924D01*
Y264000D01*
X475591D02*
X474425D01*
X475008D01*
Y267499D01*
X475591Y266916D01*
X65000Y224000D02*
Y227499D01*
X66749D01*
X67333Y226916D01*
Y225749D01*
X66749Y225166D01*
X65000D01*
X68499Y226916D02*
X69082Y227499D01*
X70248D01*
X70831Y226916D01*
Y226333D01*
X70248Y225749D01*
X70831Y225166D01*
Y224583D01*
X70248Y224000D01*
X69082D01*
X68499Y224583D01*
Y225166D01*
X69082Y225749D01*
X68499Y226333D01*
Y226916D01*
X69082Y225749D02*
X70248D01*
M02*
