G04 Layer_Color=128*
%FSLAX25Y25*%
%MOIN*%
G70*
G01*
G75*
%ADD10R,0.02362X0.01968*%
%ADD12R,0.07756X0.02362*%
%ADD15R,0.01968X0.02362*%
%ADD18R,0.05118X0.02559*%
%ADD20R,0.05669X0.07165*%
%ADD22R,0.04488X0.06968*%
%ADD30C,0.00100*%
%ADD59R,0.02559X0.05118*%
%ADD60R,0.05000X0.10000*%
%ADD61R,0.04331X0.07874*%
%ADD62R,0.03150X0.03150*%
D10*
X473937Y251500D02*
D03*
X470000D02*
D03*
D12*
X402224Y51201D02*
D03*
Y56201D02*
D03*
Y61201D02*
D03*
Y66201D02*
D03*
X382776D02*
D03*
Y61201D02*
D03*
Y56201D02*
D03*
Y51201D02*
D03*
X492224D02*
D03*
Y56201D02*
D03*
Y61201D02*
D03*
Y66201D02*
D03*
X472776D02*
D03*
Y61201D02*
D03*
Y56201D02*
D03*
Y51201D02*
D03*
X402224Y96201D02*
D03*
Y101201D02*
D03*
Y106201D02*
D03*
Y111201D02*
D03*
X382776D02*
D03*
Y106201D02*
D03*
Y101201D02*
D03*
Y96201D02*
D03*
X492224D02*
D03*
Y101201D02*
D03*
Y106201D02*
D03*
Y111201D02*
D03*
X472776D02*
D03*
Y106201D02*
D03*
Y101201D02*
D03*
Y96201D02*
D03*
X402224Y141201D02*
D03*
Y146201D02*
D03*
Y151201D02*
D03*
Y156201D02*
D03*
X382776D02*
D03*
Y151201D02*
D03*
Y146201D02*
D03*
Y141201D02*
D03*
X492224D02*
D03*
Y146201D02*
D03*
Y151201D02*
D03*
Y156201D02*
D03*
X472776D02*
D03*
Y151201D02*
D03*
Y146201D02*
D03*
Y141201D02*
D03*
X402224Y186201D02*
D03*
Y191201D02*
D03*
Y196201D02*
D03*
Y201201D02*
D03*
X382776D02*
D03*
Y196201D02*
D03*
Y191201D02*
D03*
Y186201D02*
D03*
X492224D02*
D03*
Y191201D02*
D03*
Y196201D02*
D03*
Y201201D02*
D03*
X472776D02*
D03*
Y196201D02*
D03*
Y191201D02*
D03*
Y186201D02*
D03*
X402224Y231201D02*
D03*
Y236201D02*
D03*
Y241201D02*
D03*
Y246201D02*
D03*
X382776D02*
D03*
Y241201D02*
D03*
Y236201D02*
D03*
Y231201D02*
D03*
X492224D02*
D03*
Y236201D02*
D03*
Y241201D02*
D03*
Y246201D02*
D03*
X472776D02*
D03*
Y241201D02*
D03*
Y236201D02*
D03*
Y231201D02*
D03*
D15*
X374000Y232531D02*
D03*
Y236469D02*
D03*
X372000Y189032D02*
D03*
Y192968D02*
D03*
X464000Y55968D02*
D03*
Y52031D02*
D03*
X374000Y97531D02*
D03*
Y101469D02*
D03*
X464000Y101469D02*
D03*
Y97531D02*
D03*
X374000Y55937D02*
D03*
Y52000D02*
D03*
X371500Y144532D02*
D03*
Y148468D02*
D03*
X464000Y145968D02*
D03*
Y142032D02*
D03*
X495000Y206031D02*
D03*
Y209968D02*
D03*
X113000Y24032D02*
D03*
Y27968D02*
D03*
D18*
X130000Y108500D02*
D03*
Y103579D02*
D03*
D20*
X397260Y32000D02*
D03*
X386740D02*
D03*
X487260D02*
D03*
X476740D02*
D03*
X397760Y77000D02*
D03*
X387240D02*
D03*
X487260D02*
D03*
X476740D02*
D03*
X397260Y122000D02*
D03*
X386740D02*
D03*
X487260D02*
D03*
X476740D02*
D03*
X397260Y167000D02*
D03*
X386740D02*
D03*
X487260D02*
D03*
X476740D02*
D03*
X397260Y212000D02*
D03*
X386740D02*
D03*
X487260D02*
D03*
X476740D02*
D03*
D22*
X397669Y42201D02*
D03*
X386331D02*
D03*
X487669D02*
D03*
X476331D02*
D03*
X397669Y87201D02*
D03*
X386331D02*
D03*
X487669D02*
D03*
X476331D02*
D03*
X397669Y132201D02*
D03*
X386331D02*
D03*
X487669D02*
D03*
X476331D02*
D03*
X397669Y177201D02*
D03*
X386331D02*
D03*
X487669D02*
D03*
X476331D02*
D03*
X397669Y222201D02*
D03*
X386331D02*
D03*
X487669D02*
D03*
X476331D02*
D03*
D30*
X165500Y121500D02*
G03*
X168500Y118500I3000J0D01*
G01*
X267500D02*
G03*
X270500Y121500I0J3000D01*
G01*
Y220500D02*
G03*
X267500Y223500I-3000J0D01*
G01*
X0Y25000D02*
G03*
X25000Y0I25000J0D01*
G01*
Y280000D02*
G03*
X0Y255000I0J-25000D01*
G01*
X168500Y223500D02*
G03*
X165500Y220500I0J-3000D01*
G01*
X0Y-2500D02*
Y2500D01*
X-2500Y0D02*
X2500D01*
X25000Y280000D02*
X510000D01*
X0Y25000D02*
Y109100D01*
Y197800D02*
Y255000D01*
Y109100D02*
X88300D01*
X0Y197800D02*
X88300D01*
Y109100D02*
Y197800D01*
X270500Y121500D02*
Y220500D01*
X165500Y121500D02*
Y220500D01*
X168500Y118500D02*
X267500D01*
X168500Y223500D02*
X267500D01*
X510000Y0D02*
Y280000D01*
X25000Y0D02*
X510000D01*
D59*
X97421Y7500D02*
D03*
X92500D02*
D03*
X73000Y10000D02*
D03*
X68079D02*
D03*
X138000Y8500D02*
D03*
X142921D02*
D03*
X131921D02*
D03*
X127000D02*
D03*
X87500Y7500D02*
D03*
X82579D02*
D03*
X32579Y34500D02*
D03*
X37500D02*
D03*
X48500D02*
D03*
X43579D02*
D03*
X209421Y263000D02*
D03*
X204500D02*
D03*
X154000D02*
D03*
X149079D02*
D03*
X97500D02*
D03*
X92579D02*
D03*
X41000D02*
D03*
X36079D02*
D03*
D60*
X296900Y250748D02*
D03*
X286900D02*
D03*
X276900D02*
D03*
X266900D02*
D03*
X256900D02*
D03*
X246900D02*
D03*
X236900D02*
D03*
X226900D02*
D03*
X216900D02*
D03*
X206900D02*
D03*
X196900D02*
D03*
X186900D02*
D03*
X176900D02*
D03*
X166900D02*
D03*
X156900D02*
D03*
X146900D02*
D03*
X136900D02*
D03*
X126900D02*
D03*
X116900D02*
D03*
X106900D02*
D03*
X96900D02*
D03*
X86900D02*
D03*
X296900Y229252D02*
D03*
X286900D02*
D03*
X276900D02*
D03*
X266900D02*
D03*
X256900D02*
D03*
X246900D02*
D03*
X236900D02*
D03*
X226900D02*
D03*
X216900D02*
D03*
X206900D02*
D03*
X196900D02*
D03*
X186900D02*
D03*
X176900D02*
D03*
X166900D02*
D03*
X156900D02*
D03*
X146900D02*
D03*
X136900D02*
D03*
X126900D02*
D03*
X116900D02*
D03*
X106900D02*
D03*
X96900D02*
D03*
X86900D02*
D03*
X76900D02*
D03*
Y250748D02*
D03*
X296900Y60748D02*
D03*
X286900D02*
D03*
X276900D02*
D03*
X266900D02*
D03*
X256900D02*
D03*
X246900D02*
D03*
X236900D02*
D03*
X226900D02*
D03*
X216900D02*
D03*
X206900D02*
D03*
X196900D02*
D03*
X186900D02*
D03*
X176900D02*
D03*
X166900D02*
D03*
X156900D02*
D03*
X146900D02*
D03*
X136900D02*
D03*
X126900D02*
D03*
X116900D02*
D03*
X106900D02*
D03*
X96900D02*
D03*
X86900D02*
D03*
X296900Y39252D02*
D03*
X286900D02*
D03*
X276900D02*
D03*
X266900D02*
D03*
X256900D02*
D03*
X246900D02*
D03*
X236900D02*
D03*
X226900D02*
D03*
X216900D02*
D03*
X206900D02*
D03*
X196900D02*
D03*
X186900D02*
D03*
X176900D02*
D03*
X166900D02*
D03*
X156900D02*
D03*
X146900D02*
D03*
X136900D02*
D03*
X126900D02*
D03*
X116900D02*
D03*
X106900D02*
D03*
X96900D02*
D03*
X86900D02*
D03*
X76900D02*
D03*
Y60748D02*
D03*
D61*
X444500Y229299D02*
D03*
X352500Y228000D02*
D03*
X444500Y184299D02*
D03*
X353000Y184000D02*
D03*
X444500Y139299D02*
D03*
X354500D02*
D03*
X444500Y94299D02*
D03*
X354000Y94520D02*
D03*
X444500Y49299D02*
D03*
X354000Y49520D02*
D03*
D62*
X444500Y236779D02*
D03*
X352500Y235480D02*
D03*
X444500Y191779D02*
D03*
X353000Y191480D02*
D03*
X444500Y146780D02*
D03*
X354500D02*
D03*
X444500Y101779D02*
D03*
X354000Y102000D02*
D03*
X444500Y56779D02*
D03*
X354000Y57000D02*
D03*
M02*
